<svg width="215" height="437" viewBox="0 0 215 437" fill="none" xmlns="http://www.w3.org/2000/svg">
<rect width="215" height="437" fill="white"/>
<g id="hand-colored-r 1">
<g id="hand-r">
<g id="palm-r">
<path id="metacarpal-lower-r" d="M15.7102 296.149C12.8818 292.1 6.27037 294.747 4.39395 299.532C2.51753 304.318 3.82086 309.709 5.14487 314.63C12.2228 340.94 19.2967 367.258 26.3669 393.581C28.2507 400.606 31.0552 408.652 37.4753 410.516C41.3734 411.645 45.5188 410.093 49.3607 408.554C64.9056 402.339 80.5928 396.042 94.5788 386.268C99.9085 382.546 104.994 378.36 109.987 374.152C143.161 346.434 177.012 316.834 196.201 276.287C197.684 273.445 198.748 270.381 199.355 267.206C200.622 258.889 196.23 251.089 192.027 244.129C192.443 237.58 187.145 228.943 181.735 226.317C176.324 223.691 170.036 223.96 164.202 225.433C158.368 226.906 152.798 229.521 147.065 231.48C139.418 234.109 131.46 235.591 123.949 238.64C114.108 242.61 105.253 249.12 95.7329 253.995C82.6338 260.725 68.3533 264.274 55.0153 270.42C40.1121 277.319 29.1913 286.263 15.7102 296.149Z" fill="#E5B0A5"/>
<path id="index-metacarpal-r" d="M129.844 259.202C140.51 259.618 154.939 260.5 164.536 253.941C173.358 247.92 179.186 246.567 184.028 235.67C188.584 225.403 191.714 213.094 186.214 202.82C181.774 194.571 173.076 190.54 164.591 188.964C155.369 187.276 145.872 187.878 136.834 190.722C133.497 191.769 130.123 193.185 127.589 195.893C125.775 198.016 124.317 200.454 123.28 203.098C117.837 215.572 115.238 229.202 115.7 242.857C115.862 247.785 116.657 253.174 120.004 256.229C122.644 258.682 126.361 259.062 129.844 259.202Z" fill="#E5B0A5"/>
<path id="metacarpal-upper-r" d="M118.793 187.85C115.609 187.896 112.438 188.404 109.37 189.362C101.296 192.311 94.1815 196.427 85.8835 199.056C76.6506 201.973 67.6369 205.664 58.9288 210.093C52.5151 213.352 46.2852 217.018 40.2744 221.071C39.8455 221.957 39.2076 222.711 38.4246 223.257C37.6416 223.804 36.7407 224.125 35.8125 224.186C27.7905 229.951 20.2506 236.45 13.2804 243.611C9.99796 246.8 7.1178 250.432 4.71482 254.409C-2.19955 266.651 -0.140418 281.85 2.75246 295.651C3.11499 297.369 3.5718 299.239 5.00223 300.333C6.27649 301.318 8.02879 301.414 9.66084 301.415C24.1628 301.329 37.9157 295.718 51.2332 290.195C80.9795 277.871 116.18 269.116 136.854 243.374C150.282 226.609 146.43 186.077 118.793 187.85Z" fill="#E5B0A5"/>
<path id="carpal-r" d="M33.191 405.884C31.7444 416.638 38.729 426.885 47.5498 431.606C56.3705 436.327 66.6431 436.644 76.5462 436.441C87.783 436.209 99.0053 435.409 110.213 434.045C119.628 432.905 128.371 432.931 137.813 432.106C149.813 431.045 162.978 429.412 171.462 419.884C174.388 416.335 176.792 412.337 178.592 408.031C183.217 397.974 186.72 386.004 182.578 375.887C179.896 369.287 174.254 364.567 168.073 361.997C161.891 359.427 155.149 358.792 148.488 358.561C122.033 357.64 95.5988 362.572 70.8488 373.048C56.5593 379.106 42.4512 387.353 32.8501 400.491C31.2231 402.808 31.9216 403.338 33.191 405.884Z" fill="#E5B0A5"/>
<path id="thumb-metacarpal-r" d="M98.2428 414.315C99.627 421.302 104.862 426.715 110.768 429.202C116.674 431.689 123.16 431.667 129.411 430.886C147.599 428.536 164.779 420.365 178.676 407.455C183.959 402.594 185.906 392.747 188.279 385.503C197.465 357.621 205.451 329.274 212.236 300.46C213.74 294.077 215.199 287.481 214.371 280.931C213.543 274.381 209.847 267.859 204.223 266.194C200.426 265.058 195.797 260.103 191.881 260.074C189.331 260.062 185.019 259.208 182.486 258.942C179.402 258.621 176.294 258.577 173.195 258.81C167.504 259.523 162.232 259.324 157.759 263.383C153.287 267.441 150.185 273.077 147.154 278.601L125.047 319.042C115.212 336.97 105.355 354.952 97.6102 374.154C95.9075 378.392 94.2813 382.788 94.0402 387.43C93.9705 391.045 94.3867 394.644 95.2753 398.117C96.5863 404.128 97.0409 408.268 98.2428 414.315Z" fill="#E5B0A5"/>
</g>
<g id="pinkie-r">
<path id="proximal-5-r" d="M43.2587 234.527C45.5709 228.886 47.5182 223.104 49.0896 217.214C49.3478 216.238 49.6147 215.189 49.857 214.174C48.9311 213.968 48.1015 213.457 47.5015 212.722C46.9009 211.988 46.5647 211.074 46.5465 210.126C46.4435 207.378 46.6803 204.629 47.2521 201.94C47.2287 201.789 47.2145 201.642 47.2042 201.486C47.0604 197.543 47.0481 193.622 47.0396 189.692C46.6411 188.997 46.4329 188.21 46.4363 187.41C46.3502 184 45.841 180.565 45.6234 177.133C45.4014 176.758 45.1794 176.382 44.9313 176.018C42.6667 172.604 39.443 169.666 35.5062 168.555C33.3089 168.034 31.0508 167.815 28.7943 167.904C24.9389 167.89 21.0853 167.949 17.2337 168.08C15.8832 168.023 14.5379 168.287 13.3091 168.85C12.2992 169.492 11.4566 170.365 10.8509 171.397C8.09703 175.576 5.88928 178.998 6.99573 183.878C9.39866 194.583 10.0928 205.601 9.05219 216.523C8.49123 222.35 7.44474 228.223 8.26233 234.023C9.07993 239.822 12.2026 245.711 17.61 247.918C19.8468 248.728 22.2036 249.158 24.5825 249.188C26.6141 249.379 28.6628 249.264 30.6597 248.845C37.0744 247.233 40.7383 240.681 43.2587 234.527Z" fill="#E0674E"/>
<path id="intermediate-5-r" d="M43.8657 167.685C45.1194 161.564 45.8231 155.344 45.9688 149.098C44.9269 144.971 44.2502 140.759 43.9457 136.512C40.9875 132.504 40.9323 125.354 36.275 123.918C34.5497 123.378 32.6413 123.867 30.8222 124.35L17.1243 128.064C14.2659 128.827 11.0851 129.866 9.49719 132.561C8.83212 133.845 8.38613 135.229 8.1767 136.66L5.58981 149.478C4.13789 156.678 2.81571 164.756 6.49716 170.555C6.91562 171.26 7.45119 171.888 8.08094 172.413C9.7118 173.695 11.8229 173.834 13.8812 173.917C20.1661 174.148 26.4589 174.021 32.7293 173.538C36.5955 173.242 40.883 172.538 43.9433 170.082C43.7149 169.302 43.6882 168.478 43.8657 167.685Z" fill="#E0674E"/>
<path id="distal-5-r" d="M44.0732 108.842C45.1354 100.666 44.7486 92.3664 42.9297 84.3253C42.1193 80.8067 40.9736 77.2341 38.5452 74.5977C34.1477 69.8325 26.3479 69.4734 20.6036 72.4835C16.8913 74.5651 13.7922 77.5877 11.6179 81.2472C9.88353 87.2923 8.59179 93.4561 7.75293 99.6897C6.79189 108.69 8.86546 117.696 7.82733 126.751C9.55745 130.109 12.3272 132.817 15.7232 134.472C19.1476 136.106 22.9878 136.569 26.7635 137.006C28.351 137.259 29.9643 137.314 31.5653 137.168C35.089 136.707 39.0928 134.354 41.8948 132.126C40.7473 124.452 43.068 116.63 44.0732 108.842Z" fill="#E0674E"/>
</g>
<g id="ring-r">
<path id="proximal-4-r" d="M82.7181 204.736C87.8449 185.034 89.7169 164.627 88.2623 144.322C88.1401 141.39 87.6001 138.491 86.6596 135.712C86.18 135.456 85.737 135.137 85.3417 134.764C84.4578 133.855 83.9459 132.648 83.9072 131.381C82.7849 130.342 81.4118 129.613 79.9222 129.264C74.6772 127.935 69.2133 129.821 64.1863 131.815C60.2426 133.367 56.1686 135.132 53.5388 138.45C49.8287 143.153 49.9076 149.701 50.1724 155.679C50.6244 166.049 53.9401 175.983 52.4548 186.428C52.2708 187.756 52.0886 189.116 51.9231 190.49C51.036 198.042 50.8803 206.143 55.1094 212.709C59.3386 219.274 68.4561 222.638 74.8789 218.515C79.4345 215.585 81.3427 210 82.7181 204.736Z" fill="#E0674E"/>
<path id="intermediate-4-r" d="M86.4346 112.048C86.8754 117.148 85.8843 120.822 86.4267 125.184C86.433 126.067 86.5588 129.779 85.6837 131.096C84.8985 133.991 82.6896 134.163 81.7354 134.232L67.4552 135.54C62.3418 136.019 56.6256 136.313 52.7178 132.995C48.1347 129.11 48.1368 122.148 48.5447 116.135C49.0943 107.816 49.6464 99.5004 50.2009 91.1889C50.2529 89.4167 50.501 87.6563 50.9405 85.9395C51.1716 85.1909 51.4819 84.4689 51.8661 83.7867C52.179 83.426 52.4387 83.0219 52.6371 82.5866C58.7141 74.122 76.594 69.3966 83.254 77.5435C90.1011 85.9173 85.4756 100.951 86.4346 112.048Z" fill="#E0674E"/>
<path id="distal-4-r" d="M83.6923 73.176C83.1228 67.6338 84.9675 59.9902 85.7681 54.4776C86.0772 52.6806 86.2447 50.8622 86.2688 49.0391C86.2164 47.5539 86.0675 46.0737 85.823 44.6079L83.9833 31.6758C83.238 26.4382 82.6433 21.5626 77.8172 19.4147C76.2769 18.814 74.6571 18.4411 73.0093 18.3079C69.9133 17.7652 66.7573 17.652 63.6304 17.9716C60.6004 18.4737 57.76 19.7774 55.4039 21.7474C53.0478 23.7176 51.2618 26.2822 50.2313 29.1755C47.1694 38.1365 47.5073 47.895 48.9813 57.2467C49.3141 59.3056 49.7538 61.352 49.8849 63.4287C50.0391 65.6877 50.2739 69.1395 50.2627 72.2759C50.6471 72.9174 50.87 73.6427 50.9122 74.3895C51.5159 75.2735 51.8081 76.3333 51.7428 77.4019C52.2564 77.9593 52.646 78.6194 52.8858 79.3385C52.8748 79.3665 52.8669 79.3956 52.8623 79.4254C55.2213 80.8682 57.8592 81.7947 60.6025 82.1439C63.3456 82.493 66.1316 82.2568 68.7768 81.4509C70.8422 80.7883 72.8588 79.7706 75.0199 79.7868C77.181 79.8029 79.4172 80.803 81.3305 79.8609C83.6487 78.8006 83.9529 75.6919 83.6923 73.176Z" fill="#E0674E"/>
</g>
<g id="middle-r">
<path id="proximal-3-r" d="M135.517 130.28C133.659 126.428 135.343 121.787 134.446 117.598C133.667 113.915 130.908 110.884 127.684 108.929C117.631 102.799 102.666 107.483 97.8987 118.246C95.6723 123.273 95.5182 128.986 95.4184 134.445L94.1392 198.27C94.0588 202.486 94.253 207.332 97.5582 209.959C100.227 212.071 106.136 213.464 109.518 213.857C112.901 214.251 116.544 213.657 119.221 211.507C123.131 208.322 128.914 203.348 130.004 198.376C130.876 194.288 130.468 190.009 131.224 185.886C131.543 184.39 131.942 182.9 132.083 181.376C132.166 179.505 132.087 177.631 131.845 175.774C131.518 171.658 131.773 167.517 132.606 163.472C133.658 158.533 133.934 153.878 135.026 148.948C135.797 145.329 136.58 141.651 136.399 137.993C136.215 135.735 135.12 132.476 135.517 130.28Z" fill="#E0674E"/>
<path id="intermediate-3-r" d="M99.8407 56.3008C98.1854 59.2711 97.6146 62.7178 97.2623 66.0986C96.655 73.6509 96.535 81.2345 96.9029 88.8022L97.3494 105.901C97.4151 108.328 97.52 110.906 98.8438 112.947C100.658 115.757 104.221 116.792 107.498 117.439C111.219 118.167 114.981 118.668 118.762 118.939C123.416 119.266 128.583 119.059 132.008 115.893C136.106 112.114 136.072 105.747 135.736 100.175C135.166 90.8512 134.543 81.4448 134.044 72.0752C133.805 67.3925 134.892 60.9475 132.718 56.6093C127.032 45.1937 105.73 45.2148 99.8407 56.3008Z" fill="#E0674E"/>
<path id="distal-3-r" d="M101.152 5.85656C98.1601 8.28637 96.7592 12.0777 95.8255 15.8356C94.1084 22.4981 93.878 32.7681 93.9519 39.648C94.0151 44.7737 95.7804 50.5483 99.8168 53.6782C102.037 55.3987 103.409 54.5255 106.174 55.0329C111.844 56.0535 117.556 54.6478 123.315 54.7693C127.241 54.8696 132.148 54.0544 133.276 50.2969C133.581 48.8929 136.061 25.7319 135.72 24.3362L134.135 14.9805C132.214 3.60039 115.079 -5.32672 101.152 5.85656Z" fill="#E0674E"/>
</g>
<g id="index-r">
<path id="proximal-2-r" d="M181.262 187.298L180.697 139.839C180.632 134.825 181.027 134.59 179.318 129.893C180.329 126.56 178.114 122.914 175.086 121.191C172.058 119.467 168.426 119.219 164.944 119.141C160.481 119.051 155.925 119.165 151.69 120.552C147.633 121.761 144.192 124.478 142.075 128.144C142.178 131.277 142.212 134.405 142.055 137.541C142.027 138.422 141.759 139.278 141.278 140.017C141.394 140.784 141.346 141.566 141.137 142.312C140.93 143.059 140.568 143.753 140.074 144.35C139.713 158.823 139.361 173.293 139.02 187.76C138.849 194.623 138.792 201.903 142.33 207.787C146.066 208.763 148.058 212.315 151.596 213.88C153.477 214.559 155.513 214.687 157.465 214.249C164.014 213.242 170.149 210.416 175.171 206.093C179.747 202.152 181.332 193.365 181.262 187.298Z" fill="#68B6CE"/>
<path id="intermediate-2-r" d="M180.129 126.407C179.493 113.241 178.86 100.076 178.232 86.9106C177.987 81.8853 177.524 76.3353 173.896 72.8409C170.032 69.1113 164.021 69.0942 158.67 69.4293C153.318 69.7643 146.91 70.8144 144.334 75.6123C142.745 78.5785 143.1 82.1679 143.287 85.5663C143.696 92.9917 143.042 100.437 141.347 107.678C141.194 115.534 142.013 123.391 142.119 131.263L142.215 131.339C143.484 131.989 144.901 132.299 146.326 132.239C155.62 132.593 164.928 132.366 174.194 131.555C176.501 131.35 179.256 130.731 179.986 128.512C180.154 127.824 180.202 127.112 180.129 126.407Z" fill="#68B6CE"/>
<path id="distal-2-r" d="M140.404 61.2977C140.268 63.1904 140.408 65.0927 140.82 66.9449C141.957 71.1845 143.554 75.2727 149.951 75.6747C154.121 77.079 158.619 76.9309 162.998 76.6049C168.334 76.1987 173.857 78.0788 176.243 73.279C177.838 70.0527 177.61 42.2737 176.91 38.7528L175.073 28.1167C173.344 19.4312 160.404 16.9647 148.908 21.162C138.836 24.8676 140.641 52.5854 140.404 61.2977Z" fill="#68B6CE"/>
</g>
<g id="thumb-r">
<path id="proximal-1-r" d="M118.032 251.231C113.878 254.993 109.995 260.282 110.621 265.999C111.385 273.085 118.286 276.786 123.888 280.362C135.029 287.471 143.754 298.194 154.293 306.279C164.831 314.363 178.735 319.727 190.999 314.256C192.744 314.984 194.836 311.736 196.136 310.141C199.857 305.757 203.41 300.975 205.684 295.533C207.957 290.092 208.92 283.831 207.23 278.249C206.863 276.902 206.256 275.632 205.437 274.499C204.117 272.986 202.507 271.752 200.7 270.873L194.171 267.142C180.391 259.298 167.3 253.722 155.544 242.77C152.3 239.753 149.015 236.515 144.861 235.289C138.452 233.392 131.666 236.706 125.569 239.927C121.869 241.892 117.877 244.158 116.17 248.221C114.59 251.993 115.343 256.553 113.44 260.152" fill="#68B6CE"/>
<path id="distal-1-r" d="M64.4837 247.915C64.8338 254.386 69.8999 259.772 75.8175 262.425C81.7337 265.08 88.3041 265.514 94.7192 265.906L97.1429 266.059C97.5845 265.712 98.0955 265.464 98.6416 265.334C99.1869 265.203 99.755 265.193 100.305 265.303C101.501 265.516 102.687 265.758 103.851 266.002C118.778 268.741 135.931 265.477 150.075 260.272C152.418 258.734 154.308 256.7 154.416 254.007C154.392 252.712 154.116 251.433 153.604 250.244C148.031 235.083 131.261 224.901 115.234 226.956C99.7331 228.93 86.7473 240.718 71.2224 242.333C68.9015 242.588 66.1699 242.805 64.9879 244.809C64.5151 245.771 64.3398 246.852 64.4837 247.915Z" fill="#68B6CE"/>
</g>
</g>
</g>
</svg>
