<svg width="375" height="437" viewBox="0 0 375 437" fill="none" xmlns="http://www.w3.org/2000/svg">
<rect width="375" height="437" fill="white"/>
<g id="hand-colored-r 2">
<g id="hand-colored-r 1">
<g id="hand-r">
<g id="palm-r">
<path id="metacarpal-lower-r" d="M74.94 303.71C71.41 300.04 64.75 303.48 63.39 308.46C62.03 313.44 64.12 318.63 66.17 323.35C77.13 348.59 88.0866 373.837 99.04 399.09C101.96 405.83 105.99 413.47 113.04 414.53C117.32 415.17 121.51 413.12 125.38 411.12C141.04 403.04 156.84 394.86 170.38 383.44C175.54 379.09 180.38 374.31 185.12 369.52C216.64 337.93 248.63 304.39 263.64 261.79C264.839 258.787 265.564 255.616 265.79 252.39C266.04 243.98 260.36 236.78 254.99 230.39C254.57 223.84 247.82 215.92 241.74 213.98C235.66 212.04 229.03 213.08 223.04 215.26C217.05 217.44 211.49 220.72 205.67 223.37C197.91 226.92 189.67 229.37 182.11 233.32C172.2 238.47 163.67 246.02 154.22 252.03C141.22 260.32 126.55 265.6 113.22 273.34C98.33 282.02 87.93 292.24 74.94 303.71Z" fill="#E5B0A5"/>
<path id="index-metacarpal-r" d="M191.06 253C202.42 252.1 217.83 251.2 227.14 243.51C235.7 236.45 241.7 234.39 245.4 222.98C248.88 212.23 250.58 199.63 243.4 190.11C237.61 182.47 227.86 179.54 218.66 179.02C208.663 178.48 198.676 180.246 189.47 184.18C186.07 185.63 182.68 187.45 180.35 190.45C178.706 192.78 177.481 195.379 176.73 198.13C172.6 211.179 171.636 225.025 173.92 238.52C174.74 243.39 176.29 248.64 180.24 251.26C183.36 253.37 187.35 253.29 191.06 253Z" fill="#E5B0A5"/>
<path id="metacarpal-upper-r" d="M169.97 183.55C166.601 183.987 163.307 184.882 160.18 186.21C152.01 190.13 145.01 195.09 136.56 198.72C127.157 202.751 118.088 207.523 109.44 212.99C103.07 217.013 96.9485 221.418 91.11 226.18C90.7718 227.112 90.1948 227.939 89.4366 228.577C88.6785 229.216 87.7658 229.645 86.79 229.82C79.0447 236.528 71.9069 243.906 65.46 251.87C62.3999 255.439 59.8243 259.397 57.8 263.64C52.08 276.64 56.26 291.47 61.14 304.81C61.75 306.47 62.48 308.27 64.14 309.18C65.62 310 67.49 309.88 69.22 309.68C84.58 307.81 98.42 300.55 111.81 293.43C141.72 277.54 177.88 264.52 196.41 236.43C208.44 218.14 199.03 178.39 169.97 183.55Z" fill="#E5B0A5"/>
<path id="carpal-r" d="M107.89 410.46C107.77 421.31 116.52 430.62 126.49 434.22C136.46 437.82 147.39 436.87 157.86 435.45C169.74 433.837 181.53 431.663 193.23 428.93C203.06 426.64 212.33 425.59 222.23 423.61C234.81 421.08 248.55 417.84 256.29 407.34C258.925 403.458 260.948 399.195 262.29 394.7C265.87 384.15 268.01 371.84 262.29 362.31C258.58 356.09 251.98 352.1 245.09 350.31C238.2 348.52 230.97 348.72 223.88 349.31C195.718 351.651 168.347 359.798 143.49 373.24C129.14 381.01 115.27 390.93 106.82 405.15C105.4 407.65 106.21 408.09 107.89 410.46Z" fill="#E5B0A5"/>
<path id="thumb-metacarpal-r" d="M174.49 396.05C175.04 403.2 179.86 409.39 185.77 412.78C191.68 416.17 198.53 417.16 205.23 417.36C224.736 417.865 243.936 412.435 260.29 401.79C266.5 397.79 269.84 388.32 273.29 381.5C286.623 355.26 298.75 328.37 309.67 300.83C312.09 294.73 314.49 288.41 314.47 281.78C314.45 275.15 311.4 268.1 305.68 265.57C301.82 263.85 297.58 258.21 293.45 257.57C290.76 257.16 286.32 255.64 283.68 254.98C280.467 254.181 277.192 253.652 273.89 253.4C267.79 253.22 262.25 252.2 257 255.53C251.75 258.86 247.74 263.97 243.82 268.98L215.21 305.67C202.49 321.93 189.74 338.24 179.06 356.09C176.71 360.03 174.42 364.14 173.56 368.71C173.015 372.287 172.985 375.924 173.47 379.51C174.07 385.68 174.01 389.86 174.49 396.05Z" fill="#E5B0A5"/>
</g>
<g id="pinkie-r">
<path id="proximal-5-r" d="M88.54 251.14C88.4869 245.044 88.0427 238.959 87.21 232.92C87.07 231.92 86.91 230.85 86.74 229.82C85.8068 229.989 84.8439 229.839 84.0061 229.394C83.1682 228.95 82.504 228.237 82.12 227.37C80.9609 224.877 80.1145 222.251 79.6 219.55C79.52 219.42 79.45 219.29 79.38 219.15C77.72 215.57 76.19 211.96 74.66 208.34C74.0236 207.854 73.5268 207.209 73.22 206.47C71.82 203.36 70.02 200.39 68.49 197.31C68.14 197.05 67.79 196.79 67.42 196.55C64.01 194.28 59.9 192.82 55.84 193.32C53.6125 193.691 51.446 194.364 49.4 195.32C45.84 196.8 42.31 198.347 38.81 199.96C37.5426 200.43 36.4048 201.195 35.49 202.19C34.8076 203.173 34.3688 204.304 34.21 205.49C33.29 210.41 32.58 214.42 35.49 218.49C41.8518 227.429 46.7592 237.318 50.03 247.79C51.77 253.38 53.08 259.2 56.08 264.23C59.08 269.26 64.24 273.48 70.08 273.42C72.4561 273.301 74.7953 272.784 77 271.89C78.9473 271.28 80.7914 270.38 82.47 269.22C87.76 265.25 88.6 257.79 88.54 251.14Z" fill="#E0674E"/>
<path id="intermediate-5-r" d="M63.21 189.28C61.9953 183.152 60.235 177.145 57.95 171.33C55.3907 167.928 53.1354 164.307 51.21 160.51C46.93 157.96 44.11 151.39 39.26 151.87C37.46 152.04 35.89 153.23 34.4 154.38L23.21 163.11C20.87 164.92 18.34 167.11 17.92 170.21C17.804 171.651 17.929 173.1 18.29 174.5L20.87 187.32C22.32 194.52 24.23 202.48 29.87 206.4C30.5289 206.888 31.2661 207.26 32.05 207.5C34.05 208.05 36.05 207.36 37.98 206.64C43.8636 204.418 49.6162 201.864 55.21 198.99C58.66 197.22 62.34 194.91 64.21 191.46C63.6976 190.83 63.3535 190.08 63.21 189.28Z" fill="#E0674E"/>
<path id="distal-5-r" d="M40.61 134.95C38.4227 127.001 34.8514 119.499 30.06 112.79C27.95 109.86 25.51 107.01 22.25 105.52C16.35 102.83 9.01998 105.52 4.88998 110.52C2.27371 113.877 0.587235 117.864 0 122.08C0.742437 128.325 1.93892 134.508 3.57999 140.58C6.17999 149.25 11.58 156.75 14.13 165.5C17.0258 167.926 20.6283 169.35 24.4 169.56C28.19 169.74 31.91 168.68 35.56 167.62C37.1219 167.239 38.6302 166.664 40.05 165.91C43.12 164.12 45.9 160.4 47.62 157.26C43.59 150.63 42.7 142.52 40.61 134.95Z" fill="#E0674E"/>
</g>
<g id="ring-r">
<path id="proximal-4-r" d="M132.41 215.35C132.202 194.993 128.668 174.807 121.95 155.59C121.065 152.793 119.785 150.136 118.15 147.7C117.62 147.578 117.109 147.386 116.63 147.13C115.539 146.484 114.729 145.453 114.36 144.24C113.005 143.531 111.489 143.187 109.96 143.24C104.55 143.33 99.77 146.58 95.44 149.82C92.04 152.35 88.57 155.12 86.9 159.01C84.55 164.52 86.34 170.82 88.16 176.52C91.31 186.41 97.11 195.13 98.41 205.6C98.58 206.93 98.76 208.29 98.96 209.66C100.08 217.18 102.05 225.04 107.85 230.27C113.65 235.5 123.33 236.36 128.45 230.7C132.08 226.68 132.46 220.79 132.41 215.35Z" fill="#E0674E"/>
<path id="intermediate-4-r" d="M111.74 124.92C113.5 129.727 113.505 133.532 115.17 137.6C115.407 138.45 116.5 142 116 143.5C116 146.5 113.913 147.244 113.01 147.56L99.57 152.56C94.76 154.36 89.32 156.14 84.68 153.96C79.24 151.41 77.42 144.69 76.24 138.78C74.5933 130.607 72.95 122.437 71.31 114.27C70.8964 112.546 70.6751 110.782 70.65 109.01C70.6771 108.227 70.7877 107.449 70.98 106.69C71.1876 106.26 71.3324 105.802 71.41 105.33C75.06 95.57 91.08 86.33 99.64 92.45C108.44 98.74 107.91 114.46 111.74 124.92Z" fill="#E0674E"/>
<path id="distal-4-r" d="M98.92 88.12C96.92 82.92 96.7 75.06 96.03 69.53C95.8581 67.7148 95.5438 65.9159 95.09 64.15C94.6507 62.7303 94.1196 61.3407 93.5 59.99L88.34 47.99C86.25 43.13 84.4 38.58 79.18 37.77C77.5362 37.5933 75.8753 37.6573 74.25 37.96C71.1199 38.2465 68.0443 38.9632 65.11 40.09C62.317 41.3675 59.9168 43.3691 58.1584 45.8871C56.4 48.4052 55.3474 51.3479 55.11 54.41C54.5 63.86 57.38 73.19 61.25 81.83C62.11 83.73 63.07 85.59 63.74 87.56C64.48 89.7 65.61 92.97 66.42 96C66.9589 96.5186 67.3638 97.1603 67.6 97.87C68.414 98.5652 68.9734 99.5116 69.19 100.56C69.8316 100.964 70.3804 101.499 70.8 102.13C70.7967 102.16 70.7967 102.19 70.8 102.22C73.4544 102.995 76.2429 103.199 78.9819 102.818C81.7208 102.437 84.3479 101.48 86.69 100.01C88.51 98.83 90.19 97.32 92.28 96.77C94.37 96.22 96.79 96.6 98.39 95.19C100.35 93.56 99.83 90.48 98.92 88.12Z" fill="#E0674E"/>
</g>
<g id="middle-r">
<path id="proximal-3-r" d="M171.88 122.98C169.26 119.6 169.94 114.71 168.19 110.8C166.66 107.36 163.33 104.97 159.77 103.73C148.66 99.83 135 107.53 132.58 119.05C131.45 124.43 132.49 130.05 133.53 135.41L145.58 198.1C146.38 202.24 147.58 206.94 151.36 208.82C154.41 210.33 160.48 210.46 163.87 210.14C167.26 209.82 170.7 208.48 172.87 205.82C176.03 201.89 180.65 195.82 180.68 190.73C180.68 186.55 179.39 182.45 179.27 178.26C179.27 176.73 179.35 175.19 179.17 173.67C178.861 171.823 178.393 170.006 177.77 168.24C176.592 164.283 175.979 160.179 175.95 156.05C175.95 151 175.25 146.39 175.29 141.34C175.29 137.64 175.29 133.88 174.35 130.34C173.7 128.17 171.95 125.21 171.88 122.98Z" fill="#E0674E"/>
<path id="intermediate-3-r" d="M121.57 58.06C120.57 61.31 120.73 64.8 121.09 68.18C122.07 75.693 123.533 83.1351 125.47 90.46L129.47 107.09C130.04 109.45 130.68 111.95 132.4 113.67C134.76 116.04 138.46 116.31 141.8 116.26C145.591 116.197 149.375 115.903 153.13 115.38C157.75 114.73 162.76 113.45 165.45 109.64C168.67 105.09 167.31 98.87 165.82 93.49C163.32 84.49 160.75 75.42 158.31 66.36C157.1 61.83 156.82 55.3 153.79 51.51C145.85 41.53 125.02 45.99 121.57 58.06Z" fill="#E0674E"/>
<path id="distal-3-r" d="M112.34 8.45002C109.92 11.45 109.34 15.45 109.21 19.32C108.919 26.1941 110.834 36.2866 112.34 43C113.47 48 116.4 53.28 121 55.5C123.53 56.72 124.69 55.58 127.5 55.5C133.258 55.3167 138.552 52.7514 144.21 51.67C148.07 50.95 152.7 49.13 153.02 45.22C153.026 43.7832 150.624 20.614 150 19.32L146.5 10.5C142.25 -0.229997 123.63 -5.38998 112.34 8.45002Z" fill="#E0674E"/>
</g>
<g id="index-r">
<path id="proximal-2-r" d="M241.138 181.863L244.348 134.51C244.681 129.507 245.094 129.303 243.764 124.486C245.037 121.243 243.118 117.433 240.236 115.474C237.355 113.516 233.755 112.98 230.29 112.624C225.848 112.18 221.297 111.932 216.965 112.978C212.825 113.861 209.179 116.295 206.777 119.782C206.631 122.913 206.417 126.034 206.011 129.148C205.912 130.024 205.577 130.855 205.04 131.554C205.093 132.328 204.983 133.103 204.716 133.83C204.45 134.558 204.034 135.222 203.495 135.778C201.984 150.176 200.483 164.572 198.993 178.966C198.277 185.793 197.642 193.047 200.701 199.193C204.348 200.463 206.05 204.162 209.454 206.003C211.275 206.83 213.294 207.119 215.274 206.837C221.883 206.354 228.223 204.025 233.573 200.115C238.448 196.55 240.726 187.916 241.138 181.863Z" fill="#68B6CE"/>
<path id="intermediate-2-r" d="M217.705 152.431C228.887 152.517 240.068 152.606 251.249 152.698C255.517 152.728 260.247 152.57 263.51 149.148C266.992 145.504 267.52 139.52 267.693 134.172C267.866 128.825 267.526 122.386 263.69 119.559C261.319 117.815 258.255 117.973 255.367 117.974C249.056 117.975 242.819 116.918 236.844 114.835C230.217 114.254 223.507 114.64 216.844 114.317L216.772 114.408C216.114 115.637 215.731 117.03 215.66 118.453C214.568 127.689 213.966 136.969 213.861 146.241C213.838 148.55 214.125 151.326 215.938 152.175C216.506 152.379 217.103 152.465 217.705 152.431Z" fill="#68B6CE"/>
<path id="distal-2-r" d="M271.707 131.639C270.976 129.888 269.994 128.253 268.791 126.785C265.867 123.512 262.6 120.581 256.707 123.104C252.352 123.729 248.402 125.887 244.64 128.151C240.059 130.918 234.281 131.727 234.313 137.087C234.342 140.686 247.06 165.384 249.271 168.212L255.702 176.88C261.158 183.856 273.823 180.228 282.195 171.302C289.518 163.457 275.421 139.524 271.707 131.639Z" fill="#68B6CE"/>
</g>
<g id="thumb-r">
<path id="proximal-1-r" d="M285.038 201.991C279.627 200.534 273.078 200.13 268.609 203.749C263.062 208.225 263.684 216.031 263.708 222.677C263.756 235.893 259.459 249.033 258.362 262.27C257.264 275.507 260.276 290.102 271.513 297.456C271.845 299.317 275.707 299.319 277.752 299.549C283.453 300.307 289.396 300.708 295.203 299.676C301.009 298.643 306.795 296.066 310.576 291.625C311.51 290.587 312.25 289.389 312.759 288.088C313.318 286.159 313.484 284.138 313.245 282.142L312.851 274.632C311.992 258.8 309.599 244.774 312.449 228.962C313.231 224.601 314.178 220.086 312.96 215.93C311.088 209.513 304.63 205.599 298.623 202.215C294.968 200.166 290.902 198.034 286.562 198.797C282.535 199.509 279.107 202.61 275.051 202.956" fill="#68B6CE"/>
<path id="distal-1-r" d="M261.98 156.208C256.619 159.849 254.623 166.969 255.407 173.407C256.189 179.844 259.21 185.695 262.187 191.391L263.308 193.545C263.833 193.744 264.309 194.054 264.703 194.454C265.096 194.853 265.399 195.335 265.589 195.862C266.023 196.997 266.429 198.137 266.821 199.26C272.184 213.457 283.838 226.46 295.599 235.884C298.126 237.097 300.844 237.665 303.206 236.366C304.302 235.676 305.254 234.78 306.008 233.728C316.113 221.125 316.172 201.507 306.136 188.844C296.44 176.589 279.64 171.557 270.239 159.096C268.823 157.24 267.226 155.013 264.9 155.035C263.832 155.128 262.815 155.536 261.98 156.208Z" fill="#68B6CE"/>
</g>
</g>
</g>
</g>
</svg>
