<svg width="382" height="434" viewBox="0 0 382 434" fill="none" xmlns="http://www.w3.org/2000/svg">
<rect width="382" height="434" fill="white"/>
<g id="h 3">
<g id="h 2">
<g id="h 1">
<g id="hand-colored-r 1">
<g id="hand-r">
<g id="palm-r">
<path id="metacarpal-lower-r" d="M70.8344 300.655C68.4044 297.414 64.2154 300.725 63.5234 305.291C62.8324 309.857 64.3874 314.521 65.8984 318.757C73.9774 341.413 82.0544 364.075 90.1294 386.742C92.2824 392.792 95.1894 399.63 99.8044 400.401C102.605 400.866 105.245 398.887 107.679 396.962C117.529 389.185 127.466 381.313 135.812 370.557C138.993 366.459 141.949 361.979 144.841 357.493C164.079 327.9 183.546 296.521 191.65 257.366C192.313 254.602 192.662 251.698 192.684 248.758C192.524 241.102 188.563 234.709 184.834 229.045C184.31 223.099 179.627 216.081 175.608 214.483C171.589 212.884 167.328 214.012 163.525 216.158C159.722 218.305 156.241 221.44 152.567 224.01C147.669 227.451 142.417 229.904 137.663 233.704C131.432 238.659 126.187 245.759 120.287 251.483C112.171 259.379 102.856 264.582 94.5054 271.986C85.1774 280.288 78.8224 289.868 70.8344 300.655Z" fill="#E5B0A5"/>
<path id="index-metacarpal-r" d="M139.91 248.026C146.875 246.892 156.336 245.654 161.772 238.251C166.769 231.454 170.386 229.38 172.218 218.659C173.94 208.558 174.493 196.781 169.695 188.103C165.826 181.139 159.703 178.664 154.013 178.419C147.831 178.176 141.746 180.08 136.227 183.983C134.189 185.421 132.172 187.204 130.853 190.058C129.932 192.271 129.279 194.723 128.924 197.304C126.892 209.562 126.841 222.481 128.779 234.987C129.476 239.501 130.637 244.349 133.174 246.687C135.18 248.57 137.635 248.392 139.91 248.026Z" fill="#E5B0A5"/>
<path id="metacarpal-upper-r" d="M124.186 183.903C122.127 184.397 120.132 185.317 118.257 186.634C113.376 190.497 109.258 195.298 104.193 198.897C98.5574 202.895 93.1554 207.575 88.0414 212.89C84.2734 216.802 80.6744 221.063 77.2634 225.649C77.0914 226.526 76.7684 227.311 76.3264 227.925C75.8844 228.539 75.3384 228.963 74.7444 229.151C70.2344 235.599 66.1254 242.654 62.4654 250.238C60.7194 253.641 59.2884 257.393 58.2074 261.397C55.1934 273.651 58.3514 287.352 61.8824 299.647C62.3234 301.177 62.8444 302.834 63.9034 303.638C64.8474 304.363 65.9944 304.203 67.0534 303.972C76.4454 301.831 84.6894 294.711 92.6604 287.733C110.468 272.159 132.24 259.095 142.556 232.457C149.251 215.113 141.891 178.343 124.186 183.903Z" fill="#E5B0A5"/>
<path id="carpal-r" d="M94.8414 396.812C95.1934 406.918 100.951 415.36 107.237 418.453C113.522 421.546 120.22 420.377 126.617 418.783C133.874 416.972 141.054 414.641 148.157 411.792C154.125 409.404 159.796 408.186 165.819 406.085C173.472 403.402 181.812 400.028 186.17 390.049C187.641 386.366 188.72 382.343 189.371 378.123C191.163 368.206 191.998 356.687 188.099 347.962C185.568 342.266 181.344 338.722 177.028 337.235C172.712 335.747 168.264 336.121 163.918 336.855C146.655 339.767 130.108 348.064 115.318 361.228C106.78 368.836 98.6224 378.434 93.9734 391.895C93.1964 394.26 93.7134 394.648 94.8414 396.812Z" fill="#E5B0A5"/>
<path id="thumb-metacarpal-r" d="M143.256 388.798C145.238 395.377 150.196 400.31 155.349 402.438C160.502 404.564 165.828 404.286 170.869 403.295C185.528 400.34 198.653 391.896 208.509 379.082C212.26 374.256 212.668 364.827 213.74 357.852C217.911 331.007 221.041 303.767 223.126 276.133C223.589 270.011 223.989 263.688 222.516 257.501C221.043 251.313 217.217 245.266 212.394 243.909C209.137 242.981 204.734 238.459 201.514 238.587C199.417 238.677 195.771 238.038 193.657 237.886C191.086 237.704 188.526 237.785 186.008 238.13C181.419 239.034 177.063 239.055 173.88 243.086C170.697 247.119 168.83 252.595 167.009 257.962L153.743 297.249C147.833 314.667 141.912 332.136 137.873 350.681C136.988 354.772 136.184 359.013 136.548 363.432C136.928 366.868 137.706 370.269 138.857 373.532C140.662 379.188 141.536 383.102 143.256 388.798Z" fill="#E5B0A5"/>
</g>
<g id="thumb-r">
<path id="proximal-1-r" d="M226.126 249.533C224.761 249.832 222.975 249.96 221.369 249.373C219.378 248.648 218.776 247.294 218.123 246.145C216.824 243.86 214.32 241.627 212.7 239.349C211.079 237.071 210.47 234.522 212.873 233.153C212.781 232.828 213.858 232.794 214.406 232.736C215.92 232.555 217.538 232.434 219.26 232.562C220.982 232.689 222.851 233.084 224.347 233.818C224.71 233.99 225.035 234.19 225.307 234.41C225.654 234.739 225.901 235.087 226.033 235.434L226.669 236.735C228.002 239.479 228.727 241.924 231.092 244.632C231.743 245.379 232.456 246.151 232.529 246.88C232.644 248.005 231.231 248.738 229.892 249.376C229.076 249.762 228.154 250.166 226.868 250.072C225.674 249.984 224.41 249.478 223.245 249.454" fill="#68B6CE"/>
<path id="distal-1-r" d="M225.288 262.79C219.081 261.77 214.438 258.535 212.526 255.233C210.614 251.93 210.915 248.591 211.24 245.336L211.359 244.105C211.742 243.93 212.037 243.707 212.223 243.451C212.409 243.196 212.482 242.913 212.436 242.624C212.361 241.999 212.257 241.375 212.15 240.762C211.144 232.948 216.175 224.806 222.75 218.421C224.491 217.451 226.661 216.773 229.272 217.071C230.519 217.252 231.723 217.557 232.814 217.968C246.835 222.733 254.822 232.441 251.08 240.178C247.475 247.663 248.991 245.572 245.73 253.116C245.229 254.242 239.161 260.699 228.34 262.944C227.36 263.054 226.297 263.001 225.288 262.79Z" fill="#68B6CE"/>
</g>
<g id="pinkie-r">
<path id="proximal-5-r" d="M132.286 283.415C140.123 282.271 148.006 281.515 155.888 281.153C157.193 281.095 158.592 281.043 159.94 281.009C159.864 281.964 160.202 282.887 160.901 283.628C161.597 284.369 162.614 284.885 163.785 285.095C167.162 285.751 170.663 286.072 174.209 286.051C174.389 286.104 174.566 286.148 174.756 286.189C179.605 287.128 184.473 287.931 189.353 288.733C190.074 289.267 190.977 289.631 191.973 289.789C196.179 290.563 200.265 291.759 204.452 292.667C204.839 292.962 205.226 293.257 205.59 293.575C209.021 296.501 211.517 300.277 211.488 304.388C211.348 306.663 210.811 308.937 209.892 311.147C208.53 314.957 207.076 318.75 205.533 322.526C205.121 323.871 204.31 325.146 203.171 326.246C202.011 327.114 200.625 327.769 199.126 328.159C192.946 330.034 187.903 331.524 182.236 329.446C169.794 324.912 156.351 322.002 142.407 320.825C134.965 320.202 127.292 320.05 120.379 318.072C113.465 316.094 107.265 311.822 106.46 306.037C106.254 303.665 106.564 301.251 107.379 298.896C107.869 296.851 108.746 294.852 109.982 292.965C114.282 286.956 123.736 284.661 132.286 283.415Z" fill="#E0674E"/>
<path id="intermediate-5-r" d="M154.837 284.907C162.891 284.905 170.872 285.466 178.686 286.583C183.442 288.445 188.434 289.963 193.601 291.121C197.523 294.852 206.387 296.349 206.504 301.238C206.557 303.051 205.266 304.836 204.014 306.535L194.493 319.31C192.521 321.979 190.091 324.91 186.173 325.933C184.34 326.331 182.46 326.492 180.607 326.41L163.752 326.376C154.286 326.356 143.774 326.031 137.887 321.225C137.16 320.67 136.571 320.014 136.145 319.286C135.136 317.417 135.72 315.305 136.353 313.256C138.318 307.003 140.729 300.815 143.575 294.722C145.327 290.964 147.738 286.872 151.886 284.347C152.773 284.729 153.788 284.922 154.837 284.907Z" fill="#E0674E"/>
<path id="distal-5-r" d="M162.657 286.203C173.196 286.805 183.371 288.863 192.712 292.282C196.794 293.792 200.823 295.645 203.229 298.575C207.576 303.879 205.228 311.653 199.431 316.717C195.514 319.963 190.648 322.412 185.322 323.821C177.189 324.313 169.067 324.344 161.021 323.914C149.493 323.046 139.044 319.18 127.421 318.377C123.867 315.991 121.494 312.709 120.655 309.022C119.851 305.311 120.65 301.425 121.46 297.609C121.713 295.99 122.224 294.387 122.978 292.835C124.813 289.449 129.171 285.97 132.944 283.654C142.068 286.336 152.618 285.624 162.657 286.203Z" fill="#E0674E"/>
</g>
<g id="ring-r">
<path id="proximal-4-r" d="M131.723 251.32C156.506 248.678 181.461 249.364 205.602 253.349C209.105 253.837 212.483 254.737 215.632 256.02C215.841 256.53 216.133 257.01 216.499 257.45C217.41 258.444 218.756 259.104 220.274 259.301C221.291 260.548 221.883 262.006 221.993 263.532C222.502 268.92 219.095 274.123 215.65 278.878C212.961 282.61 209.989 286.445 205.448 288.648C199.015 291.754 191.148 290.857 184.008 289.847C171.619 288.101 160.35 283.56 147.468 283.733C145.83 283.75 144.156 283.762 142.467 283.755C133.192 283.695 123.408 282.837 116.384 277.807C109.36 272.777 107.207 263.281 113.506 257.402C117.98 253.234 125.101 252.032 131.723 251.32Z" fill="#E0674E"/>
<path id="intermediate-4-r" d="M134.812 251.613C136.083 251.739 137.39 251.521 138.536 250.993L138.291 251.112C138.531 251.004 138.78 250.908 139.034 250.825C139.375 250.786 139.715 250.747 140.056 250.708C140.986 250.595 141.881 250.305 142.67 249.863C147.808 250.948 153.12 251.498 158.484 251.496C171.644 253.838 190.703 251.111 199.359 258.973C207.781 266.621 198.374 283.829 186.92 288.821C186.355 288.964 185.815 289.172 185.315 289.438C184.414 289.736 183.48 289.954 182.531 290.091C180.373 290.314 178.202 290.341 176.058 290.171C165.938 289.685 155.813 289.196 145.684 288.703C138.362 288.358 129.98 287.49 126.257 282.443C123.075 278.138 124.618 272.485 126.258 267.455L130.803 253.403C131.084 252.462 131.456 251.537 131.914 250.638C132.755 251.161 133.751 251.497 134.812 251.613Z" fill="#E0674E"/>
<path id="distal-4-r" d="M143.742 249.402C150.295 250.661 159.88 249.78 166.682 249.671C168.91 249.588 171.134 249.649 173.333 249.852C175.11 250.09 176.861 250.423 178.575 250.85L193.759 254.297C199.909 255.693 205.655 256.894 207.236 261.966C207.639 263.575 207.751 265.234 207.569 266.891C207.578 270.04 207.058 273.196 206.023 276.269C204.788 279.222 202.628 281.887 199.767 283.986C196.905 286.085 193.446 287.543 189.749 288.207C178.325 290.136 166.649 288.58 155.698 285.945C153.289 285.356 150.917 284.663 148.444 284.273C145.757 283.837 141.65 283.172 137.873 282.791C137.18 282.329 136.353 282.016 135.463 281.881C134.525 281.169 133.31 280.746 132.01 280.678C131.446 280.097 130.732 279.626 129.916 279.298C129.88 279.305 129.844 279.31 129.807 279.31C128.561 276.782 127.994 274.04 128.144 271.266C128.294 268.492 129.158 265.748 130.678 263.215C131.906 261.242 133.55 259.362 133.98 257.209C134.41 255.055 133.671 252.704 135.203 250.918C136.962 248.742 140.767 248.828 143.742 249.402Z" fill="#E0674E"/>
</g>
<g id="middle-r">
<path id="proximal-3-r" d="M195.443 210.934C199.285 212.811 203.935 211.15 208.119 212.067C211.798 212.865 214.816 215.639 216.755 218.872C222.835 228.955 218.077 243.897 207.291 248.611C202.254 250.813 196.54 250.938 191.08 251.011L127.25 251.975C123.034 252.035 118.188 251.817 115.578 248.499C113.478 245.82 112.115 239.903 111.739 236.519C111.362 233.135 111.973 229.494 114.136 226.828C117.34 222.934 122.343 217.176 127.32 216.11C131.413 215.259 135.689 215.687 139.816 214.952C141.314 214.641 142.806 214.249 144.33 214.116C146.202 214.042 148.076 214.13 149.932 214.381C154.046 214.729 158.188 214.493 162.237 213.681C167.181 212.653 171.837 212.4 176.773 211.333C180.396 210.58 184.077 209.814 187.734 210.014C189.991 210.209 193.245 211.319 195.443 210.934Z" fill="#E0674E"/>
<path id="intermediate-3-r" d="M210.643 246.268C207.665 247.909 204.215 248.462 200.833 248.798C193.278 249.368 185.693 249.45 178.128 249.045L161.032 248.514C158.605 248.437 156.027 248.319 153.993 246.985C151.192 245.157 150.175 241.589 149.544 238.309C148.833 234.585 148.351 230.82 148.099 227.037C147.795 222.382 148.028 217.216 151.211 213.807C155.01 209.728 161.376 209.793 166.947 210.157C176.268 210.772 185.671 211.442 195.038 211.987C199.719 212.249 206.169 211.194 210.497 213.389C221.884 219.131 221.758 240.433 210.643 246.268Z" fill="#E0674E"/>
<path id="distal-3-r" d="M226.808 245.549C224.364 248.529 220.565 249.911 216.803 250.826C210.132 252.51 203.268 253.309 196.389 253.201C191.264 253.113 185.593 252.218 182.483 248.167C180.774 245.938 180.13 243.089 179.636 240.322C178.644 234.647 178.099 228.904 178.005 223.144C177.925 219.218 178.764 214.315 182.527 213.206C183.932 212.907 185.388 212.934 186.781 213.281L219.29 217.53C230.661 219.506 238.06 231.678 226.808 245.549Z" fill="#E0674E"/>
</g>
<g id="index-r">
<path id="proximal-2-r" d="M142.965 176.017L190.403 177.534C195.415 177.7 195.658 177.309 200.319 179.112C203.672 178.168 207.273 180.456 208.935 183.518C210.597 186.58 210.773 190.216 210.781 193.699C210.782 198.163 210.576 202.716 209.104 206.922C207.814 210.954 205.029 214.34 201.321 216.383C198.191 216.217 195.064 216.12 191.925 216.214C191.044 216.225 190.183 216.476 189.434 216.941C188.67 216.81 187.887 216.843 187.137 217.036C186.386 217.228 185.685 217.577 185.078 218.058C170.6 218.129 156.127 218.191 141.656 218.241C134.791 218.274 127.511 218.185 121.699 214.53C120.798 210.775 117.287 208.713 115.793 205.143C115.152 203.249 115.065 201.211 115.542 199.269C116.681 192.741 119.629 186.664 124.051 181.73C128.083 177.233 136.901 175.826 142.965 176.017Z" fill="#68B6CE"/>
<path id="intermediate-2-r" d="M203.821 178.372C216.971 179.271 230.121 180.168 243.272 181.06C248.291 181.406 253.83 181.981 257.251 185.678C260.903 189.616 260.799 195.626 260.357 200.969C259.915 206.313 258.736 212.699 253.887 215.178C250.89 216.708 247.308 216.28 243.914 216.025C236.499 215.468 229.042 215.972 221.768 217.521C213.911 217.517 206.072 216.54 198.204 216.276L198.129 216.179C197.505 214.897 197.223 213.474 197.312 212.05C197.144 202.751 197.559 193.45 198.555 184.202C198.807 181.899 199.48 179.158 201.713 178.472C202.405 178.318 203.117 178.285 203.821 178.372Z" fill="#68B6CE"/>
<path id="distal-2-r" d="M268.12 219.395C266.225 219.493 264.326 219.315 262.483 218.865C258.267 217.644 255.258 213.759 253.938 209.561C252.617 205.364 252.856 200.869 253.27 196.498C253.783 191.171 255.192 185.035 260.039 182.746C263.296 181.216 267.112 181.964 270.618 182.735L301.177 184.894C309.826 186.797 312.846 200.288 308.419 211.698C304.512 221.694 276.836 219.333 268.12 219.395Z" fill="#68B6CE"/>
</g>
</g>
</g>
</g>
</g>
</g>
</svg>
