<svg width="382" height="434" viewBox="0 0 382 434" fill="none" xmlns="http://www.w3.org/2000/svg">
<rect width="382" height="434" fill="#E5E5E5"/>
<g id="i 1">
<path id="Vector" d="M382 0H0V434H382V0Z" fill="#E5E5E5"/>
<g id="a 3">
<path id="Vector_2" d="M382 0H0V434H382V0Z" fill="#E5E5E5"/>
<g id="a 2">
<path id="Vector_2_2" d="M382 0H0V434H382V0Z" fill="white"/>
<g id="a 1">
<g id="hand-r">
<g id="palm-r">
<path id="metacarpal-lower-r" d="M74.94 300.71C71.41 297.04 64.75 300.48 63.39 305.46C62.03 310.44 64.12 315.63 66.17 320.35C77.13 345.59 88.0866 370.837 99.04 396.09C101.96 402.83 105.99 410.47 113.04 411.53C117.32 412.17 121.51 410.12 125.38 408.12C141.04 400.04 156.84 391.86 170.38 380.44C175.54 376.09 180.38 371.31 185.12 366.52C216.64 334.93 248.63 301.39 263.64 258.79C264.839 255.787 265.564 252.616 265.79 249.39C266.04 240.98 260.36 233.78 254.99 227.39C254.57 220.84 247.82 212.92 241.74 210.98C235.66 209.04 229.03 210.08 223.04 212.26C217.05 214.44 211.49 217.72 205.67 220.37C197.91 223.92 189.67 226.37 182.11 230.32C172.2 235.47 163.67 243.02 154.22 249.03C141.22 257.32 126.55 262.6 113.22 270.34C98.33 279.02 87.93 289.24 74.94 300.71Z" fill="#E5B0A5"/>
<path id="index-metacarpal-r" d="M191.06 250C202.42 249.1 217.83 248.2 227.14 240.51C235.7 233.45 241.7 231.39 245.4 219.98C248.88 209.23 250.58 196.63 243.4 187.11C237.61 179.47 227.86 176.54 218.66 176.02C208.663 175.48 198.676 177.246 189.47 181.18C186.07 182.63 182.68 184.45 180.35 187.45C178.706 189.78 177.481 192.379 176.73 195.13C172.6 208.179 171.636 222.025 173.92 235.52C174.74 240.39 176.29 245.64 180.24 248.26C183.36 250.37 187.35 250.29 191.06 250Z" fill="#E5B0A5"/>
<path id="metacarpal-upper-r" d="M169.97 180.55C166.601 180.987 163.307 181.882 160.18 183.21C152.01 187.13 145.01 192.09 136.56 195.72C127.157 199.751 118.088 204.523 109.44 209.99C103.07 214.013 96.9485 218.418 91.11 223.18C90.7718 224.112 90.1948 224.939 89.4366 225.577C88.6785 226.216 87.7658 226.645 86.79 226.82C79.0447 233.528 71.9069 240.906 65.46 248.87C62.3999 252.439 59.8243 256.397 57.8 260.64C52.08 273.64 56.26 288.47 61.14 301.81C61.75 303.47 62.48 305.27 64.14 306.18C65.62 307 67.49 306.88 69.22 306.68C84.58 304.81 98.42 297.55 111.81 290.43C141.72 274.54 177.88 261.52 196.41 233.43C208.44 215.14 199.03 175.39 169.97 180.55Z" fill="#E5B0A5"/>
<path id="carpal-r" d="M107.89 407.46C107.77 418.31 116.52 427.62 126.49 431.22C136.46 434.82 147.39 433.87 157.86 432.45C169.74 430.837 181.53 428.663 193.23 425.93C203.06 423.64 212.33 422.59 222.23 420.61C234.81 418.08 248.55 414.84 256.29 404.34C258.925 400.458 260.948 396.195 262.29 391.7C265.87 381.15 268.01 368.84 262.29 359.31C258.58 353.09 251.98 349.1 245.09 347.31C238.2 345.52 230.97 345.72 223.88 346.31C195.718 348.651 168.347 356.798 143.49 370.24C129.14 378.01 115.27 387.93 106.82 402.15C105.4 404.65 106.21 405.09 107.89 407.46Z" fill="#E5B0A5"/>
<path id="thumb-metacarpal-r" d="M188.309 406.271C190.245 413.04 195.932 418.066 202.065 420.191C208.199 422.317 214.721 421.955 220.947 420.862C239.058 417.605 255.7 408.702 268.674 395.331C273.608 390.294 274.8 380.549 276.624 373.33C283.692 345.546 289.518 317.368 294.099 288.796C295.115 282.467 296.069 275.931 294.726 269.561C293.383 263.19 289.159 256.998 283.372 255.663C279.465 254.749 274.424 250.141 270.483 250.317C267.917 250.439 263.514 249.83 260.945 249.702C257.819 249.55 254.689 249.669 251.59 250.061C245.922 251.058 240.604 251.14 236.421 255.348C232.239 259.557 229.558 265.239 226.939 270.807L207.852 311.569C199.356 329.641 190.842 347.768 184.547 366.977C183.164 371.216 181.871 375.606 181.989 380.165C182.201 383.708 182.899 387.211 184.063 390.565C185.85 396.382 186.629 400.412 188.309 406.271Z" fill="#E5B0A5"/>
</g>
<g id="pinkie-r">
<path id="proximal-5-r" d="M90.9287 252.675C91.825 246.645 92.3332 240.565 92.4506 234.47C92.4679 233.461 92.4764 232.379 92.4688 231.335C91.5206 231.357 90.5928 231.059 89.8345 230.489C89.0759 229.92 88.5307 229.112 88.2864 228.196C87.5294 225.553 87.102 222.827 87.0141 220.079C86.9553 219.938 86.9064 219.799 86.8591 219.649C85.7765 215.855 84.8269 212.051 83.879 208.237C83.326 207.657 82.9356 206.943 82.7476 206.165C81.8486 202.875 80.5328 199.661 79.5008 196.381C79.1955 196.069 78.8903 195.758 78.5621 195.463C75.547 192.69 71.7143 190.609 67.6259 190.471C65.3678 190.49 63.123 190.818 60.9531 191.444C57.2062 192.352 53.4784 193.331 49.77 194.379C48.4449 194.646 47.2019 195.225 46.1434 196.065C45.3164 196.93 44.7069 197.979 44.3654 199.126C42.6909 203.843 41.3655 207.693 43.6066 212.167C48.4997 221.987 51.8082 232.519 53.4093 243.373C54.2581 249.165 54.6464 255.118 56.827 260.554C59.0076 265.989 63.4479 270.961 69.2261 271.811C71.5918 272.063 73.9829 271.916 76.2999 271.376C78.3184 271.077 80.2801 270.475 82.1188 269.59C87.9622 266.492 89.953 259.254 90.9287 252.675Z" fill="#E0674E"/>
<path id="intermediate-5-r" d="M75.5349 187.627C75.2887 181.384 74.4848 175.177 73.1326 169.077C71.134 165.318 69.4697 161.39 68.1587 157.34C64.3277 154.155 62.5646 147.226 57.699 146.945C55.8945 146.833 54.1584 147.764 52.5076 148.668L40.0952 155.55C37.5021 156.974 34.662 158.744 33.7647 161.741C33.4258 163.146 33.3238 164.597 33.4625 166.036L34.0159 179.101C34.3276 186.439 34.9755 194.599 39.9367 199.349C40.5116 199.934 41.1819 200.416 41.9189 200.775C43.809 201.63 45.892 201.259 47.9105 200.849C54.0682 199.569 60.1482 197.942 66.1212 195.973C69.8046 194.762 73.7993 193.053 76.1834 189.936C75.7753 189.234 75.5521 188.439 75.5349 187.627Z" fill="#E0674E"/>
<path id="distal-5-r" d="M61.6659 130.441C60.7424 122.249 58.3822 114.283 54.6933 106.91C53.065 103.687 51.0983 100.492 48.1099 98.5126C42.7005 94.9372 35.0411 96.4536 30.1833 100.75C27.0764 103.659 24.79 107.335 23.5537 111.408C23.3152 117.692 23.5348 123.986 24.2109 130.24C25.4299 139.209 29.5968 147.458 30.7539 156.498C33.2369 159.345 36.5739 161.312 40.2669 162.107C43.9827 162.875 47.8224 162.406 51.5929 161.927C53.195 161.794 54.7744 161.461 56.2943 160.937C59.6055 159.647 62.9305 156.405 65.1183 153.571C62.1692 146.394 62.5523 138.245 61.6659 130.441Z" fill="#E0674E"/>
</g>
<g id="ring-r">
<path id="proximal-4-r" d="M131.998 226.526C131.882 220.732 129.912 214.986 126.166 209.517C125.673 208.72 124.96 207.964 124.048 207.271C123.753 207.236 123.468 207.182 123.2 207.109C122.592 206.925 122.141 206.631 121.935 206.286C121.179 206.084 120.334 205.986 119.482 206.002C116.466 206.027 113.801 206.952 111.387 207.874C109.492 208.594 107.557 209.383 106.626 210.49C105.316 212.058 106.314 213.851 107.328 215.474C109.085 218.289 112.318 220.771 113.043 223.751C113.138 224.129 113.238 224.516 113.349 224.906C113.974 227.047 115.072 229.284 118.306 230.772C121.539 232.261 126.936 232.506 129.79 230.895C131.814 229.751 132.026 228.074 131.998 226.526Z" fill="#E0674E"/>
<path id="intermediate-4-r" d="M136.5 214.5C133.937 209.442 134 197.012 128.356 194.452C127.399 194.471 126.446 194.565 125.504 194.735L111.346 197.012C106.274 197.818 100.664 198.952 97.7019 203.136C94.2266 208.037 95.9567 214.781 97.8442 220.504C100.442 228.427 103.041 236.345 105.641 244.258C106.131 245.962 106.808 247.606 107.66 249.16C108.07 249.828 108.549 250.45 109.091 251.015C109.484 251.288 109.836 251.615 110.136 251.987C118.124 258.678 136.617 258.817 141.046 249.272C145.601 239.461 138.325 225.488 136.5 214.5Z" fill="#E0674E"/>
<path id="distal-4-r" d="M142.812 253.849C143.636 259.359 147.321 266.305 149.464 271.447C150.21 273.11 150.823 274.83 151.299 276.591C151.617 278.042 151.84 279.513 151.967 280.994L153.395 293.978C153.973 299.236 154.607 304.107 150.465 307.386C149.122 308.35 147.646 309.113 146.083 309.651C143.218 310.945 140.189 311.838 137.081 312.305C134.021 312.571 130.946 312.013 128.175 310.689C125.403 309.366 123.036 307.324 121.32 304.778C116.13 296.857 114.035 287.32 113.141 277.895C112.953 275.818 112.871 273.727 112.482 271.682C112.071 269.456 111.442 266.054 110.652 263.018C110.865 262.301 110.901 261.543 110.757 260.809C111.122 259.803 111.142 258.704 110.814 257.685C111.173 257.018 111.387 256.282 111.44 255.525C111.423 255.501 111.408 255.475 111.396 255.447C113.323 253.464 115.648 251.912 118.219 250.893C120.79 249.873 123.547 249.411 126.31 249.535C128.475 249.664 130.681 250.149 132.77 249.597C134.86 249.045 136.778 247.521 138.865 247.959C141.374 248.411 142.44 251.347 142.812 253.849Z" fill="#E0674E"/>
</g>
<g id="middle-r">
<path id="proximal-3-r" d="M174.842 194.015C173.009 193.513 173.485 192.785 172.26 192.204C171.19 191.692 168.86 191.337 166.369 191.152C158.595 190.572 149.036 191.717 147.343 193.431C146.552 194.231 147.28 195.067 148.008 195.864L156.439 205.188C156.999 205.804 157.839 206.503 160.484 206.782C162.618 207.007 166.865 207.026 169.237 206.979C171.61 206.931 174.017 206.732 175.535 206.336C177.746 205.752 180.979 204.849 181 204.092C181 203.47 180.097 202.86 180.013 202.237C180.013 202.01 180.069 201.781 179.943 201.555C179.728 201.28 179.4 201.01 178.964 200.747C178.139 200.158 177.71 199.548 177.69 198.934C177.69 198.183 177.2 197.497 177.228 196.746C177.228 196.196 177.228 195.637 176.571 195.11C176.116 194.787 174.891 194.347 174.842 194.015Z" fill="#E0674E"/>
<path id="intermediate-3-r" d="M156.426 247.843C154.188 245.283 152.911 242.031 151.861 238.798C149.692 231.538 147.994 224.146 146.775 216.668L143.646 199.853C143.204 197.465 142.769 194.922 143.638 192.65C144.827 189.524 148.095 187.768 151.165 186.452C154.653 184.964 158.227 183.689 161.869 182.635C166.353 181.345 171.449 180.471 175.459 182.853C180.255 185.694 181.549 191.928 182.382 197.448C183.77 206.685 185.122 216.015 186.588 225.282C187.331 229.912 189.738 235.989 188.516 240.685C185.336 253.035 164.498 257.457 156.426 247.843Z" fill="#E0674E"/>
<path id="distal-3-r" d="M168.228 296.904C164.795 295.152 162.634 291.736 160.937 288.256C157.868 282.098 155.624 275.563 154.261 268.819C153.254 263.792 152.918 258.061 156.213 254.159C158.026 252.013 160.671 250.777 163.27 249.704C168.602 247.523 174.097 245.765 179.704 244.445C183.522 243.529 188.492 243.303 190.378 246.742C190.97 248.052 194.043 263.564 194 265V281C194.494 292.53 184.18 304.938 168.228 296.904Z" fill="#E0674E"/>
</g>
<g id="index-r">
<path id="proximal-2-r" d="M235.94 200.088L233.763 188.733C233.529 187.533 233.763 187.471 232.533 186.371C233.025 185.558 231.524 184.718 229.599 184.351C227.673 183.985 225.435 183.979 223.295 184.013C220.551 184.059 217.758 184.155 215.212 184.551C212.768 184.901 210.761 185.603 209.603 186.513C209.787 187.261 209.929 188.01 209.954 188.763C209.97 188.975 209.838 189.184 209.572 189.368C209.672 189.55 209.673 189.738 209.574 189.919C209.476 190.102 209.28 190.274 209 190.424C209.336 193.895 209.679 197.364 210.027 200.834C210.187 202.48 210.433 204.224 212.832 205.579C215.163 205.757 216.523 206.577 218.755 206.899C219.936 207.034 221.19 207.034 222.372 206.899C226.354 206.56 230.01 205.791 232.926 204.68C235.583 203.667 236.217 201.539 235.94 200.088Z" fill="#68B6CE"/>
<path id="intermediate-2-r" d="M241.87 203.5C240.41 216.6 238.963 212.186 237.51 225.286C236.95 230.286 236.14 235.796 232.3 239.056C228.21 242.536 222.21 242.176 216.89 241.506C211.57 240.836 205.24 239.386 202.97 234.436C201.57 231.376 202.15 227.816 202.55 224.436C203.423 217.05 203.238 209.579 202 202.246C202.34 194.396 203.65 186.606 204.25 178.756L204.35 178.686C205.658 178.116 207.081 175.85 208.5 176C217.798 176.229 225 174 236.28 180.476C238.57 180.826 241.28 181.616 241.87 183.876C241.994 184.573 241.987 202.801 241.87 203.5Z" fill="#68B6CE"/>
<path id="distal-2-r" d="M200.873 246.463C200.856 244.565 201.115 242.676 201.643 240.853C203.043 236.693 207.053 233.853 211.303 232.713C215.553 231.573 220.033 232.003 224.383 232.603C229.683 233.343 235.753 235.013 237.833 239.953C239.223 243.273 234.92 266.03 234 269.5L231 281C228.73 289.56 218.053 291.963 206.843 287.053C197.023 282.723 200.563 255.173 200.873 246.463Z" fill="#68B6CE"/>
</g>
<g id="thumb-r" filter="url(#filter0_d_0_1)">
<path id="proximal-1-r" d="M201.042 245.796C197.477 250.12 194.402 255.916 195.85 261.482C197.632 268.383 204.997 271.043 211.058 273.77C223.112 279.19 233.299 288.535 244.898 295.007C256.497 301.478 271.032 304.77 282.373 297.579C284.205 298.047 285.804 294.53 286.859 292.763C289.906 287.887 292.728 282.64 294.189 276.926C295.65 271.213 295.695 264.879 293.214 259.6C292.655 258.321 291.871 257.152 290.897 256.15C289.371 254.844 287.599 253.857 285.684 253.249L278.683 250.503C263.911 244.739 250.151 241.119 236.932 231.987C233.284 229.472 229.565 226.744 225.277 226.134C218.661 225.186 212.427 229.448 206.861 233.519C203.484 235.999 199.863 238.82 198.763 243.088C197.746 247.049 199.153 251.451 197.791 255.288" fill="#68B6CE"/>
<path id="distal-1-r" d="M142.169 259.093C143.267 265.48 148.922 270.243 155.107 272.194C161.291 274.145 167.868 273.816 174.285 273.462L176.71 273.333C177.109 272.937 177.587 272.632 178.115 272.439C178.641 272.246 179.204 272.17 179.763 272.215C180.976 272.289 182.182 272.391 183.366 272.499C198.51 273.491 215.17 268.262 228.616 261.454C230.765 259.655 232.407 257.416 232.202 254.728C232.028 253.445 231.606 252.207 230.959 251.085C223.668 236.671 205.831 228.5 190.151 232.398C174.983 236.154 163.45 249.367 148.216 252.769C145.94 253.29 143.252 253.823 142.31 255.95C141.952 256.96 141.903 258.055 142.169 259.093Z" fill="#68B6CE"/>
</g>
<path id="movement" d="M25 201L23.017 200.74L23 200.869V201H25ZM25 269H23V269.333L23.1081 269.649L25 269ZM49 339L47.1081 339.649L47.2625 340.099L47.6034 340.432L49 339ZM90 379L88.6034 380.432L88.9168 380.737L89.3294 380.884L90 379ZM149 400L148.329 401.884L148.655 402H149V400ZM231.414 401.414C232.195 400.633 232.195 399.367 231.414 398.586L218.686 385.858C217.905 385.077 216.639 385.077 215.858 385.858C215.077 386.639 215.077 387.905 215.858 388.686L227.172 400L215.858 411.314C215.077 412.095 215.077 413.361 215.858 414.142C216.639 414.923 217.905 414.923 218.686 414.142L231.414 401.414ZM36.017 101.74L35.367 106.69L39.333 107.21L39.983 102.26L36.017 101.74ZM34.067 116.59L32.767 126.49L36.733 127.01L38.033 117.11L34.067 116.59ZM31.467 136.39L30.167 146.29L34.133 146.81L35.433 136.91L31.467 136.39ZM28.867 156.19L27.567 166.09L31.533 166.61L32.833 156.71L28.867 156.19ZM26.267 175.99L24.967 185.89L28.933 186.41L30.233 176.51L26.267 175.99ZM23.667 195.79L23.017 200.74L26.983 201.26L27.633 196.31L23.667 195.79ZM23 201V206.667H27V201H23ZM23 218V229.333H27V218H23ZM23 240.667V252H27V240.667H23ZM23 263.333V269H27V263.333H23ZM23.1081 269.649L24.6081 274.024L28.3919 272.726L26.8919 268.351L23.1081 269.649ZM27.6081 282.774L30.6081 291.524L34.3919 290.226L31.3919 281.476L27.6081 282.774ZM33.6081 300.274L36.6081 309.024L40.3919 307.726L37.3919 298.976L33.6081 300.274ZM39.6081 317.774L42.6081 326.524L46.3919 325.226L43.3919 316.476L39.6081 317.774ZM45.6081 335.274L47.1081 339.649L50.8919 338.351L49.3919 333.976L45.6081 335.274ZM47.6034 340.432L51.02 343.765L53.8133 340.902L50.3966 337.568L47.6034 340.432ZM57.8534 350.432L64.6867 357.098L67.48 354.235L60.6466 347.568L57.8534 350.432ZM71.52 363.765L78.3534 370.432L81.1466 367.568L74.3133 360.902L71.52 363.765ZM85.1867 377.098L88.6034 380.432L91.3966 377.568L87.98 374.235L85.1867 377.098ZM89.3294 380.884L94.246 382.634L95.5873 378.866L90.6706 377.116L89.3294 380.884ZM104.079 386.134L113.913 389.634L115.254 385.866L105.421 382.366L104.079 386.134ZM123.746 393.134L133.579 396.634L134.921 392.866L125.087 389.366L123.746 393.134ZM143.413 400.134L148.329 401.884L149.671 398.116L144.754 396.366L143.413 400.134ZM149 402H154.062V398H149V402ZM164.188 402H174.312V398H164.188V402ZM184.438 402H194.562V398H184.438V402ZM204.688 402H214.812V398H204.688V402ZM224.938 402H230V398H224.938V402Z" fill="black"/>
</g>
</g>
</g>
</g>
</g>
<defs>
<filter id="filter0_d_0_1" x="138" y="226" width="161.2" height="83.6436" filterUnits="userSpaceOnUse" color-interpolation-filters="sRGB">
<feFlood flood-opacity="0" result="BackgroundImageFix"/>
<feColorMatrix in="SourceAlpha" type="matrix" values="0 0 0 0 0 0 0 0 0 0 0 0 0 0 0 0 0 0 127 0" result="hardAlpha"/>
<feOffset dy="4"/>
<feGaussianBlur stdDeviation="2"/>
<feColorMatrix type="matrix" values="0 0 0 0 0 0 0 0 0 0 0 0 0 0 0 0 0 0 0.25 0"/>
<feBlend mode="normal" in2="BackgroundImageFix" result="effect1_dropShadow_0_1"/>
<feBlend mode="normal" in="SourceGraphic" in2="effect1_dropShadow_0_1" result="shape"/>
</filter>
</defs>
</svg>
