<svg width="382" height="438" viewBox="0 0 382 438" fill="none" xmlns="http://www.w3.org/2000/svg">
<rect width="382" height="438" fill="white"/>
<g id="v 1">
<path id="Vector" d="M382 0H0V438H382V0Z" fill="white"/>
<g id="w 2">
<g id="w 1">
<g id="hand-colored-r 1">
<g id="hand-r">
<g id="palm-r">
<path id="metacarpal-lower-r" d="M74.94 304.71C71.41 301.04 64.75 304.48 63.39 309.46C62.03 314.44 64.12 319.63 66.17 324.35C77.13 349.59 88.0866 374.837 99.04 400.09C101.96 406.83 105.99 414.47 113.04 415.53C117.32 416.17 121.51 414.12 125.38 412.12C141.04 404.04 156.84 395.86 170.38 384.44C175.54 380.09 180.38 375.31 185.12 370.52C216.64 338.93 248.63 305.39 263.64 262.79C264.839 259.787 265.564 256.616 265.79 253.39C266.04 244.98 260.36 237.78 254.99 231.39C254.57 224.84 247.82 216.92 241.74 214.98C235.66 213.04 229.03 214.08 223.04 216.26C217.05 218.44 211.49 221.72 205.67 224.37C197.91 227.92 189.67 230.37 182.11 234.32C172.2 239.47 163.67 247.02 154.22 253.03C141.22 261.32 126.55 266.6 113.22 274.34C98.33 283.02 87.93 293.24 74.94 304.71Z" fill="#E5B0A5"/>
<path id="index-metacarpal-r" d="M191.06 254C202.42 253.1 217.83 252.2 227.14 244.51C235.7 237.45 241.7 235.39 245.4 223.98C248.88 213.23 250.58 200.63 243.4 191.11C237.61 183.47 227.86 180.54 218.66 180.02C208.663 179.48 198.676 181.246 189.47 185.18C186.07 186.63 182.68 188.45 180.35 191.45C178.706 193.78 177.481 196.379 176.73 199.13C172.6 212.179 171.636 226.025 173.92 239.52C174.74 244.39 176.29 249.64 180.24 252.26C183.36 254.37 187.35 254.29 191.06 254Z" fill="#E5B0A5"/>
<path id="metacarpal-upper-r" d="M169.97 184.55C166.601 184.987 163.307 185.882 160.18 187.21C152.01 191.13 145.01 196.09 136.56 199.72C127.157 203.751 118.088 208.523 109.44 213.99C103.07 218.013 96.9485 222.418 91.11 227.18C90.7718 228.112 90.1948 228.939 89.4366 229.577C88.6785 230.216 87.7658 230.645 86.79 230.82C79.0447 237.528 71.9069 244.906 65.46 252.87C62.3999 256.439 59.8243 260.397 57.8 264.64C52.08 277.64 56.26 292.47 61.14 305.81C61.75 307.47 62.48 309.27 64.14 310.18C65.62 311 67.49 310.88 69.22 310.68C84.58 308.81 98.42 301.55 111.81 294.43C141.72 278.54 177.88 265.52 196.41 237.43C208.44 219.14 199.03 179.39 169.97 184.55Z" fill="#E5B0A5"/>
<path id="carpal-r" d="M107.89 411.46C107.77 422.31 116.52 431.62 126.49 435.22C136.46 438.82 147.39 437.87 157.86 436.45C169.74 434.837 181.53 432.663 193.23 429.93C203.06 427.64 212.33 426.59 222.23 424.61C234.81 422.08 248.55 418.84 256.29 408.34C258.925 404.458 260.948 400.195 262.29 395.7C265.87 385.15 268.01 372.84 262.29 363.31C258.58 357.09 251.98 353.1 245.09 351.31C238.2 349.52 230.97 349.72 223.88 350.31C195.718 352.651 168.347 360.798 143.49 374.24C129.14 382.01 115.27 391.93 106.82 406.15C105.4 408.65 106.21 409.09 107.89 411.46Z" fill="#E5B0A5"/>
<path id="thumb-metacarpal-r" d="M198.601 412.517C202.455 417.109 209.494 418.533 216.136 417.393C222.778 416.253 229.084 412.912 234.889 409.116C251.751 398.01 265.542 383.005 274.439 366.087C277.837 359.692 276.199 351.222 275.91 344.509C274.848 318.646 272.449 293.044 268.715 267.704C267.889 262.09 266.941 256.337 263.785 251.792C260.629 247.247 254.691 244.192 248.618 245.812C244.514 246.896 238.23 245.509 234.408 247.494C231.921 248.791 227.417 250.354 224.855 251.45C221.739 252.787 218.697 254.346 215.764 256.112C210.48 259.57 205.276 262.121 202.378 267.492C199.481 272.864 198.483 278.73 197.515 284.475L190.507 326.49C187.366 345.134 184.223 363.83 183.574 382.369C183.437 386.457 183.431 390.626 184.862 394.272C186.092 397.051 187.788 399.568 189.9 401.748C193.333 405.636 195.261 408.545 198.601 412.517Z" fill="#E5B0A5"/>
</g>
<g id="pinkie-r">
<path id="proximal-5-r" d="M78.559 237.464C78.7024 237.555 78.7868 237.765 78.8118 238.093C78.8156 238.148 78.8181 238.21 78.8182 238.275C78.6739 238.558 78.533 238.854 78.4182 239.116C78.3034 239.378 78.2214 239.589 78.1853 239.717C78.0732 240.102 78.0113 240.393 78.0011 240.583C77.9923 240.61 77.985 240.632 77.978 240.656C77.8177 241.207 77.6776 241.719 77.5377 242.231C77.4542 242.431 77.3957 242.591 77.3679 242.694C77.235 243.16 77.0384 243.747 76.8852 244.252C76.8391 244.363 76.793 244.473 76.7434 244.589C76.2877 245.659 75.7068 246.934 75.0848 248.17C74.7411 248.846 74.399 249.501 74.0681 250.115C73.4967 251.185 72.9282 252.246 72.3626 253.297C72.1606 253.679 71.9708 254.017 71.8087 254.285C71.6818 254.482 71.5878 254.602 71.5345 254.636C71.2742 254.857 71.068 255.026 71.4039 254.086C72.1371 252.032 72.6284 250.41 72.8595 249.282C72.9819 248.682 73.0341 248.21 73.3597 247.231C73.6852 246.253 74.3552 244.623 75.2336 242.838C75.5934 242.113 75.9575 241.404 76.3108 240.74C76.6183 240.152 76.9176 239.599 77.1984 239.1C78.0914 237.531 78.4028 237.365 78.559 237.464Z" fill="#E0674E"/>
<path id="intermediate-5-r" d="M88.3928 230.016C93.3582 233.807 97.9744 238.035 102.187 242.649C104.113 246.445 106.369 250.066 108.929 253.467C109.331 258.433 113.986 263.86 111.417 268.002C110.472 269.543 108.711 270.428 107.022 271.258L94.2542 277.455C91.5981 278.758 88.5172 280.064 85.5494 279.074C84.2048 278.543 82.9592 277.793 81.8617 276.852L71.4911 268.885C65.6672 264.41 59.3639 259.188 58.331 252.397C58.1833 251.591 58.1743 250.765 58.3044 249.956C58.6922 247.918 60.193 246.427 61.69 245.012C66.2777 240.71 71.1056 236.672 76.1509 232.917C79.2603 230.6 82.9557 228.315 86.8767 228.157C87.2164 228.895 87.738 229.534 88.3928 230.016Z" fill="#E0674E"/>
<path id="distal-5-r" d="M127.2 274.248C133.372 279.715 138.532 286.227 142.442 293.485C144.142 296.67 145.625 300.116 145.526 303.699C145.34 310.181 139.695 315.575 133.386 317.079C129.22 317.947 124.898 317.704 120.854 316.373C115.576 312.954 110.553 309.155 105.826 305.006C99.1895 298.851 94.8373 290.698 88.1069 284.552C87.2055 280.884 87.5151 277.022 88.9889 273.544C90.4978 270.063 93.0888 267.191 95.649 264.382C96.6794 263.148 97.8603 262.047 99.1629 261.105C102.123 259.138 106.687 258.282 110.264 258.122C114.439 264.662 121.327 269.035 127.2 274.248Z" fill="#E0674E"/>
</g>
<g id="ring-r">
<path id="proximal-4-r" d="M123.727 200.905C139.739 213.478 153.588 228.583 164.729 245.621C166.407 248.028 167.733 250.663 168.668 253.443C168.442 253.937 168.282 254.46 168.194 254.995C168.041 256.254 168.364 257.525 169.101 258.557C168.837 260.063 168.186 261.474 167.212 262.654C163.843 266.888 158.354 268.697 153.146 270.155C149.067 271.308 144.757 272.371 140.654 271.324C134.854 269.829 130.95 264.57 127.541 259.653C121.62 251.128 118.242 241.215 110.733 233.803C109.783 232.858 108.814 231.886 107.85 230.893C102.571 225.422 97.5407 219.069 96.9286 211.283C96.3178 203.497 101.536 195.299 109.143 194.69C114.543 194.262 119.444 197.55 123.727 200.905Z" fill="#E0674E"/>
<path id="intermediate-4-r" d="M120.791 199.641C121.435 200.477 122.332 201.083 123.348 201.368L123.127 201.311C123.338 201.373 123.545 201.448 123.748 201.537C123.97 201.707 124.192 201.878 124.414 202.048C125.024 202.51 125.735 202.823 126.487 202.961C128.698 206.761 131.372 210.271 134.449 213.409C140.408 222.821 153.193 231.981 152.817 242.792C152.451 253.308 135.361 260.377 125.399 257.322C124.978 257.096 124.527 256.932 124.059 256.834C123.34 256.524 122.656 256.137 122.019 255.682C120.629 254.582 119.366 253.331 118.251 251.953C112.775 245.675 107.3 239.392 101.824 233.105C97.8578 228.568 93.6396 223.029 94.9334 217.162C96.0332 212.155 100.761 208.927 105.119 206.211L117.274 198.603C118.075 198.08 118.917 197.622 119.791 197.233C119.917 198.107 120.261 198.935 120.791 199.641Z" fill="#E0674E"/>
<path id="distal-4-r" d="M155.81 246.002C158.714 250.757 164.811 255.722 168.787 259.623C170.121 260.866 171.356 262.212 172.479 263.648C173.337 264.861 174.115 266.129 174.808 267.444L181.177 278.848C183.756 283.467 186.236 287.707 183.696 292.339C182.834 293.75 181.771 295.028 180.541 296.132C178.406 298.439 175.963 300.44 173.282 302.08C170.566 303.515 167.517 304.198 164.449 304.058C161.381 303.917 158.406 302.958 155.834 301.28C147.97 296.004 142.329 288.034 137.838 279.7C136.855 277.86 135.966 275.965 134.813 274.234C133.567 272.343 131.663 269.454 129.755 266.965C129.672 266.221 129.41 265.509 128.992 264.89C128.937 263.821 128.527 262.8 127.828 261.989C127.899 261.235 127.809 260.473 127.565 259.756C127.539 259.74 127.515 259.722 127.493 259.701C128.496 257.124 130.034 254.789 132.006 252.85C133.977 250.911 136.337 249.411 138.93 248.451C140.974 247.727 143.196 247.316 144.906 245.994C146.616 244.672 147.789 242.522 149.883 242.113C152.37 241.553 154.494 243.842 155.81 246.002Z" fill="#E0674E"/>
</g>
<g id="middle-r">
<path id="proximal-3-r" d="M171.88 123.98C169.26 120.6 169.94 115.71 168.19 111.8C166.66 108.36 163.33 105.97 159.77 104.73C148.66 100.83 135 108.53 132.58 120.05C131.45 125.43 132.49 131.05 133.53 136.41L145.58 199.1C146.38 203.24 147.58 207.94 151.36 209.82C154.41 211.33 160.48 211.46 163.87 211.14C167.26 210.82 170.7 209.48 172.87 206.82C176.03 202.89 180.65 196.82 180.68 191.73C180.68 187.55 179.39 183.45 179.27 179.26C179.27 177.73 179.35 176.19 179.17 174.67C178.861 172.823 178.393 171.006 177.77 169.24C176.592 165.283 175.979 161.179 175.95 157.05C175.95 152 175.25 147.39 175.29 142.34C175.29 138.64 175.29 134.88 174.35 131.34C173.7 129.17 171.95 126.21 171.88 123.98Z" fill="#E0674E"/>
<path id="intermediate-3-r" d="M121.57 59.06C120.57 62.31 120.73 65.8 121.09 69.18C122.07 76.693 123.533 84.1351 125.47 91.46L129.47 108.09C130.04 110.45 130.68 112.95 132.4 114.67C134.76 117.04 138.46 117.31 141.8 117.26C145.591 117.197 149.375 116.903 153.13 116.38C157.75 115.73 162.76 114.45 165.45 110.64C168.67 106.09 167.31 99.87 165.82 94.49C163.32 85.49 160.75 76.42 158.31 67.36C157.1 62.83 156.82 56.3 153.79 52.51C145.85 42.53 125.02 46.99 121.57 59.06Z" fill="#E0674E"/>
<path id="distal-3-r" d="M112.34 9.45001C109.92 12.45 109.34 16.45 109.21 20.32C108.919 27.1941 109.534 34.0766 111.04 40.79C112.17 45.79 114.2 51.16 118.8 53.38C121.33 54.6 124.25 54.65 127.06 54.57C132.818 54.3867 138.552 53.7514 144.21 52.67C148.07 51.95 152.7 50.13 153.02 46.22C153.026 44.7832 152.704 43.364 152.08 42.07L147 9.45001C142.75 -1.27999 123.63 -4.38999 112.34 9.45001Z" fill="#E0674E"/>
</g>
<g id="index-r">
<path id="proximal-2-r" d="M238.284 186.748L250.56 140.9C251.851 136.055 252.295 135.935 251.919 130.952C253.792 128.015 252.644 123.906 250.194 121.429C247.744 118.952 244.315 117.732 240.984 116.716C236.711 115.424 232.293 114.303 227.84 114.495C223.608 114.563 219.561 116.249 216.532 119.207C215.786 122.251 214.973 125.273 213.975 128.25C213.71 129.09 213.22 129.842 212.558 130.424C212.462 131.194 212.204 131.933 211.802 132.595C211.401 133.258 210.865 133.829 210.228 134.271C205.971 148.108 201.724 161.945 197.487 175.782C195.469 182.343 193.448 189.338 195.265 195.959C198.599 197.908 199.556 201.865 202.541 204.328C204.169 205.49 206.094 206.163 208.092 206.268C214.669 207.068 221.34 206.004 227.343 203.199C232.813 200.641 236.712 192.607 238.284 186.748Z" fill="#68B6CE"/>
<path id="intermediate-2-r" d="M253.64 127.814C256.585 114.966 259.532 102.119 262.483 89.2731C263.604 84.3684 264.658 78.8997 262.109 74.5552C259.396 69.9206 253.613 68.2806 248.37 67.1576C243.127 66.0346 236.673 65.3147 232.897 69.2384C230.566 71.6651 229.938 75.2171 229.201 78.5397C227.588 85.7994 224.948 92.7917 221.359 99.3054C219.09 106.828 217.756 114.614 215.732 122.222L215.804 122.321C216.851 123.29 218.13 123.971 219.519 124.298C228.372 127.15 237.395 129.445 246.536 131.168C248.813 131.593 251.632 131.741 252.935 129.802C253.282 129.184 253.52 128.512 253.64 127.814Z" fill="#68B6CE"/>
<path id="distal-2-r" d="M232.98 54.3943C232.337 56.1799 231.958 58.0494 231.855 59.9442C231.804 64.3332 234.653 68.3373 238.288 70.8158C241.924 73.2943 246.295 74.3667 250.599 75.2357C255.847 76.286 262.128 76.7124 265.721 72.7355C268.129 70.0601 268.517 66.1915 268.794 62.6123L274 34.5C274.681 25.6704 264.211 17.1116 252.009 18.0477C241.31 18.8948 235.561 46.0699 232.98 54.3943Z" fill="#68B6CE"/>
</g>
<g id="thumb-r" filter="url(#filter0_d_0_1)">
<path id="proximal-1-r" d="M195.326 199.128C189.924 200.622 184.078 203.601 182.067 208.989C179.564 215.662 184.065 222.069 187.462 227.783C194.218 239.141 197.192 252.642 202.971 264.601C208.75 276.559 218.759 287.601 232.173 288.226C233.405 289.661 236.734 287.7 238.612 286.86C243.907 284.617 249.23 281.943 253.707 278.103C258.184 274.265 261.858 269.105 262.859 263.359C263.136 261.991 263.165 260.583 262.943 259.204C262.443 257.258 261.558 255.432 260.341 253.835L256.185 247.567C247.402 234.366 238.215 223.5 232.637 208.433C231.095 204.279 229.617 199.911 226.457 196.949C221.585 192.373 214.033 192.283 207.139 192.419C202.95 192.511 198.366 192.74 195.015 195.603C191.908 198.262 190.532 202.674 187.213 205.032" fill="#68B6CE"/>
<path id="distal-1-r" d="M187.795 136.242C181.435 137.486 176.803 143.249 174.995 149.477C173.186 155.705 173.666 162.271 174.167 168.679L174.353 171.101C174.757 171.489 175.073 171.961 175.277 172.484C175.482 173.006 175.572 173.567 175.54 174.128C175.494 175.341 175.42 176.55 175.338 177.736C174.696 192.897 180.304 209.435 187.42 222.72C189.268 224.827 191.543 226.417 194.226 226.15C195.505 225.947 196.732 225.496 197.84 224.825C212.081 217.204 219.842 199.184 215.584 183.597C211.482 168.519 198.008 157.293 194.256 142.142C193.683 139.878 193.089 137.203 190.941 136.311C189.923 135.976 188.828 135.951 187.795 136.242Z" fill="#68B6CE"/>
</g>
</g>
</g>
</g>
</g>
</g>
<defs>
<filter id="filter0_d_0_1" x="173.71" y="134.041" width="97.3802" height="160.696" filterUnits="userSpaceOnUse" color-interpolation-filters="sRGB">
<feFlood flood-opacity="0" result="BackgroundImageFix"/>
<feColorMatrix in="SourceAlpha" type="matrix" values="0 0 0 0 0 0 0 0 0 0 0 0 0 0 0 0 0 0 127 0" result="hardAlpha"/>
<feOffset dx="4" dy="2"/>
<feGaussianBlur stdDeviation="2"/>
<feComposite in2="hardAlpha" operator="out"/>
<feColorMatrix type="matrix" values="0 0 0 0 0 0 0 0 0 0 0 0 0 0 0 0 0 0 0.25 0"/>
<feBlend mode="normal" in2="BackgroundImageFix" result="effect1_dropShadow_0_1"/>
<feBlend mode="normal" in="SourceGraphic" in2="effect1_dropShadow_0_1" result="shape"/>
</filter>
</defs>
</svg>
