<svg width="382" height="434" viewBox="0 0 382 434" fill="none" xmlns="http://www.w3.org/2000/svg">
<rect width="382" height="434" fill="white"/>
<g id="e 3">
<g id="e 2">
<g id="e 1">
<g id="hand-colored-r 1">
<g id="hand-r">
<g id="palm-r">
<path id="metacarpal-lower-r" d="M74.94 300.71C71.41 297.04 64.75 300.48 63.39 305.46C62.03 310.44 64.12 315.63 66.17 320.35C77.13 345.59 88.0866 370.837 99.04 396.09C101.96 402.83 105.99 410.47 113.04 411.53C117.32 412.17 121.51 410.12 125.38 408.12C141.04 400.04 156.84 391.86 170.38 380.44C175.54 376.09 180.38 371.31 185.12 366.52C216.64 334.93 248.63 301.39 263.64 258.79C264.839 255.787 265.564 252.616 265.79 249.39C266.04 240.98 260.36 233.78 254.99 227.39C254.57 220.84 247.82 212.92 241.74 210.98C235.66 209.04 229.03 210.08 223.04 212.26C217.05 214.44 211.49 217.72 205.67 220.37C197.91 223.92 189.67 226.37 182.11 230.32C172.2 235.47 163.67 243.02 154.22 249.03C141.22 257.32 126.55 262.6 113.22 270.34C98.33 279.02 87.93 289.24 74.94 300.71Z" fill="#E5B0A5"/>
<path id="index-metacarpal-r" d="M191.06 250C202.42 249.1 217.83 248.2 227.14 240.51C235.7 233.45 241.7 231.39 245.4 219.98C248.88 209.23 250.58 196.63 243.4 187.11C237.61 179.47 227.86 176.54 218.66 176.02C208.663 175.48 198.676 177.246 189.47 181.18C186.07 182.63 182.68 184.45 180.35 187.45C178.706 189.78 177.481 192.379 176.73 195.13C172.6 208.179 171.636 222.025 173.92 235.52C174.74 240.39 176.29 245.64 180.24 248.26C183.36 250.37 187.35 250.29 191.06 250Z" fill="#E5B0A5"/>
<path id="metacarpal-upper-r" d="M169.97 180.55C166.601 180.987 163.307 181.882 160.18 183.21C152.01 187.13 145.01 192.09 136.56 195.72C127.157 199.751 118.088 204.523 109.44 209.99C103.07 214.013 96.9485 218.418 91.11 223.18C90.7718 224.112 90.1948 224.939 89.4366 225.577C88.6785 226.216 87.7658 226.645 86.79 226.82C79.0447 233.528 71.9069 240.906 65.46 248.87C62.3999 252.439 59.8243 256.397 57.8 260.64C52.08 273.64 56.26 288.47 61.14 301.81C61.75 303.47 62.48 305.27 64.14 306.18C65.62 307 67.49 306.88 69.22 306.68C84.58 304.81 98.42 297.55 111.81 290.43C141.72 274.54 177.88 261.52 196.41 233.43C208.44 215.14 199.03 175.39 169.97 180.55Z" fill="#E5B0A5"/>
<path id="carpal-r" d="M107.89 407.46C107.77 418.31 116.52 427.62 126.49 431.22C136.46 434.82 147.39 433.87 157.86 432.45C169.74 430.837 181.53 428.663 193.23 425.93C203.06 423.64 212.33 422.59 222.23 420.61C234.81 418.08 248.55 414.84 256.29 404.34C258.925 400.458 260.948 396.195 262.29 391.7C265.87 381.15 268.01 368.84 262.29 359.31C258.58 353.09 251.98 349.1 245.09 347.31C238.2 345.52 230.97 345.72 223.88 346.31C195.718 348.651 168.347 356.798 143.49 370.24C129.14 378.01 115.27 387.93 106.82 402.15C105.4 404.65 106.21 405.09 107.89 407.46Z" fill="#E5B0A5"/>
<path id="thumb-metacarpal-r" d="M198.601 408.517C202.455 413.109 209.494 414.533 216.136 413.393C222.778 412.253 229.084 408.912 234.889 405.116C251.751 394.01 265.542 379.005 274.439 362.087C277.837 355.692 276.199 347.222 275.91 340.509C274.848 314.646 272.449 289.044 268.715 263.704C267.889 258.09 266.941 252.337 263.785 247.792C260.629 243.247 254.691 240.192 248.618 241.812C244.514 242.896 238.23 241.509 234.408 243.494C231.921 244.791 227.417 246.353 224.855 247.45C221.739 248.787 218.697 250.346 215.764 252.112C210.48 255.57 205.276 258.121 202.378 263.492C199.481 268.864 198.483 274.73 197.515 280.475L190.507 322.49C187.366 341.134 184.223 359.83 183.574 378.369C183.437 382.457 183.431 386.626 184.862 390.272C186.092 393.051 187.788 395.568 189.9 397.748C193.333 401.636 195.261 404.545 198.601 408.517Z" fill="#E5B0A5"/>
</g>
<g id="ring-r">
<path id="proximal-4-r" d="M117.291 202.327C115.24 200.341 112.402 199.161 108.892 198.834C108.403 198.765 107.833 198.803 107.199 198.947C107.059 199.061 106.916 199.163 106.775 199.251C106.449 199.445 106.152 199.534 105.943 199.501C105.546 199.751 105.147 200.077 104.783 200.445C103.485 201.738 102.65 203.198 101.923 204.549C101.351 205.609 100.785 206.71 100.765 207.495C100.739 208.604 101.79 208.809 102.79 208.947C104.523 209.189 106.78 208.684 108.124 209.422C108.295 209.515 108.472 209.608 108.655 209.698C109.665 210.184 110.913 210.502 112.827 209.649C114.742 208.795 117.164 206.584 117.844 204.802C118.325 203.539 117.838 202.86 117.291 202.327Z" fill="#E0674E"/>
<path id="intermediate-4-r" d="M129.29 195.891C126.265 190.391 124.79 184.009 118.013 183C117.093 183.264 116.197 183.602 115.331 184.009L102.242 189.865C97.5499 191.953 92.4226 194.498 90.6418 199.305C88.5499 204.937 91.9628 211.005 95.2643 216.047C99.8193 223.03 104.375 230.008 108.93 236.982C109.844 238.502 110.922 239.915 112.146 241.196C112.715 241.735 113.339 242.213 114.008 242.619C114.458 242.78 114.882 243.005 115.268 243.288C124.713 247.689 142.615 243.048 144.429 232.683C146.296 222.029 134.79 205.891 129.29 195.891Z" fill="#E0674E"/>
<path id="distal-4-r" d="M146.951 236.276C149.17 241.386 154.523 247.146 157.922 251.559C159.072 252.974 160.109 254.478 161.023 256.055C161.705 257.375 162.301 258.739 162.806 260.136L167.538 272.311C169.454 277.242 171.325 281.784 168.17 286.021C167.122 287.299 165.892 288.418 164.521 289.341C162.088 291.331 159.392 292.976 156.51 294.23C153.622 295.277 150.507 295.532 147.488 294.969C144.469 294.406 141.656 293.045 139.34 291.028C132.28 284.716 127.793 276.043 124.497 267.169C123.778 265.211 123.159 263.212 122.255 261.337C121.283 259.292 119.797 256.168 118.25 253.439C118.271 252.692 118.11 251.95 117.781 251.279C117.874 250.212 117.609 249.145 117.029 248.246C117.204 247.508 117.22 246.742 117.076 245.997C117.053 245.978 117.032 245.957 117.013 245.933C118.363 243.52 120.209 241.419 122.429 239.771C124.649 238.123 127.194 236.964 129.894 236.37C132.02 235.936 134.276 235.835 136.152 234.762C138.028 233.689 139.488 231.722 141.617 231.606C144.158 231.394 145.946 233.955 146.951 236.276Z" fill="#E0674E"/>
</g>
<g id="pinkie-r">
<path id="proximal-5-r" d="M71.1437 230.79C71.2814 230.89 71.3531 231.104 71.3582 231.433C71.3587 231.489 71.3575 231.551 71.3536 231.615C71.1925 231.889 71.034 232.176 70.9037 232.431C70.7734 232.685 70.6787 232.891 70.6349 233.017C70.4998 233.395 70.4205 233.681 70.3989 233.87C70.3885 233.896 70.3799 233.918 70.3715 233.941C70.1782 234.482 70.0075 234.984 69.8371 235.487C69.7416 235.682 69.6735 235.838 69.6397 235.939C69.4788 236.396 69.2473 236.97 69.0639 237.465C69.0112 237.573 68.9586 237.68 68.902 237.793C68.3827 238.834 67.726 240.071 67.0306 241.267C66.6468 241.922 66.2659 242.554 65.8985 243.147C65.2637 244.182 64.6323 245.206 64.0044 246.221C63.7798 246.59 63.5698 246.916 63.3919 247.174C63.2534 247.362 63.1523 247.477 63.0971 247.508C62.8239 247.713 62.6079 247.869 62.9998 246.951C63.8556 244.944 64.4437 243.355 64.7423 242.243C64.9007 241.652 64.9812 241.184 65.3652 240.227C65.7491 239.269 66.5161 237.683 67.5006 235.954C67.9034 235.252 68.3096 234.566 68.7022 233.925C69.0446 233.357 69.3766 232.823 69.6871 232.341C70.673 230.829 70.9939 230.682 71.1437 230.79Z" fill="#E0674E"/>
<path id="intermediate-5-r" d="M81.4087 223.948C86.1365 228.032 90.4895 232.53 94.4164 237.39C96.1098 241.295 98.1438 245.045 100.494 248.595C100.596 253.576 104.915 259.274 102.102 263.253C101.065 264.734 99.2546 265.512 97.5186 266.239L84.4 271.655C81.6703 272.795 78.5163 273.913 75.6135 272.746C74.3034 272.135 73.1053 271.311 72.0665 270.305L62.1949 261.728C56.6513 256.911 50.6743 251.317 50.0525 244.477C49.9537 243.663 49.9945 242.838 50.1731 242.038C50.683 240.028 52.271 238.63 53.8505 237.307C58.6892 233.29 63.7517 229.55 69.0141 226.107C72.2574 223.981 76.0839 221.923 80.0073 222.002C80.3019 222.758 80.784 223.428 81.4087 223.948Z" fill="#E0674E"/>
<path id="distal-5-r" d="M117.48 270.439C123.31 276.268 128.068 283.079 131.534 290.56C133.039 293.842 134.312 297.371 133.997 300.942C133.421 307.4 127.46 312.444 121.073 313.565C116.862 314.181 112.562 313.677 108.606 312.105C103.543 308.374 98.7588 304.279 94.2903 299.853C88.0369 293.309 84.1839 284.908 77.8362 278.369C77.1576 274.652 77.6993 270.817 79.3801 267.434C81.096 264.05 83.8555 261.339 86.5803 258.689C87.6833 257.519 88.9283 256.492 90.2853 255.63C93.3583 253.845 97.9661 253.266 101.546 253.322C105.319 260.101 111.931 264.882 117.48 270.439Z" fill="#E0674E"/>
</g>
<g id="thumb-r">
<path id="proximal-1-r" d="M161.564 195.569C156.653 198.669 151.967 203.378 152.369 209.332C152.854 216.709 160.479 221.725 166.638 226.382C178.884 235.64 188.199 248.158 199.712 258.304C211.223 268.45 226.696 276.42 240.893 273.024C242.831 274.079 245.376 271.136 246.937 269.738C251.39 265.925 255.675 261.674 258.544 256.521C261.414 251.368 262.842 245.143 261.225 239.137C260.881 237.695 260.262 236.288 259.394 234.985C257.979 233.203 256.22 231.654 254.219 230.432L247.018 225.451C231.819 214.97 217.279 206.93 204.542 193.636C201.025 189.973 197.476 186.076 192.833 184.081C185.67 180.995 177.799 183.167 170.715 185.367C166.414 186.712 161.767 188.313 159.614 192.159C157.621 195.731 158.23 200.525 155.879 203.861" fill="#68B6CE"/>
<path id="distal-1-r" d="M99.3404 171.304C96.1746 176.96 98.2976 184.566 102.753 190.39C107.208 196.214 113.518 200.568 119.698 204.791L122.03 206.39C122.659 206.367 123.303 206.469 123.918 206.69C124.532 206.911 125.103 207.247 125.592 207.674C126.668 208.579 127.718 209.503 128.746 210.414C142.132 221.779 160.997 229.445 177.919 233.651C181.088 233.779 184.076 233.216 185.646 231.016C186.325 229.912 186.744 228.668 186.88 227.357C189.56 211.221 178.379 192.477 161.293 184.478C144.775 176.729 125.433 178.764 109.086 170.699C106.635 169.505 103.796 168.029 101.53 168.997C100.536 169.52 99.7743 170.323 99.3404 171.304Z" fill="#68B6CE"/>
</g>
<g id="middle-r">
<path id="proximal-3-r" d="M159.627 147.69C158.371 148.085 158.497 147.61 157.6 147.768C156.816 147.904 155.286 148.529 153.696 149.282C148.734 151.631 143.068 155.326 142.417 156.636C142.113 157.248 142.761 157.368 143.399 157.47L150.815 158.697C151.307 158.777 151.992 158.8 153.699 158.036C155.077 157.42 157.718 156.007 159.18 155.193C160.642 154.379 162.089 153.487 162.94 152.807C164.176 151.814 165.972 150.34 165.808 150.005C165.662 149.735 164.959 149.772 164.761 149.53C164.708 149.431 164.689 149.313 164.558 149.257C164.359 149.21 164.093 149.202 163.761 149.234C163.111 149.254 162.702 149.133 162.546 148.873C162.37 148.547 161.906 148.413 161.747 148.077C161.619 147.839 161.488 147.596 160.956 147.587C160.599 147.599 159.735 147.818 159.627 147.69Z" fill="#E0674E"/>
<path id="intermediate-3-r" d="M153.553 199.989C151.131 197.603 149.617 194.454 148.33 191.308C145.629 184.229 143.387 176.984 141.617 169.617L137.25 153.079C136.632 150.732 136.009 148.227 136.708 145.897C137.661 142.691 140.79 140.698 143.754 139.158C147.121 137.415 150.592 135.879 154.146 134.558C158.521 132.939 163.539 131.689 167.714 133.767C172.707 136.245 174.461 142.366 175.701 147.809C177.769 156.918 179.809 166.121 181.959 175.254C183.043 179.816 185.894 185.698 185.024 190.471C182.769 203.024 162.316 208.978 153.553 199.989Z" fill="#E0674E"/>
<path id="distal-3-r" d="M168.961 248.041C165.408 246.548 163 243.302 161.049 239.956C157.532 234.043 154.809 227.692 152.95 221.068C151.573 216.13 150.813 210.44 153.809 206.304C155.458 204.03 158.004 202.6 160.516 201.338C165.672 198.768 171.021 196.607 176.515 194.875C180.255 193.678 185.194 193.084 187.33 196.374C188.017 197.636 188.407 199.038 188.472 200.473L193 229.5C194.348 240.962 185.465 254.869 168.961 248.041Z" fill="#E0674E"/>
</g>
<g id="index-r">
<path id="intermediate-2-r" d="M233.725 176.453C234.495 163.296 235.269 150.138 236.046 136.979C236.127 136.275 236.087 135.563 235.926 134.873C235.22 132.646 232.472 131.998 230.167 131.768C220.91 130.858 211.606 130.53 202.308 130.785C193.5 136.979 196.997 147.433 197.065 155.29C198.683 162.549 199.256 170.001 198.768 177.422C198.544 180.818 198.15 184.403 199.707 187.386C202.231 192.212 208.628 193.331 213.976 193.723C219.323 194.116 225.334 194.163 229.237 190.476C232.903 187.02 233.425 181.476 233.725 176.453Z" fill="#68B6CE"/>
<g id="distal-2-r" filter="url(#filter0_d_0_1)">
<path d="M195.623 201.658C195.508 199.764 195.668 197.863 196.101 196.015C197.282 191.788 201.139 188.744 205.324 187.384C209.509 186.025 214.006 186.221 218.381 186.595C223.712 187.058 229.861 188.41 232.195 193.236C233.756 196.479 233.043 200.301 232.305 203.814L229.5 233.5C227.678 242.167 215.145 246.203 203.695 241.883C193.663 238.069 195.766 210.372 195.623 201.658Z" fill="#68B6CE"/>
</g>
</g>
</g>
</g>
</g>
</g>
</g>
<defs>
<filter id="filter0_d_0_1" x="191.53" y="186.32" width="45.5959" height="65.3091" filterUnits="userSpaceOnUse" color-interpolation-filters="sRGB">
<feFlood flood-opacity="0" result="BackgroundImageFix"/>
<feColorMatrix in="SourceAlpha" type="matrix" values="0 0 0 0 0 0 0 0 0 0 0 0 0 0 0 0 0 0 127 0" result="hardAlpha"/>
<feOffset dy="4"/>
<feGaussianBlur stdDeviation="2"/>
<feComposite in2="hardAlpha" operator="out"/>
<feColorMatrix type="matrix" values="0 0 0 0 0 0 0 0 0 0 0 0 0 0 0 0 0 0 0.25 0"/>
<feBlend mode="normal" in2="BackgroundImageFix" result="effect1_dropShadow_0_1"/>
<feBlend mode="normal" in="SourceGraphic" in2="effect1_dropShadow_0_1" result="shape"/>
</filter>
</defs>
</svg>
