<svg width="442" height="386" viewBox="0 0 442 386" fill="none" xmlns="http://www.w3.org/2000/svg">
<rect width="442" height="386" fill="white"/>
<g id="v 1" clip-path="url(#clip0_0_1)">
<path id="Vector" d="M441.347 3.55513L438.642 385.546L0.65339 382.445L3.35765 0.454435L441.347 3.55513Z" fill="white"/>
<g id="w 2">
<g id="w 1">
<g id="hand-colored-r 1">
<g id="hand-r">
<g id="thumb-r" filter="url(#filter0_d_0_1)">
<path id="proximal-1-r" d="M230.226 184.074C230.466 189.673 229.428 196.152 224.919 199.721C219.339 204.155 211.858 201.842 205.377 200.365C192.491 197.428 178.73 198.749 165.574 196.925C152.418 195.102 138.834 188.972 134.115 176.4C132.371 175.669 133.214 171.898 133.437 169.852C133.943 164.124 134.851 158.237 137.129 152.797C139.405 147.357 143.185 142.275 148.346 139.556C149.562 138.872 150.893 138.411 152.274 138.199C154.279 138.075 156.288 138.356 158.182 139.024L165.424 141.051C180.686 145.351 193.85 150.753 209.902 151.429C214.329 151.62 218.94 151.683 222.73 153.78C228.583 157.009 230.989 164.167 232.979 170.77C234.18 174.784 235.37 179.217 233.676 183.286C232.101 187.06 228.326 189.725 227.102 193.608" fill="#68B6CE"/>
<path id="distal-1-r" d="M292.383 171.907C293.154 178.342 289.094 184.522 283.723 188.157C278.353 191.792 271.957 193.354 265.706 194.847L263.344 195.415C262.85 195.15 262.304 194.994 261.743 194.961C261.184 194.926 260.622 195.013 260.099 195.216C258.958 195.632 257.831 196.075 256.727 196.517C242.497 201.789 225.037 201.536 210.207 198.849C207.634 197.738 205.422 196.062 204.851 193.427C204.651 192.147 204.703 190.841 205.001 189.58C207.875 173.686 222.637 160.762 238.778 160.022C254.387 159.29 269.211 168.66 284.782 167.573C287.113 167.423 289.84 167.166 291.35 168.936C291.981 169.801 292.342 170.836 292.383 171.907Z" fill="#68B6CE"/>
</g>
<g id="pinkie-r">
<path id="proximal-5-r" d="M243.868 308.584C243.738 308.475 243.512 308.459 243.192 308.536C243.139 308.55 243.079 308.566 243.017 308.586C242.792 308.811 242.554 309.036 242.34 309.225C242.126 309.415 241.95 309.558 241.839 309.632C241.508 309.857 241.25 310.005 241.072 310.073C241.049 310.09 241.03 310.104 241.01 310.118C240.535 310.44 240.09 310.73 239.646 311.021C239.482 311.162 239.347 311.267 239.258 311.325C238.855 311.594 238.357 311.962 237.924 312.263C237.832 312.341 237.742 312.419 237.647 312.502C236.769 313.264 235.734 314.209 234.749 315.181C234.211 315.715 233.693 316.242 233.211 316.746C232.368 317.619 231.533 318.486 230.707 319.347C230.406 319.657 230.142 319.941 229.937 320.178C229.789 320.359 229.703 320.486 229.687 320.547C229.557 320.862 229.46 321.11 230.251 320.502C231.98 319.173 233.372 318.207 234.375 317.64C234.908 317.339 235.341 317.144 236.173 316.534C237.003 315.923 238.348 314.785 239.777 313.4C240.356 312.835 240.919 312.27 241.442 311.73C241.907 311.257 242.341 310.802 242.73 310.381C243.948 309.049 244.011 308.702 243.868 308.584Z" fill="#E0674E"/>
<path id="intermediate-5-r" d="M247.933 296.936C242.799 293.377 237.357 290.284 231.671 287.694C227.467 287.028 223.328 285.994 219.304 284.604C214.455 285.748 207.86 282.986 204.708 286.704C203.533 288.077 203.232 290.025 202.961 291.887L200.989 305.942C200.566 308.87 200.27 312.203 202.124 314.723C203.043 315.839 204.14 316.794 205.372 317.549L216.142 324.968C222.19 329.134 229.097 333.527 235.877 332.423C236.689 332.315 237.478 332.07 238.208 331.697C240.028 330.702 240.985 328.816 241.872 326.956C244.555 321.268 246.913 315.433 248.936 309.477C250.185 305.806 251.223 301.587 250.168 297.808C249.361 297.711 248.593 297.411 247.933 296.936Z" fill="#E0674E"/>
<path id="distal-5-r" d="M193.913 273.605C186.813 269.413 179.031 266.505 170.922 265.015C167.369 264.377 163.634 264.025 160.255 265.22C154.144 267.39 150.746 274.42 151.254 280.886C151.709 285.117 153.269 289.155 155.779 292.594C160.655 296.565 165.814 300.177 171.215 303.4C179.112 307.823 188.208 309.458 196.125 313.973C199.893 313.703 203.473 312.222 206.329 309.75C209.178 307.244 211.114 303.896 213 300.596C213.858 299.236 214.542 297.774 215.038 296.245C216 292.823 215.412 288.217 214.464 284.764C206.958 282.802 200.679 277.592 193.913 273.605Z" fill="#E0674E"/>
</g>
<g id="ring-r">
<path id="proximal-4-r" d="M259.725 248.661C242.839 237.289 224.208 228.754 204.57 223.39C201.764 222.533 198.849 222.082 195.916 222.047C195.515 222.414 195.067 222.727 194.585 222.975C193.434 223.507 192.125 223.591 190.917 223.207C189.565 223.921 188.422 224.974 187.599 226.264C184.605 230.771 184.571 236.55 184.785 241.954C184.942 246.19 185.255 250.618 187.513 254.201C190.718 259.26 196.923 261.359 202.649 263.091C212.582 266.105 223.053 266.272 232.415 271.139C233.606 271.752 234.829 272.376 236.07 272.988C242.899 276.329 250.491 279.163 258.088 277.352C265.684 275.54 271.881 268.054 270.122 260.628C268.87 255.358 264.234 251.705 259.725 248.661Z" fill="#E0674E"/>
<path id="intermediate-4-r" d="M261.831 251.066C260.837 250.71 259.985 250.043 259.401 249.164L259.523 249.357C259.399 249.175 259.264 249.001 259.117 248.835C258.887 248.676 258.656 248.518 258.426 248.359C257.799 247.92 257.283 247.34 256.92 246.667C252.625 245.731 248.463 244.265 244.531 242.302C233.743 239.525 221.096 230.175 210.924 233.856C201.03 237.437 199.557 255.872 205.526 264.413C205.871 264.744 206.165 265.123 206.402 265.538C206.918 266.127 207.497 266.659 208.126 267.125C209.6 268.11 211.178 268.927 212.832 269.564C220.49 272.845 228.152 276.124 235.818 279.402C241.354 281.781 247.922 284.092 253.107 281.058C257.533 278.472 259.152 272.981 260.396 267.999L263.899 254.094C264.151 253.171 264.328 252.229 264.429 251.278C263.559 251.426 262.665 251.353 261.831 251.066Z" fill="#E0674E"/>
<path id="distal-4-r" d="M206.949 231.995C201.532 230.693 194.933 226.417 189.999 223.833C188.406 222.946 186.745 222.184 185.034 221.557C183.616 221.114 182.17 220.763 180.705 220.508L167.896 217.953C162.708 216.919 157.911 215.862 154.284 219.703C153.206 220.957 152.317 222.362 151.644 223.871C150.105 226.612 148.952 229.552 148.216 232.607C147.685 235.633 147.972 238.744 149.049 241.621C150.126 244.497 151.953 247.033 154.341 248.965C161.779 254.826 171.097 257.744 180.408 259.455C182.461 259.825 184.537 260.089 186.539 260.654C188.721 261.258 192.056 262.182 195.011 263.232C195.744 263.082 196.502 263.113 197.22 263.32C198.254 263.044 199.352 263.12 200.338 263.536C201.034 263.237 201.787 263.088 202.544 263.1C202.567 263.12 202.592 263.137 202.619 263.152C204.762 261.405 206.512 259.224 207.75 256.751C208.99 254.279 209.692 251.573 209.808 248.81C209.869 246.642 209.577 244.402 210.309 242.368C211.041 240.335 212.727 238.557 212.472 236.439C212.24 233.9 209.409 232.583 206.949 231.995Z" fill="#E0674E"/>
</g>
<g id="middle-r">
<path id="proximal-3-r" d="M298.011 198.22C301.317 200.933 306.224 200.389 310.084 202.247C313.48 203.872 315.776 207.267 316.917 210.86C320.507 222.074 312.431 235.515 300.848 237.614C295.439 238.595 289.85 237.399 284.521 236.211L222.19 222.425C218.073 221.51 213.409 220.18 211.634 216.349C210.209 213.259 210.248 207.187 210.662 203.807C211.076 200.428 212.511 197.026 215.23 194.931C219.246 191.881 225.442 187.432 230.531 187.543C234.71 187.659 238.772 189.062 242.957 189.298C244.487 189.341 246.028 189.304 247.543 189.526C249.38 189.886 251.184 190.404 252.932 191.076C256.855 192.364 260.94 193.09 265.067 193.234C270.115 193.374 274.703 194.202 279.753 194.302C283.451 194.405 287.21 194.509 290.722 195.547C292.873 196.257 295.784 198.089 298.011 198.22Z" fill="#E0674E"/>
<path id="intermediate-3-r" d="M361.509 250.313C358.232 251.223 354.748 250.966 351.38 250.512C343.897 249.324 336.498 247.655 329.23 245.515L312.717 241.055C310.374 240.42 307.893 239.711 306.221 237.944C303.918 235.519 303.75 231.813 303.893 228.475C304.061 224.688 304.46 220.913 305.087 217.174C305.865 212.574 307.284 207.601 311.167 205.018C315.805 201.926 321.985 203.458 327.321 205.097C336.248 207.846 345.243 210.667 354.232 213.357C358.727 214.692 365.247 215.154 368.951 218.288C378.707 226.502 373.67 247.2 361.509 250.313Z" fill="#E0674E"/>
<path id="distal-3-r" d="M410.844 260.917C407.778 263.253 403.763 263.722 399.891 263.744C393.011 263.844 386.149 263.038 379.48 261.347C374.513 260.078 369.201 257.9 367.11 253.24C365.961 250.677 365.992 247.757 366.15 244.95C366.493 239.199 367.287 233.485 368.525 227.86C369.352 224.021 371.3 219.443 375.217 219.232C376.654 219.266 378.063 219.627 379.34 220.287L411.806 226.271C422.414 230.817 424.992 250.016 410.844 260.917Z" fill="#E0674E"/>
</g>
<g id="index-r">
<g id="proximal-2-r" filter="url(#filter1_d_0_1)">
<path d="M232.841 133.847L279.823 127.113C284.788 126.407 284.96 125.981 289.862 126.947C293.001 125.436 296.945 127.065 299.113 129.792C301.281 132.52 302.084 136.07 302.696 139.498C303.471 143.894 304.058 148.414 303.338 152.813C302.767 157.006 300.611 160.824 297.314 163.48C294.203 163.858 291.106 164.306 288.031 164.943C287.165 165.106 286.361 165.503 285.704 166.091C284.928 166.095 284.163 166.263 283.458 166.583C282.752 166.903 282.122 167.367 281.607 167.947C267.362 170.527 253.118 173.098 238.875 175.659C232.121 176.882 224.935 178.056 218.577 175.464C217.038 171.922 213.223 170.501 211.133 167.244C210.173 165.49 209.734 163.498 209.867 161.502C209.855 154.876 211.705 148.379 215.205 142.753C218.395 137.626 226.836 134.71 232.841 133.847Z" fill="#68B6CE"/>
</g>
<path id="intermediate-2-r" d="M293.183 125.611C306.29 124.216 319.396 122.818 332.502 121.416C337.505 120.887 343.061 120.491 347.071 123.539C351.35 126.784 352.29 132.721 352.782 138.06C353.273 143.4 353.22 149.893 348.875 153.176C346.188 155.202 342.586 155.402 339.2 155.739C331.8 156.477 324.543 158.266 317.649 161.055C309.909 162.413 302.02 162.811 294.225 163.915L294.136 163.832C293.298 162.677 292.774 161.326 292.615 159.908C290.836 150.779 289.631 141.547 289.008 132.266C288.857 129.954 289.045 127.138 291.125 126.075C291.78 125.804 292.476 125.647 293.183 125.611Z" fill="#68B6CE"/>
<path id="distal-2-r" d="M363.623 154.859C361.774 155.285 359.873 155.439 357.979 155.316C353.615 154.845 349.978 151.539 347.95 147.635C345.922 143.73 345.377 139.263 345.026 134.886C344.608 129.55 344.931 123.263 349.308 120.169C352.25 118.096 356.138 118.171 359.724 118.322L388.256 116.498C397.104 116.872 404.357 128.286 401.976 140.29C399.862 150.812 372.196 153.287 363.623 154.859Z" fill="#68B6CE"/>
</g>
<g id="palm-r">
<path id="metacarpal-lower-r" d="M166.764 331.087C171.342 333.318 170.116 340.713 165.795 343.538C161.474 346.363 155.893 345.969 150.771 345.47C123.384 342.799 95.9918 340.134 68.5945 337.474C61.2832 336.767 52.7743 335.281 49.5984 328.898C47.6737 325.022 48.3364 320.405 49.0499 316.108C51.9246 298.722 54.8515 281.173 61.5562 264.778C64.1094 258.53 67.1701 252.455 70.271 246.472C90.6419 206.768 112.724 166.016 148.647 138.637C151.136 136.573 153.93 134.909 156.931 133.702C164.857 130.879 173.454 134.07 181.186 137.216C187.547 135.602 197.159 139.591 200.874 144.78C204.589 149.969 205.638 156.598 205.405 162.968C205.171 169.338 203.76 175.637 203.027 181.99C202.034 190.465 202.236 199.059 200.801 207.468C198.947 218.481 194.385 228.919 191.571 239.759C187.679 254.678 187.164 270.26 183.896 285.324C180.214 302.162 173.686 315.2 166.764 331.087Z" fill="#E5B0A5"/>
<path id="index-metacarpal-r" d="M179.323 205.001C176.687 193.914 172.806 178.974 177.262 167.751C181.349 157.435 181.465 151.092 191.185 144.064C200.344 137.448 211.812 131.957 223.078 135.862C232.128 139.023 237.913 147.401 241.236 155.995C244.823 165.342 246.213 175.388 245.299 185.358C244.965 189.039 244.275 192.824 242.136 195.964C240.425 198.245 238.328 200.209 235.941 201.769C224.794 209.711 211.914 214.885 198.371 216.86C193.484 217.576 188.012 217.715 184.305 214.762C181.338 212.442 180.187 208.62 179.323 205.001Z" fill="#E5B0A5"/>
<path id="metacarpal-upper-r" d="M251.893 203.72C252.513 207.06 252.674 210.47 252.372 213.854C251.153 222.833 248.585 231.019 247.728 240.176C246.783 250.363 245.03 260.459 242.486 270.369C240.616 277.667 238.306 284.847 235.57 291.866C234.787 292.475 234.177 293.278 233.803 294.196C233.428 295.113 233.3 296.114 233.434 297.096C229.432 306.528 224.605 315.589 219.009 324.172C216.553 328.181 213.578 331.848 210.163 335.079C199.551 344.518 184.154 345.099 169.96 344.557C168.193 344.486 166.256 344.345 164.879 343.045C163.644 341.889 163.183 340.073 162.842 338.365C159.9 323.174 162.554 307.772 165.213 292.842C171.139 259.495 172.412 221.084 193.446 194.816C207.152 177.746 247.87 174.481 251.893 203.72Z" fill="#E5B0A5"/>
<path id="carpal-r" d="M55.0545 332.548C44.7668 335.997 33.2177 330.533 26.7272 322.153C20.2367 313.772 17.7807 303.079 15.9134 292.68C13.7963 280.879 12.2407 268.992 11.2447 257.018C10.402 246.96 8.55151 237.816 7.3923 227.787C5.93261 215.038 4.79193 200.968 12.4042 190.375C15.2882 186.674 18.7229 183.438 22.5877 180.78C31.5263 174.13 42.5824 168.309 53.4093 170.823C60.4686 172.441 66.2943 177.495 70.1156 183.501C73.937 189.507 75.9692 196.448 77.5873 203.376C84.0169 230.894 84.6784 259.444 79.5285 287.23C76.5461 303.274 71.3701 319.522 60.4363 331.934C58.4939 334.054 57.8262 333.418 55.0545 332.548Z" fill="#E5B0A5"/>
<path id="thumb-metacarpal-r" d="M26.1634 246.554C20.609 244.298 17.0901 238.038 16.1331 231.367C15.1761 224.696 16.4169 217.669 18.2446 210.978C23.6293 191.518 33.6682 173.782 47.032 160.116C52.0728 154.916 60.6362 153.871 67.113 152.083C92.0501 145.143 117.15 139.555 142.411 135.319C148.007 134.379 153.773 133.513 159.068 135.119C164.363 136.725 169.095 141.436 169.421 147.713C169.651 151.951 172.902 157.505 172.188 161.752C171.719 164.517 171.616 169.283 171.361 172.058C171.046 175.434 170.498 178.808 169.719 182.142C168.053 188.233 167.225 193.97 163.005 198.378C158.784 202.787 153.508 205.539 148.339 208.227L110.513 227.811C93.7373 236.531 76.9128 245.269 59.471 251.586C55.6231 252.973 51.6578 254.26 47.7484 254.019C44.7259 253.703 41.8094 252.863 39.0857 251.523C34.3307 249.452 30.9698 248.511 26.1634 246.554Z" fill="#E5B0A5"/>
</g>
</g>
</g>
</g>
</g>
</g>
<defs>
<filter id="filter0_d_0_1" x="133.037" y="136.17" width="167.44" height="72.1312" filterUnits="userSpaceOnUse" color-interpolation-filters="sRGB">
<feFlood flood-opacity="0" result="BackgroundImageFix"/>
<feColorMatrix in="SourceAlpha" type="matrix" values="0 0 0 0 0 0 0 0 0 0 0 0 0 0 0 0 0 0 127 0" result="hardAlpha"/>
<feOffset dx="4" dy="2"/>
<feGaussianBlur stdDeviation="2"/>
<feComposite in2="hardAlpha" operator="out"/>
<feColorMatrix type="matrix" values="0 0 0 0 0 0 0 0 0 0 0 0 0 0 0 0 0 0 0.25 0"/>
<feBlend mode="normal" in2="BackgroundImageFix" result="effect1_dropShadow_0_1"/>
<feBlend mode="normal" in="SourceGraphic" in2="effect1_dropShadow_0_1" result="shape"/>
</filter>
<filter id="filter1_d_0_1" x="205.844" y="126.369" width="101.821" height="58.6454" filterUnits="userSpaceOnUse" color-interpolation-filters="sRGB">
<feFlood flood-opacity="0" result="BackgroundImageFix"/>
<feColorMatrix in="SourceAlpha" type="matrix" values="0 0 0 0 0 0 0 0 0 0 0 0 0 0 0 0 0 0 127 0" result="hardAlpha"/>
<feOffset dy="4"/>
<feGaussianBlur stdDeviation="2"/>
<feComposite in2="hardAlpha" operator="out"/>
<feColorMatrix type="matrix" values="0 0 0 0 0 0 0 0 0 0 0 0 0 0 0 0 0 0 0.25 0"/>
<feBlend mode="normal" in2="BackgroundImageFix" result="effect1_dropShadow_0_1"/>
<feBlend mode="normal" in="SourceGraphic" in2="effect1_dropShadow_0_1" result="shape"/>
</filter>
<clipPath id="clip0_0_1">
<rect width="382" height="438" fill="white" transform="matrix(0.0070792 -0.999975 -0.999975 -0.0070792 438.642 385.546)"/>
</clipPath>
</defs>
</svg>
