<svg width="382" height="434" viewBox="0 0 382 434" fill="none" xmlns="http://www.w3.org/2000/svg">
<rect width="382" height="434" fill="white"/>
<g id="h 3" clip-path="url(#clip0_0_1)">
<g id="h 2">
<g id="h 1">
<g id="hand-colored-r 1">
<g id="hand-r">
<g id="palm-r">
<path id="metacarpal-lower-r" d="M100.603 221.77C101.095 217.749 95.7805 217.235 92.1184 220.049C88.4571 222.863 86.3477 227.304 84.5031 231.406C74.6354 253.342 64.7621 275.281 54.8839 297.222C52.2457 303.077 49.6054 310.022 52.3996 313.775C54.0973 316.05 57.3722 316.452 60.4611 316.75C72.9523 317.964 85.572 319.171 99.0421 317.195C104.175 316.443 109.41 315.259 114.604 314.027C148.978 306.011 184.754 296.866 217.723 274.241C220.115 272.707 222.379 270.854 224.431 268.749C229.619 263.117 231.191 255.762 232.425 249.094C236.166 244.443 237.651 236.138 235.859 232.201C234.068 228.264 230.214 226.126 225.984 225.039C221.754 223.953 217.072 223.802 212.642 223.111C206.726 222.2 201.239 220.331 195.178 219.778C187.252 219.035 178.551 220.522 170.331 220.563C159.008 220.636 148.685 217.936 137.534 217.491C125.056 217.017 113.836 219.523 100.603 221.77Z" fill="#E5B0A5"/>
<path id="index-metacarpal-r" d="M186.878 231.664C192.686 235.67 200.367 241.331 209.416 239.758C217.728 238.318 221.773 239.327 230.521 232.864C238.76 226.772 247.317 218.662 249.869 209.08C251.902 201.377 249.201 195.35 245.267 191.232C240.977 186.774 235.269 183.932 228.585 182.924C226.119 182.549 223.43 182.438 220.501 183.583C218.304 184.541 216.135 185.857 214.091 187.472C204.134 194.905 195.148 204.187 187.882 214.549C185.258 218.287 182.737 222.588 182.947 226.032C183.089 228.779 184.983 230.352 186.878 231.664Z" fill="#E5B0A5"/>
<path id="metacarpal-upper-r" d="M219.957 174.525C218.13 173.455 216.053 172.737 213.789 172.388C207.593 171.793 201.297 172.403 195.151 171.49C188.317 170.469 181.179 170.102 173.809 170.393C168.382 170.604 162.834 171.184 157.198 172.128C156.466 172.642 155.689 172.984 154.945 173.121C154.201 173.257 153.514 173.185 152.955 172.909C145.236 174.435 137.385 176.677 129.492 179.611C125.875 180.856 122.244 182.571 118.691 184.71C108.028 191.459 100.815 203.528 94.8446 214.841C94.1028 216.25 93.3307 217.806 93.5375 219.12C93.7161 220.297 94.6542 220.976 95.578 221.543C103.835 226.505 114.712 227.08 125.295 227.57C148.926 228.673 173.678 234.333 199.571 222.268C216.414 214.397 236.577 182.78 219.957 174.525Z" fill="#E5B0A5"/>
<path id="carpal-r" d="M51.3065 307.749C44.5597 315.281 42.8641 325.358 45.255 331.943C47.6452 338.527 53.2856 342.324 59.0034 345.606C65.4917 349.327 72.2847 352.62 79.381 355.485C85.3393 357.897 90.273 360.947 96.0722 363.604C103.45 366.971 111.802 370.315 121.858 366.137C125.47 364.499 129.035 362.345 132.428 359.753C140.59 353.842 149.172 346.113 152.404 337.119C154.524 331.258 153.933 325.776 151.85 321.714C149.768 317.651 146.301 314.84 142.658 312.358C128.191 302.5 110.51 297.021 90.7241 296.27C79.2962 295.842 66.7642 297.114 54.0866 303.601C51.8879 304.769 51.992 305.407 51.3065 307.749Z" fill="#E5B0A5"/>
<path id="thumb-metacarpal-r" d="M86.544 316.038C82.0643 320.244 80.2681 326.483 80.8505 331.854C81.4336 337.224 84.059 341.856 87.137 345.968C96.1485 357.902 108.952 366.433 123.851 370.435C129.481 371.977 137.363 368.837 143.541 367.2C167.339 360.937 190.99 353.602 214.493 345.192C219.699 343.33 225.042 341.337 229.432 337.73C233.821 334.122 237.036 328.475 235.973 323.684C235.265 320.444 236.975 314.851 235.421 312.036C234.403 310.205 233.284 306.727 232.457 304.791C231.448 302.438 230.229 300.192 228.814 298.082C226.01 294.339 224.033 290.474 219.308 289.142C214.582 287.811 209.271 288.185 204.068 288.559L166.018 291.358C149.135 292.574 132.205 293.799 115.245 297.096C111.505 297.829 107.681 298.69 104.237 300.654C101.602 302.268 99.1756 304.223 97.0291 306.457C93.223 310.163 90.4214 312.394 86.544 316.038Z" fill="#E5B0A5"/>
</g>
<g id="thumb-r">
<path id="proximal-1-r" d="M220.978 332.185C219.787 331.455 218.41 330.31 217.658 328.775C216.725 326.873 217.228 325.479 217.553 324.198C218.199 321.65 217.94 318.305 218.35 315.54C218.759 312.774 220.086 310.514 222.767 311.191C222.926 310.893 223.726 311.615 224.161 311.952C225.379 312.871 226.629 313.904 227.783 315.189C228.937 316.474 230.011 318.054 230.581 319.619C230.724 319.995 230.82 320.364 230.864 320.711C230.886 321.189 230.823 321.611 230.678 321.953L230.235 323.331C229.296 326.234 228.125 328.499 227.955 332.091C227.907 333.08 227.886 334.131 227.434 334.707C226.738 335.598 225.211 335.148 223.803 334.681C222.947 334.394 222.002 334.047 221.14 333.088C220.34 332.197 219.779 330.957 218.955 330.133" fill="#68B6CE"/>
<path id="distal-1-r" d="M270.624 335.143C271.7 328.733 268.639 322.111 264.296 317.926C259.952 313.742 254.599 311.546 249.365 309.435L247.389 308.634C246.949 308.853 246.474 308.957 245.994 308.937C245.514 308.918 245.041 308.775 244.608 308.52C243.663 307.988 242.731 307.433 241.818 306.882C230.025 300.186 215.12 298.748 202.299 300.017C200.032 300.886 198.036 302.362 197.378 304.961C197.125 306.232 197.084 307.554 197.256 308.852C198.673 325.151 210.422 339.607 224.138 341.92C237.401 344.171 250.652 336.166 263.86 338.774C265.837 339.151 268.146 339.675 269.55 338.038C270.145 337.226 270.518 336.218 270.624 335.143Z" fill="#68B6CE"/>
</g>
<g id="pinkie-r">
<path id="proximal-5-r" d="M156.864 251.905C163.309 256.509 169.518 261.424 175.453 266.623C176.434 267.485 177.479 268.417 178.475 269.326C177.759 269.962 177.363 270.862 177.354 271.881C177.343 272.897 177.719 273.974 178.418 274.937C180.399 277.749 182.701 280.406 185.273 282.847C185.366 283.01 185.464 283.164 185.572 283.325C188.419 287.362 191.373 291.313 194.337 295.272C194.487 296.156 194.887 297.044 195.495 297.848C197.993 301.32 200.111 305.013 202.502 308.568C202.576 309.049 202.651 309.53 202.693 310.012C203.141 314.499 202.325 318.951 199.457 321.896C197.78 323.439 195.817 324.708 193.624 325.665C190.002 327.469 186.326 329.197 182.597 330.852C181.368 331.536 179.9 331.894 178.317 331.898C176.879 331.721 175.426 331.233 174.074 330.476C168.319 327.547 163.649 325.128 161.002 319.704C155.169 307.815 147.49 296.404 138.249 285.896C133.313 280.292 127.885 274.867 124.269 268.651C120.653 262.435 119.141 255.06 122.568 250.33C124.062 248.476 125.958 246.95 128.177 245.816C129.947 244.681 131.964 243.847 134.163 243.342C141.427 241.987 149.835 246.881 156.864 251.905Z" fill="#E0674E"/>
<path id="intermediate-5-r" d="M172.095 268.603C177.905 274.18 183.272 280.113 188.134 286.332C190.274 290.969 192.823 295.522 195.747 299.937C195.991 305.344 201.347 312.564 198.044 316.171C196.827 317.516 194.659 317.909 192.579 318.267L176.863 320.885C173.592 321.444 169.809 321.874 166.275 319.898C164.677 318.915 163.21 317.729 161.93 316.386L149.798 304.686C142.985 298.114 135.628 290.598 134.712 283.054C134.572 282.15 134.602 281.269 134.799 280.448C135.366 278.402 137.25 277.283 139.126 276.244C144.875 273.095 150.9 270.303 157.173 267.88C161.04 266.383 165.614 265.102 170.354 266.154C170.729 267.044 171.328 267.887 172.095 268.603Z" fill="#E0674E"/>
<path id="distal-5-r" d="M176.837 274.954C184.02 282.689 189.933 291.222 194.301 300.158C196.199 304.075 197.822 308.202 197.527 311.982C196.988 318.819 189.909 322.799 182.221 322.435C177.147 322.063 171.941 320.458 167.124 317.785C160.918 312.506 155.039 306.902 149.534 301.018C141.821 292.407 136.963 282.38 129.137 273.75C128.226 269.567 128.788 265.556 130.737 262.316C132.728 259.082 135.996 256.833 139.224 254.642C140.528 253.65 142.007 252.848 143.626 252.251C147.295 251.08 152.848 251.59 157.173 252.533C161.896 260.788 169.998 267.582 176.837 274.954Z" fill="#E0674E"/>
</g>
<g id="ring-r">
<path id="proximal-4-r" d="M178.691 228.368C198.395 243.63 215.917 261.412 230.568 281.009C232.756 283.787 234.569 286.776 235.951 289.883C235.748 290.396 235.626 290.944 235.586 291.515C235.554 292.863 236.068 294.271 237.026 295.465C236.896 297.069 236.313 298.53 235.335 299.707C231.969 303.946 225.908 305.338 220.13 306.381C215.605 307.21 210.805 307.917 206.004 306.36C199.213 304.144 194.161 298.047 189.711 292.373C181.985 282.531 177.004 271.45 167.593 262.651C166.4 261.529 165.185 260.378 163.971 259.203C157.324 252.734 150.862 245.338 149.28 236.845C147.699 228.351 152.724 220.011 161.34 220.135C167.454 220.228 173.422 224.294 178.691 228.368Z" fill="#E0674E"/>
<path id="intermediate-4-r" d="M180.716 230.719C181.545 231.69 182.639 232.438 183.831 232.852L183.572 232.768C183.82 232.856 184.066 232.959 184.307 233.075C184.58 233.283 184.852 233.491 185.125 233.699C185.874 234.262 186.72 234.673 187.596 234.9C190.549 239.242 193.999 243.318 197.869 247.033C205.738 257.838 221.373 269.074 222.169 280.74C222.945 292.09 204.24 297.984 192.522 293.65C192.015 293.362 191.482 293.138 190.937 292.983C190.081 292.574 189.256 292.084 188.477 291.526C186.766 290.191 185.181 288.707 183.753 287.099C176.791 279.738 169.827 272.372 162.864 265C157.822 259.679 152.378 253.246 153.189 247.027C153.877 241.718 158.906 238.71 163.573 236.219L176.585 229.233C177.439 228.749 178.348 228.339 179.301 228.008C179.546 228.968 180.031 229.9 180.716 230.719Z" fill="#E0674E"/>
<path id="distal-4-r" d="M188.688 235.31C192.542 240.758 200.065 246.762 205.046 251.395C206.71 252.879 208.272 254.464 209.717 256.133C210.834 257.536 211.866 258.989 212.807 260.484L221.37 273.489C224.838 278.756 228.15 283.602 225.777 288.355C224.953 289.795 223.884 291.069 222.605 292.138C220.43 294.415 217.869 296.331 214.994 297.83C212.058 299.105 208.654 299.53 205.136 299.062C201.618 298.594 198.114 297.249 194.987 295.167C185.412 288.644 178.069 279.434 171.997 269.948C170.667 267.854 169.437 265.711 167.923 263.717C166.287 261.541 163.786 258.216 161.326 255.325C161.146 254.512 160.767 253.713 160.218 252.999C160.035 251.836 159.452 250.689 158.561 249.74C158.557 248.93 158.368 248.096 158.007 247.294C157.976 247.274 157.947 247.253 157.92 247.227C158.773 244.541 160.263 242.17 162.293 240.274C164.323 238.377 166.847 236.997 169.698 236.223C171.95 235.65 174.438 235.433 176.239 234.179C178.042 232.923 179.137 230.715 181.479 230.489C184.255 230.138 186.94 232.836 188.688 235.31Z" fill="#E0674E"/>
</g>
<g id="middle-r">
<path id="proximal-3-r" d="M252.623 243.382C254.093 247.397 258.597 249.42 260.98 252.98C263.08 256.104 263.335 260.195 262.494 263.87C259.894 275.353 246.112 282.834 235.068 278.762C229.91 276.861 225.702 272.993 221.714 269.263L175.011 225.742C171.929 222.864 168.585 219.35 169.002 215.149C169.343 211.763 172.459 206.551 174.532 203.85C176.604 201.148 179.567 198.946 182.974 198.521C187.982 197.932 195.579 197.245 199.906 199.924C203.448 202.146 206.235 205.417 209.721 207.745C211.017 208.559 212.364 209.31 213.555 210.269C214.957 211.513 216.247 212.874 217.412 214.341C220.138 217.442 223.289 220.141 226.771 222.36C231.049 225.044 234.582 228.086 238.881 230.736C242.016 232.703 245.201 234.7 247.7 237.378C249.193 239.082 250.771 242.137 252.623 243.382Z" fill="#E0674E"/>
<path id="intermediate-3-r" d="M239.108 279.394C235.823 278.515 232.952 276.523 230.28 274.423C224.437 269.601 218.91 264.405 213.734 258.873L201.772 246.647C200.075 244.91 198.298 243.039 197.755 240.668C197.001 237.41 198.739 234.132 200.556 231.329C202.623 228.151 204.884 225.102 207.323 222.199C210.328 218.631 214.075 215.067 218.732 214.813C224.297 214.503 228.843 218.96 232.609 223.081C238.905 229.982 245.223 236.979 251.601 243.86C254.795 247.292 260.178 250.999 261.779 255.58C266.013 267.609 251.166 282.885 239.108 279.394Z" fill="#E0674E"/>
<path id="distal-3-r" d="M251.265 290.074C247.438 290.53 243.74 288.895 240.393 286.949C234.416 283.542 228.912 279.363 224.025 274.52C220.39 270.907 216.92 266.333 217.484 261.257C217.795 258.465 219.304 255.964 220.865 253.627C224.08 248.847 227.666 244.327 231.588 240.108C234.25 237.221 238.251 234.266 241.734 236.073C242.954 236.831 243.985 237.859 244.75 239.074L265.252 264.658C272.084 273.96 268.988 287.864 251.265 290.074Z" fill="#E0674E"/>
</g>
<g id="index-r">
<path id="proximal-2-r" d="M238.963 181.847L272.125 215.802C275.624 219.394 276.07 219.28 278.183 223.809C281.255 225.451 282.267 229.596 281.345 232.955C280.422 236.315 278.031 239.059 275.624 241.577C272.532 244.797 269.229 247.938 265.254 249.951C261.531 251.966 257.177 252.478 253.087 251.383C250.945 249.095 248.757 246.859 246.428 244.753C245.785 244.15 244.99 243.735 244.128 243.551C243.667 242.928 243.08 242.409 242.405 242.029C241.731 241.647 240.983 241.413 240.212 241.339C229.722 231.361 219.241 221.38 208.769 211.392C203.796 206.66 198.607 201.553 196.947 194.891C198.898 191.559 197.795 187.639 199.19 184.03C200.04 182.22 201.389 180.69 203.078 179.619C208.422 175.7 214.758 173.36 221.365 172.865C227.388 172.414 234.722 177.508 238.963 181.847Z" fill="#68B6CE"/>
<path id="intermediate-2-r" d="M281.221 225.701C290.082 235.459 298.945 245.215 307.811 254.968C311.192 258.695 314.788 262.946 314.694 267.983C314.6 273.352 310.362 277.615 306.342 281.162C302.321 284.71 297.047 288.499 291.833 286.928C288.611 285.955 286.325 283.165 284.053 280.63C279.092 275.092 273.364 270.29 267.045 266.368C261.382 260.922 256.405 254.788 250.913 249.147L250.926 249.025C251.364 247.668 252.147 246.446 253.197 245.481C259.518 238.658 266.26 232.238 273.385 226.258C275.162 224.772 277.546 223.261 279.632 224.313C280.237 224.681 280.774 225.151 281.221 225.701Z" fill="#68B6CE"/>
<path id="distal-2-r" d="M299.176 299.829C297.742 298.587 296.496 297.143 295.478 295.542C293.283 291.74 293.805 286.854 295.761 282.912C297.715 278.97 301.001 275.894 304.328 273.028C308.388 269.542 313.655 266.093 318.736 267.799C322.145 268.952 324.379 272.135 326.373 275.12L346.917 297.846C351.836 305.209 344.669 317.031 333.572 322.194C323.83 326.696 305.505 305.822 299.176 299.829Z" fill="#68B6CE"/>
</g>
</g>
</g>
</g>
</g>
</g>
<defs>
<clipPath id="clip0_0_1">
<rect width="382" height="434" fill="white"/>
</clipPath>
</defs>
</svg>
