<svg width="382" height="434" viewBox="0 0 382 434" fill="none" xmlns="http://www.w3.org/2000/svg">
<rect width="382" height="434" fill="white"/>
<g id="a 3">
<path id="Vector" d="M382 0H0V434H382V0Z" fill="#E5E5E5"/>
<g id="a 2">
<path id="Vector_2" d="M382 0H0V434H382V0Z" fill="white"/>
<g id="a 1">
<g id="hand-r">
<g id="palm-r">
<path id="metacarpal-lower-r" d="M74.94 300.71C71.41 297.04 64.75 300.48 63.39 305.46C62.03 310.44 64.12 315.63 66.17 320.35C77.13 345.59 88.0866 370.837 99.04 396.09C101.96 402.83 105.99 410.47 113.04 411.53C117.32 412.17 121.51 410.12 125.38 408.12C141.04 400.04 156.84 391.86 170.38 380.44C175.54 376.09 180.38 371.31 185.12 366.52C216.64 334.93 248.63 301.39 263.64 258.79C264.839 255.787 265.564 252.616 265.79 249.39C266.04 240.98 260.36 233.78 254.99 227.39C254.57 220.84 247.82 212.92 241.74 210.98C235.66 209.04 229.03 210.08 223.04 212.26C217.05 214.44 211.49 217.72 205.67 220.37C197.91 223.92 189.67 226.37 182.11 230.32C172.2 235.47 163.67 243.02 154.22 249.03C141.22 257.32 126.55 262.6 113.22 270.34C98.33 279.02 87.93 289.24 74.94 300.71Z" fill="#E5B0A5"/>
<path id="index-metacarpal-r" d="M191.06 250C202.42 249.1 217.83 248.2 227.14 240.51C235.7 233.45 241.7 231.39 245.4 219.98C248.88 209.23 250.58 196.63 243.4 187.11C237.61 179.47 227.86 176.54 218.66 176.02C208.663 175.48 198.676 177.246 189.47 181.18C186.07 182.63 182.68 184.45 180.35 187.45C178.706 189.78 177.481 192.379 176.73 195.13C172.6 208.179 171.636 222.025 173.92 235.52C174.74 240.39 176.29 245.64 180.24 248.26C183.36 250.37 187.35 250.29 191.06 250Z" fill="#E5B0A5"/>
<path id="metacarpal-upper-r" d="M169.97 180.55C166.601 180.987 163.307 181.882 160.18 183.21C152.01 187.13 145.01 192.09 136.56 195.72C127.157 199.751 118.088 204.523 109.44 209.99C103.07 214.013 96.9485 218.418 91.11 223.18C90.7718 224.112 90.1948 224.939 89.4366 225.577C88.6785 226.216 87.7658 226.645 86.79 226.82C79.0447 233.528 71.9069 240.906 65.46 248.87C62.3999 252.439 59.8243 256.397 57.8 260.64C52.08 273.64 56.26 288.47 61.14 301.81C61.75 303.47 62.48 305.27 64.14 306.18C65.62 307 67.49 306.88 69.22 306.68C84.58 304.81 98.42 297.55 111.81 290.43C141.72 274.54 177.88 261.52 196.41 233.43C208.44 215.14 199.03 175.39 169.97 180.55Z" fill="#E5B0A5"/>
<path id="carpal-r" d="M107.89 407.46C107.77 418.31 116.52 427.62 126.49 431.22C136.46 434.82 147.39 433.87 157.86 432.45C169.74 430.837 181.53 428.663 193.23 425.93C203.06 423.64 212.33 422.59 222.23 420.61C234.81 418.08 248.55 414.84 256.29 404.34C258.925 400.458 260.948 396.195 262.29 391.7C265.87 381.15 268.01 368.84 262.29 359.31C258.58 353.09 251.98 349.1 245.09 347.31C238.2 345.52 230.97 345.72 223.88 346.31C195.718 348.651 168.347 356.798 143.49 370.24C129.14 378.01 115.27 387.93 106.82 402.15C105.4 404.65 106.21 405.09 107.89 407.46Z" fill="#E5B0A5"/>
<path id="thumb-metacarpal-r" d="M189.994 407.12C192.143 413.961 198.235 418.904 204.758 420.873C211.28 422.842 218.177 422.261 224.749 420.945C243.866 417.036 261.346 407.414 274.877 393.354C280.024 388.056 281.141 378.076 282.964 370.654C290.033 342.082 295.78 313.15 300.205 283.856C301.187 277.367 302.099 270.669 300.584 264.214C299.068 257.76 294.506 251.58 288.363 250.405C284.214 249.6 278.811 245.063 274.643 245.371C271.93 245.578 267.262 245.099 264.541 245.052C261.23 244.998 257.921 245.222 254.647 245.721C248.664 246.922 243.036 247.179 238.673 251.607C234.31 256.036 231.556 261.919 228.867 267.684L209.273 309.883C200.549 328.593 191.808 347.36 185.431 367.159C184.03 371.527 182.726 376.048 182.92 380.694C183.196 384.302 183.987 387.852 185.269 391.236C187.245 397.112 188.13 401.197 189.994 407.12Z" fill="#E5B0A5"/>
</g>
<g id="pinkie-r">
<path id="proximal-5-r" d="M88.9986 261.388C88.9736 259.031 88.7641 256.679 88.3715 254.345C88.3055 253.958 88.23 253.545 88.1499 253.147C87.7098 253.212 87.2558 253.154 86.8607 252.982C86.4656 252.81 86.1524 252.535 85.9713 252.2C85.4247 251.236 85.0256 250.221 84.783 249.177C84.7453 249.127 84.7123 249.076 84.6793 249.022C83.8965 247.638 83.175 246.243 82.4535 244.844C82.1534 244.656 81.9191 244.407 81.7745 244.121C81.1143 242.919 80.2655 241.771 79.5441 240.58C79.379 240.48 79.214 240.379 79.0395 240.286C77.4315 239.409 75.4934 238.845 73.5789 239.038C72.5286 239.181 71.5069 239.442 70.5422 239.811C68.8634 240.383 67.1989 240.981 65.5484 241.605C64.9508 241.786 64.4143 242.082 63.9829 242.467C63.6611 242.846 63.4542 243.284 63.3793 243.742C62.9455 245.644 62.6107 247.194 63.9829 248.767C66.9828 252.222 69.2969 256.045 70.8392 260.093C71.6597 262.254 72.2775 264.503 73.6921 266.447C75.1068 268.392 77.54 270.023 80.2938 270C81.4143 269.954 82.5173 269.754 83.557 269.408C84.4752 269.173 85.3448 268.825 86.1363 268.376C88.6308 266.842 89.0269 263.958 88.9986 261.388Z" fill="#E0674E"/>
<path id="intermediate-5-r" d="M87.9982 228.08C90.8402 233.644 93.1789 239.45 94.9863 245.43C95.0842 249.687 96.3963 252 96.3963 258.1C96.3963 263.5 96.4707 269.657 92.3657 272.285C90.8472 273.266 88.8776 273.304 86.9955 273.324L72.8031 273.401C69.845 273.429 66.5022 273.277 64.2524 271.103C63.2691 270.044 62.4693 268.828 61.8858 267.506L55.9711 255.843C52.65 249.292 49.2194 241.86 51.2194 235.289C51.4346 234.498 51.783 233.749 52.2496 233.075C53.4791 231.405 55.4767 230.708 57.4379 230.077C63.433 228.177 69.5314 226.62 75.7033 225.412C79.5082 224.665 83.8281 224.199 87.4331 225.749C87.4212 226.561 87.6156 227.363 87.9982 228.08Z" fill="#E0674E"/>
<path id="distal-5-r" d="M100.711 270.074C103.918 277.67 105.76 285.771 106.154 294.006C106.312 297.614 106.162 301.362 104.525 304.551C101.559 310.318 94.1379 312.746 87.7986 311.378C83.6651 310.363 79.8717 308.277 76.7996 305.331C73.5142 299.968 70.624 294.373 68.1519 288.589C64.8232 280.172 64.4175 270.939 61 262.49C61.771 258.792 63.7173 255.443 66.5483 252.942C69.4123 250.453 72.9894 248.981 76.5116 247.553C77.9739 246.885 79.5139 246.402 81.0958 246.114C84.6147 245.618 89.1013 246.817 92.3965 248.217C93.339 255.918 97.6638 262.837 100.711 270.074Z" fill="#E0674E"/>
</g>
<g id="ring-r">
<path id="proximal-4-r" d="M131.998 226.526C131.882 220.732 129.912 214.986 126.166 209.517C125.673 208.72 124.96 207.964 124.048 207.271C123.753 207.236 123.468 207.182 123.2 207.109C122.592 206.925 122.141 206.631 121.935 206.286C121.179 206.084 120.334 205.986 119.482 206.002C116.466 206.027 113.801 206.952 111.387 207.874C109.492 208.594 107.557 209.383 106.626 210.49C105.316 212.058 106.314 213.851 107.328 215.474C109.085 218.289 112.318 220.771 113.043 223.751C113.138 224.129 113.238 224.516 113.349 224.906C113.974 227.047 115.072 229.284 118.306 230.772C121.539 232.261 126.936 232.506 129.79 230.895C131.814 229.751 132.026 228.074 131.998 226.526Z" fill="#E0674E"/>
<path id="intermediate-4-r" d="M136.5 214.5C133.937 209.442 134 197.012 128.356 194.452C127.399 194.471 126.446 194.565 125.504 194.735L111.346 197.012C106.274 197.818 100.664 198.952 97.7019 203.136C94.2266 208.037 95.9567 214.781 97.8442 220.504C100.442 228.427 103.041 236.345 105.641 244.258C106.131 245.962 106.808 247.606 107.66 249.16C108.07 249.828 108.549 250.45 109.091 251.015C109.484 251.288 109.836 251.615 110.136 251.987C118.124 258.678 136.617 258.817 141.046 249.272C145.601 239.461 138.325 225.488 136.5 214.5Z" fill="#E0674E"/>
<path id="distal-4-r" d="M138.16 232.968C138.984 238.478 142.669 245.424 144.812 250.566C145.558 252.229 146.171 253.949 146.647 255.71C146.965 257.161 147.188 258.632 147.315 260.113L148.743 273.097C149.321 278.355 149.955 283.226 145.813 286.505C144.47 287.469 142.994 288.232 141.431 288.77C138.566 290.064 135.537 290.957 132.429 291.424C129.369 291.69 126.294 291.132 123.523 289.808C120.751 288.485 118.384 286.443 116.668 283.897C111.478 275.976 109.383 266.439 108.489 257.014C108.301 254.937 108.219 252.846 107.83 250.801C107.419 248.575 106.79 245.173 106 242.137C106.213 241.42 106.249 240.662 106.105 239.928C106.47 238.922 106.49 237.823 106.162 236.804C106.521 236.137 106.735 235.401 106.788 234.644C106.771 234.62 106.756 234.594 106.744 234.566C108.671 232.583 110.996 231.031 113.567 230.012C116.138 228.992 118.895 228.53 121.658 228.654C123.823 228.783 126.029 229.268 128.118 228.716C130.208 228.164 132.126 226.64 134.213 227.078C136.722 227.53 137.788 230.466 138.16 232.968Z" fill="#E0674E"/>
</g>
<g id="middle-r">
<path id="proximal-3-r" d="M174.842 194.015C173.009 193.513 173.485 192.785 172.26 192.204C171.19 191.692 168.86 191.337 166.369 191.152C158.595 190.572 149.036 191.717 147.343 193.431C146.552 194.231 147.28 195.067 148.008 195.864L156.439 205.188C156.999 205.804 157.839 206.503 160.484 206.782C162.618 207.007 166.865 207.026 169.237 206.979C171.61 206.931 174.017 206.732 175.535 206.336C177.746 205.752 180.979 204.849 181 204.092C181 203.47 180.097 202.86 180.013 202.237C180.013 202.01 180.069 201.781 179.943 201.555C179.728 201.28 179.4 201.01 178.964 200.747C178.139 200.158 177.71 199.548 177.69 198.934C177.69 198.183 177.2 197.497 177.228 196.746C177.228 196.196 177.228 195.637 176.571 195.11C176.116 194.787 174.891 194.347 174.842 194.015Z" fill="#E0674E"/>
<path id="intermediate-3-r" d="M156.426 247.843C154.188 245.283 152.911 242.031 151.861 238.798C149.692 231.538 147.994 224.146 146.775 216.668L143.646 199.853C143.204 197.465 142.769 194.922 143.638 192.65C144.827 189.524 148.095 187.768 151.165 186.452C154.653 184.964 158.227 183.689 161.869 182.635C166.353 181.345 171.449 180.471 175.459 182.853C180.255 185.694 181.549 191.928 182.382 197.448C183.77 206.685 185.122 216.015 186.588 225.282C187.331 229.912 189.738 235.989 188.516 240.685C185.336 253.035 164.498 257.457 156.426 247.843Z" fill="#E0674E"/>
<path id="distal-3-r" d="M165.664 280.042C162.231 278.29 160.07 274.874 158.373 271.394C155.304 265.236 153.06 258.701 151.697 251.957C150.69 246.93 150.354 241.199 153.649 237.297C155.462 235.151 158.107 233.915 160.706 232.842C166.038 230.661 171.533 228.903 177.14 227.583C180.958 226.667 185.928 226.441 187.814 229.88C188.406 231.19 191.479 246.702 191.436 248.138V264.138C191.93 275.668 181.616 288.076 165.664 280.042Z" fill="#E0674E"/>
</g>
<g id="index-r">
<path id="proximal-2-r" d="M235.94 200.088L233.763 188.733C233.529 187.533 233.763 187.471 232.533 186.371C233.025 185.558 231.524 184.718 229.599 184.351C227.673 183.985 225.435 183.979 223.295 184.013C220.551 184.059 217.758 184.155 215.212 184.551C212.768 184.901 210.761 185.603 209.603 186.513C209.787 187.261 209.929 188.01 209.954 188.763C209.97 188.975 209.838 189.184 209.572 189.368C209.672 189.55 209.673 189.738 209.574 189.919C209.476 190.102 209.28 190.274 209 190.424C209.336 193.895 209.679 197.364 210.027 200.834C210.187 202.48 210.433 204.224 212.832 205.579C215.163 205.757 216.523 206.577 218.755 206.899C219.936 207.034 221.19 207.034 222.372 206.899C226.354 206.56 230.01 205.791 232.926 204.68C235.583 203.667 236.217 201.539 235.94 200.088Z" fill="#68B6CE"/>
<path id="intermediate-2-r" d="M241.87 203.5C240.41 216.6 238.963 212.186 237.51 225.286C236.95 230.286 236.14 235.796 232.3 239.056C228.21 242.536 222.21 242.176 216.89 241.506C211.57 240.836 205.24 239.386 202.97 234.436C201.57 231.376 202.15 227.816 202.55 224.436C203.423 217.05 203.238 209.579 202 202.246C202.34 194.396 203.65 186.606 204.25 178.756L204.35 178.686C205.658 178.116 207.081 175.85 208.5 176C217.798 176.229 225 174 236.28 180.476C238.57 180.826 241.28 181.616 241.87 183.876C241.994 184.573 241.987 202.801 241.87 203.5Z" fill="#68B6CE"/>
<path id="distal-2-r" d="M202.873 231.463C202.856 229.565 203.115 227.676 203.643 225.853C205.043 221.693 209.053 218.853 213.303 217.713C217.553 216.573 222.033 217.003 226.383 217.603C231.683 218.343 237.753 220.013 239.833 224.953C241.223 228.273 236.92 251.03 236 254.5L233 266C230.73 274.56 220.053 276.963 208.843 272.053C199.023 267.723 202.563 240.173 202.873 231.463Z" fill="#68B6CE"/>
</g>
<g id="thumb-r" filter="url(#filter0_d_0_1)">
<path id="proximal-1-r" d="M225.114 210.934C219.947 213.103 214.528 216.803 213.22 222.403C211.586 229.34 216.866 235.123 220.963 240.357C229.111 250.763 233.78 263.775 241.035 274.9C248.29 286.025 259.624 295.703 273.008 294.615C274.413 295.881 277.464 293.512 279.22 292.439C284.187 289.541 289.126 286.21 293.077 281.832C297.029 277.454 300.016 271.869 300.277 266.042C300.377 264.65 300.227 263.25 299.831 261.91C299.088 260.044 297.978 258.346 296.567 256.917L291.647 251.229C281.254 239.254 270.759 229.646 263.307 215.412C261.249 211.488 259.226 207.344 255.715 204.808C250.3 200.89 242.798 201.762 235.978 202.775C231.834 203.399 227.317 204.211 224.357 207.477C221.614 210.51 220.811 215.061 217.82 217.823" fill="#68B6CE"/>
<path id="distal-1-r" d="M176.055 205.822C174.082 211.996 176.903 218.831 181.491 223.414C186.078 227.999 192.064 230.74 197.921 233.387L200.133 234.39C200.668 234.223 201.234 234.173 201.791 234.246C202.346 234.318 202.881 234.509 203.357 234.808C204.399 235.432 205.422 236.079 206.423 236.722C219.401 244.586 236.595 247.634 251.666 247.796C254.402 247.19 256.891 245.962 257.949 243.483C258.386 242.264 258.583 240.971 258.528 239.677C258.706 223.525 246.65 208.046 230.94 204.272C215.75 200.606 199.423 207.009 184.337 203.001C182.077 202.414 179.447 201.646 177.631 203.099C176.847 203.83 176.298 204.778 176.055 205.822Z" fill="#68B6CE"/>
</g>
</g>
</g>
</g>
</g>
<defs>
<filter id="filter0_d_0_1" x="171.417" y="201.916" width="132.89" height="101.062" filterUnits="userSpaceOnUse" color-interpolation-filters="sRGB">
<feFlood flood-opacity="0" result="BackgroundImageFix"/>
<feColorMatrix in="SourceAlpha" type="matrix" values="0 0 0 0 0 0 0 0 0 0 0 0 0 0 0 0 0 0 127 0" result="hardAlpha"/>
<feOffset dy="4"/>
<feGaussianBlur stdDeviation="2"/>
<feComposite in2="hardAlpha" operator="out"/>
<feColorMatrix type="matrix" values="0 0 0 0 0 0 0 0 0 0 0 0 0 0 0 0 0 0 0.25 0"/>
<feBlend mode="normal" in2="BackgroundImageFix" result="effect1_dropShadow_0_1"/>
<feBlend mode="normal" in="SourceGraphic" in2="effect1_dropShadow_0_1" result="shape"/>
</filter>
</defs>
</svg>
