<svg width="382" height="438" viewBox="0 0 382 438" fill="none" xmlns="http://www.w3.org/2000/svg">
<rect width="382" height="438" fill="white"/>
<g id="w 2" clip-path="url(#clip0_0_1)">
<g id="w 1">
<g id="hand-colored-r 1">
<g id="hand-r">
<g id="palm-r">
<path id="metacarpal-lower-r" d="M74.94 304.71C71.41 301.04 64.75 304.48 63.39 309.46C62.03 314.44 64.12 319.63 66.17 324.35C77.13 349.59 88.0866 374.837 99.04 400.09C101.96 406.83 105.99 414.47 113.04 415.53C117.32 416.17 121.51 414.12 125.38 412.12C141.04 404.04 156.84 395.86 170.38 384.44C175.54 380.09 180.38 375.31 185.12 370.52C216.64 338.93 248.63 305.39 263.64 262.79C264.839 259.787 265.564 256.616 265.79 253.39C266.04 244.98 260.36 237.78 254.99 231.39C254.57 224.84 247.82 216.92 241.74 214.98C235.66 213.04 229.03 214.08 223.04 216.26C217.05 218.44 211.49 221.72 205.67 224.37C197.91 227.92 189.67 230.37 182.11 234.32C172.2 239.47 163.67 247.02 154.22 253.03C141.22 261.32 126.55 266.6 113.22 274.34C98.33 283.02 87.93 293.24 74.94 304.71Z" fill="#E5B0A5"/>
<path id="index-metacarpal-r" d="M191.06 254C202.42 253.1 217.83 252.2 227.14 244.51C235.7 237.45 241.7 235.39 245.4 223.98C248.88 213.23 250.58 200.63 243.4 191.11C237.61 183.47 227.86 180.54 218.66 180.02C208.663 179.48 198.676 181.246 189.47 185.18C186.07 186.63 182.68 188.45 180.35 191.45C178.706 193.78 177.481 196.379 176.73 199.13C172.6 212.179 171.636 226.025 173.92 239.52C174.74 244.39 176.29 249.64 180.24 252.26C183.36 254.37 187.35 254.29 191.06 254Z" fill="#E5B0A5"/>
<path id="metacarpal-upper-r" d="M169.97 184.55C166.601 184.987 163.307 185.882 160.18 187.21C152.01 191.13 145.01 196.09 136.56 199.72C127.157 203.751 118.088 208.523 109.44 213.99C103.07 218.013 96.9485 222.418 91.11 227.18C90.7718 228.112 90.1948 228.939 89.4366 229.577C88.6785 230.216 87.7658 230.645 86.79 230.82C79.0447 237.528 71.9069 244.906 65.46 252.87C62.3999 256.439 59.8243 260.397 57.8 264.64C52.08 277.64 56.26 292.47 61.14 305.81C61.75 307.47 62.48 309.27 64.14 310.18C65.62 311 67.49 310.88 69.22 310.68C84.58 308.81 98.42 301.55 111.81 294.43C141.72 278.54 177.88 265.52 196.41 237.43C208.44 219.14 199.03 179.39 169.97 184.55Z" fill="#E5B0A5"/>
<path id="carpal-r" d="M107.89 411.46C107.77 422.31 116.52 431.62 126.49 435.22C136.46 438.82 147.39 437.87 157.86 436.45C169.74 434.837 181.53 432.663 193.23 429.93C203.06 427.64 212.33 426.59 222.23 424.61C234.81 422.08 248.55 418.84 256.29 408.34C258.925 404.458 260.948 400.195 262.29 395.7C265.87 385.15 268.01 372.84 262.29 363.31C258.58 357.09 251.98 353.1 245.09 351.31C238.2 349.52 230.97 349.72 223.88 350.31C195.718 352.651 168.347 360.798 143.49 374.24C129.14 382.01 115.27 391.93 106.82 406.15C105.4 408.65 106.21 409.09 107.89 411.46Z" fill="#E5B0A5"/>
<path id="thumb-metacarpal-r" d="M198.601 412.517C202.455 417.109 209.494 418.533 216.136 417.393C222.778 416.253 229.084 412.912 234.889 409.116C251.751 398.01 265.542 383.005 274.439 366.087C277.837 359.692 276.199 351.222 275.91 344.509C274.848 318.646 272.449 293.044 268.715 267.704C267.889 262.09 266.941 256.337 263.785 251.792C260.629 247.247 254.691 244.192 248.618 245.812C244.514 246.896 238.23 245.509 234.408 247.494C231.921 248.791 227.417 250.354 224.855 251.45C221.739 252.787 218.697 254.346 215.764 256.112C210.48 259.57 205.276 262.121 202.378 267.492C199.481 272.864 198.483 278.73 197.515 284.475L190.507 326.49C187.366 345.134 184.223 363.83 183.574 382.369C183.437 386.457 183.431 390.626 184.862 394.272C186.092 397.051 187.788 399.568 189.9 401.748C193.333 405.636 195.261 408.545 198.601 412.517Z" fill="#E5B0A5"/>
</g>
<g id="pinkie-r">
<path id="proximal-5-r" d="M78.559 237.464C78.7024 237.555 78.7868 237.765 78.8118 238.093C78.8156 238.148 78.8181 238.21 78.8182 238.275C78.6739 238.558 78.533 238.854 78.4182 239.116C78.3034 239.378 78.2214 239.589 78.1853 239.717C78.0732 240.102 78.0113 240.393 78.0011 240.583C77.9923 240.61 77.985 240.632 77.978 240.656C77.8177 241.207 77.6776 241.719 77.5377 242.231C77.4542 242.431 77.3957 242.591 77.3679 242.694C77.235 243.16 77.0384 243.747 76.8852 244.252C76.8391 244.363 76.793 244.473 76.7434 244.589C76.2877 245.659 75.7068 246.934 75.0848 248.17C74.7411 248.846 74.399 249.501 74.0681 250.115C73.4967 251.185 72.9282 252.246 72.3626 253.297C72.1606 253.679 71.9708 254.017 71.8087 254.285C71.6818 254.482 71.5878 254.602 71.5345 254.636C71.2742 254.857 71.068 255.026 71.4039 254.086C72.1371 252.032 72.6284 250.41 72.8595 249.282C72.9819 248.682 73.0341 248.21 73.3597 247.231C73.6852 246.253 74.3552 244.623 75.2336 242.838C75.5934 242.113 75.9575 241.404 76.3108 240.74C76.6183 240.152 76.9176 239.599 77.1984 239.1C78.0914 237.531 78.4028 237.365 78.559 237.464Z" fill="#E0674E"/>
<path id="intermediate-5-r" d="M88.3928 230.016C93.3582 233.807 97.9744 238.035 102.187 242.649C104.113 246.445 106.369 250.066 108.929 253.467C109.331 258.433 113.986 263.86 111.417 268.002C110.472 269.543 108.711 270.428 107.022 271.258L94.2542 277.455C91.5981 278.758 88.5172 280.064 85.5494 279.074C84.2048 278.543 82.9592 277.793 81.8617 276.852L71.4911 268.885C65.6672 264.41 59.3639 259.188 58.331 252.397C58.1833 251.591 58.1743 250.765 58.3044 249.956C58.6922 247.918 60.193 246.427 61.69 245.012C66.2777 240.71 71.1056 236.672 76.1509 232.917C79.2603 230.6 82.9557 228.315 86.8767 228.157C87.2164 228.895 87.738 229.534 88.3928 230.016Z" fill="#E0674E"/>
<path id="distal-5-r" d="M127.2 274.248C133.372 279.715 138.532 286.227 142.442 293.485C144.142 296.67 145.625 300.116 145.526 303.699C145.34 310.181 139.695 315.575 133.386 317.079C129.22 317.947 124.898 317.704 120.854 316.373C115.576 312.954 110.553 309.155 105.826 305.006C99.1895 298.851 94.8373 290.698 88.1069 284.552C87.2055 280.884 87.5151 277.022 88.9889 273.544C90.4978 270.063 93.0888 267.191 95.649 264.382C96.6794 263.148 97.8603 262.047 99.1629 261.105C102.123 259.138 106.687 258.282 110.264 258.122C114.439 264.662 121.327 269.035 127.2 274.248Z" fill="#E0674E"/>
</g>
<g id="ring-r">
<path id="proximal-4-r" d="M123.727 200.905C139.739 213.478 153.588 228.583 164.729 245.621C166.407 248.028 167.733 250.663 168.668 253.443C168.442 253.937 168.282 254.46 168.194 254.995C168.041 256.254 168.364 257.525 169.101 258.557C168.837 260.063 168.186 261.474 167.212 262.654C163.843 266.888 158.354 268.697 153.146 270.155C149.067 271.309 144.757 272.371 140.654 271.324C134.854 269.829 130.95 264.57 127.541 259.653C121.62 251.128 118.242 241.215 110.733 233.803C109.783 232.858 108.814 231.886 107.85 230.893C102.571 225.422 97.5407 219.069 96.9286 211.283C96.3178 203.497 101.536 195.299 109.143 194.69C114.543 194.262 119.444 197.55 123.727 200.905Z" fill="#E0674E"/>
<path id="intermediate-4-r" d="M120.791 199.641C121.435 200.477 122.332 201.083 123.348 201.368L123.127 201.311C123.338 201.373 123.545 201.448 123.748 201.537C123.97 201.707 124.192 201.878 124.414 202.048C125.024 202.51 125.735 202.823 126.487 202.961C128.698 206.761 131.372 210.271 134.449 213.409C140.408 222.821 153.193 231.981 152.817 242.792C152.451 253.308 135.361 260.377 125.399 257.322C124.978 257.096 124.527 256.932 124.059 256.834C123.34 256.524 122.656 256.137 122.019 255.682C120.629 254.582 119.366 253.331 118.251 251.953C112.775 245.675 107.3 239.392 101.824 233.105C97.8578 228.568 93.6396 223.029 94.9334 217.162C96.0332 212.155 100.761 208.927 105.119 206.211L117.274 198.603C118.075 198.08 118.917 197.622 119.791 197.233C119.917 198.107 120.261 198.935 120.791 199.641Z" fill="#E0674E"/>
<path id="distal-4-r" d="M155.81 246.002C158.714 250.757 164.811 255.722 168.787 259.623C170.121 260.866 171.356 262.212 172.479 263.648C173.337 264.861 174.115 266.129 174.808 267.444L181.177 278.848C183.756 283.467 186.236 287.707 183.696 292.339C182.834 293.75 181.771 295.028 180.541 296.132C178.406 298.439 175.963 300.44 173.282 302.08C170.566 303.515 167.517 304.198 164.449 304.058C161.381 303.917 158.406 302.958 155.834 301.28C147.97 296.004 142.329 288.034 137.838 279.7C136.855 277.86 135.966 275.965 134.813 274.234C133.567 272.343 131.663 269.454 129.755 266.965C129.672 266.221 129.41 265.509 128.992 264.89C128.937 263.821 128.527 262.8 127.828 261.989C127.899 261.235 127.809 260.473 127.565 259.756C127.539 259.74 127.515 259.722 127.493 259.701C128.496 257.124 130.034 254.789 132.006 252.85C133.977 250.911 136.337 249.411 138.93 248.451C140.974 247.727 143.196 247.316 144.906 245.994C146.616 244.672 147.789 242.522 149.883 242.113C152.37 241.553 154.494 243.842 155.81 246.002Z" fill="#E0674E"/>
</g>
<g id="middle-r">
<path id="proximal-3-r" d="M190.28 129.433C188.253 125.667 189.73 120.956 188.649 116.811C187.708 113.166 184.817 110.26 181.511 108.449C171.196 102.77 156.453 108.112 152.166 119.075C150.164 124.195 150.263 129.91 150.405 135.368L151.95 199.187C152.057 203.402 152.465 208.235 155.883 210.713C158.642 212.705 164.608 213.835 168.004 214.078C171.4 214.322 175.014 213.567 177.593 211.302C181.358 207.947 186.916 202.722 187.785 197.707C188.475 193.584 187.879 189.327 188.451 185.175C188.704 183.666 189.037 182.16 189.11 180.631C189.11 178.759 188.948 176.889 188.624 175.045C188.115 170.948 188.187 166.799 188.84 162.721C189.673 157.741 189.743 153.078 190.615 148.104C191.225 144.455 191.845 140.746 191.502 137.1C191.219 134.852 189.981 131.644 190.28 129.433Z" fill="#E0674E"/>
<path id="intermediate-3-r" d="M151.366 57.1044C149.844 60.145 149.426 63.6135 149.224 67.0066C148.951 74.5784 149.167 82.1598 149.869 89.7039L151.071 106.766C151.244 109.188 151.463 111.759 152.876 113.739C154.813 116.466 158.418 117.342 161.72 117.844C165.47 118.407 169.25 118.741 173.04 118.845C177.704 118.966 182.857 118.529 186.138 115.215C190.064 111.259 189.749 104.899 189.167 99.3474C188.185 90.0583 187.146 80.6887 186.234 71.3503C185.788 66.6828 186.589 60.196 184.225 55.9582C178.04 44.8053 156.76 45.7687 151.366 57.1044Z" fill="#E0674E"/>
<path id="distal-3-r" d="M150.445 6.65149C147.563 9.21126 146.332 13.0608 145.565 16.8564C144.144 23.5883 143.616 30.478 143.994 37.3479C144.284 42.4658 145.4 48.097 149.571 51.0453C151.865 52.6659 154.737 53.1968 157.522 53.5814C163.231 54.3502 168.991 54.6694 174.75 54.536C178.676 54.4625 183.543 53.431 184.503 49.6273C184.746 48.2112 184.663 46.7583 184.261 45.3791L184.63 12.368C182.208 1.08401 163.863 -5.13689 150.445 6.65149Z" fill="#E0674E"/>
</g>
<g id="index-r">
<path id="proximal-2-r" d="M232.398 184.823L230.657 137.392C230.467 132.382 230.856 132.137 229.032 127.484C229.959 124.126 227.654 120.536 224.585 118.889C221.515 117.241 217.879 117.083 214.396 117.091C209.932 117.112 205.38 117.339 201.18 118.831C197.155 120.14 193.782 122.941 191.756 126.658C191.938 129.787 192.049 132.914 191.97 136.053C191.963 136.934 191.716 137.797 191.254 138.548C191.389 139.312 191.36 140.094 191.17 140.845C190.981 141.597 190.637 142.3 190.158 142.91C190.156 157.387 190.163 171.861 190.18 186.332C190.179 193.196 190.303 200.476 193.986 206.271C197.746 207.154 199.823 210.655 203.4 212.132C205.298 212.764 207.336 212.842 209.276 212.355C215.798 211.186 221.862 208.209 226.775 203.763C231.252 199.711 232.617 190.886 232.398 184.823Z" fill="#68B6CE"/>
<path id="intermediate-2-r" d="M229.755 123.979C228.794 110.833 227.835 97.687 226.88 84.5411C226.51 79.5236 225.91 73.9866 222.197 70.5832C218.242 66.9506 212.232 67.0827 206.891 67.5502C201.549 68.0177 195.169 69.2265 192.713 74.0866C191.198 77.0913 191.641 80.671 191.914 84.0634C192.505 91.4766 192.037 98.9359 190.521 106.217C190.563 114.074 191.576 121.908 191.878 129.775L191.976 129.849C193.261 130.467 194.684 130.742 196.108 130.646C205.408 130.771 214.707 130.312 223.95 129.273C226.252 129.01 228.99 128.323 229.665 126.086C229.815 125.394 229.845 124.681 229.755 123.979Z" fill="#68B6CE"/>
<path id="distal-2-r" d="M188.429 59.8737C188.339 61.7694 188.527 63.6678 188.985 65.5092C190.226 69.7193 194.126 72.7093 198.329 74.01C202.533 75.3104 207.026 75.0508 211.395 74.6164C216.72 74.0779 222.849 72.6395 225.115 67.7823C226.63 64.5173 225.864 60.7055 225.077 57.203L221.791 28.8022C219.847 20.1624 207.323 15.0588 195.936 19.5397C185.958 23.4938 188.45 51.1584 188.429 59.8737Z" fill="#68B6CE"/>
</g>
<g id="thumb-r">
<path id="proximal-1-r" d="M180.736 263.318C177.171 267.642 174.096 273.438 175.544 279.004C177.326 285.905 184.691 288.565 190.752 291.292C202.806 296.712 212.993 306.057 224.592 312.529C236.191 319 250.726 322.292 262.067 315.101C263.899 315.569 265.498 312.052 266.553 310.285C269.6 305.409 272.422 300.162 273.883 294.448C275.344 288.735 275.389 282.401 272.908 277.122C272.349 275.843 271.565 274.674 270.591 273.672C269.065 272.366 267.293 271.379 265.378 270.771L258.377 268.025C243.605 262.261 229.845 258.641 216.626 249.509C212.978 246.994 209.259 244.266 204.971 243.656C198.355 242.708 192.121 246.97 186.555 251.041C183.178 253.521 179.557 256.342 178.457 260.61C177.44 264.571 178.847 268.973 177.485 272.81" fill="#68B6CE"/>
<path id="distal-1-r" d="M121.863 276.615C122.961 283.002 128.616 287.765 134.801 289.716C140.985 291.667 147.562 291.338 153.979 290.984L156.404 290.855C156.803 290.459 157.281 290.154 157.809 289.961C158.335 289.768 158.898 289.692 159.457 289.737C160.67 289.811 161.876 289.913 163.06 290.021C178.204 291.013 194.864 285.784 208.31 278.976C210.459 277.177 212.101 274.938 211.896 272.25C211.722 270.967 211.3 269.729 210.653 268.607C203.362 254.193 185.525 246.022 169.845 249.92C154.677 253.676 143.144 266.889 127.91 270.291C125.634 270.812 122.946 271.345 122.004 273.472C121.646 274.482 121.597 275.577 121.863 276.615Z" fill="#68B6CE"/>
</g>
</g>
</g>
</g>
</g>
<defs>
<clipPath id="clip0_0_1">
<rect width="382" height="438" fill="white"/>
</clipPath>
</defs>
</svg>
