<svg width="382" height="434" viewBox="0 0 382 434" fill="none" xmlns="http://www.w3.org/2000/svg">
<rect width="382" height="434" fill="#E5E5E5"/>
<g id="a 3" clip-path="url(#clip0_0_1)">
<path id="Vector" d="M382 0H0V434H382V0Z" fill="#E5E5E5"/>
<g id="a 2">
<path id="Vector_2" d="M382 0H0V434H382V0Z" fill="white"/>
<g id="a 1">
<g id="hand-r">
<g id="palm-r">
<path id="metacarpal-lower-r" d="M74.94 300.71C71.41 297.04 64.75 300.48 63.39 305.46C62.03 310.44 64.12 315.63 66.17 320.35C77.13 345.59 88.0866 370.837 99.04 396.09C101.96 402.83 105.99 410.47 113.04 411.53C117.32 412.17 121.51 410.12 125.38 408.12C141.04 400.04 156.84 391.86 170.38 380.44C175.54 376.09 180.38 371.31 185.12 366.52C216.64 334.93 248.63 301.39 263.64 258.79C264.839 255.787 265.564 252.616 265.79 249.39C266.04 240.98 260.36 233.78 254.99 227.39C254.57 220.84 247.82 212.92 241.74 210.98C235.66 209.04 229.03 210.08 223.04 212.26C217.05 214.44 211.49 217.72 205.67 220.37C197.91 223.92 189.67 226.37 182.11 230.32C172.2 235.47 163.67 243.02 154.22 249.03C141.22 257.32 126.55 262.6 113.22 270.34C98.33 279.02 87.93 289.24 74.94 300.71Z" fill="#E5B0A5"/>
<path id="index-metacarpal-r" d="M191.06 250C202.42 249.1 217.83 248.2 227.14 240.51C235.7 233.45 241.7 231.39 245.4 219.98C248.88 209.23 250.58 196.63 243.4 187.11C237.61 179.47 227.86 176.54 218.66 176.02C208.663 175.48 198.676 177.246 189.47 181.18C186.07 182.63 182.68 184.45 180.35 187.45C178.706 189.78 177.481 192.379 176.73 195.13C172.6 208.179 171.636 222.025 173.92 235.52C174.74 240.39 176.29 245.64 180.24 248.26C183.36 250.37 187.35 250.29 191.06 250Z" fill="#E5B0A5"/>
<path id="metacarpal-upper-r" d="M169.97 180.55C166.601 180.987 163.307 181.882 160.18 183.21C152.01 187.13 145.01 192.09 136.56 195.72C127.157 199.751 118.088 204.523 109.44 209.99C103.07 214.013 96.9485 218.418 91.11 223.18C90.7718 224.112 90.1948 224.939 89.4366 225.577C88.6785 226.216 87.7658 226.645 86.79 226.82C79.0447 233.528 71.9069 240.906 65.46 248.87C62.3999 252.439 59.8243 256.397 57.8 260.64C52.08 273.64 56.26 288.47 61.14 301.81C61.75 303.47 62.48 305.27 64.14 306.18C65.62 307 67.49 306.88 69.22 306.68C84.58 304.81 98.42 297.55 111.81 290.43C141.72 274.54 177.88 261.52 196.41 233.43C208.44 215.14 199.03 175.39 169.97 180.55Z" fill="#E5B0A5"/>
<path id="carpal-r" d="M107.89 407.46C107.77 418.31 116.52 427.62 126.49 431.22C136.46 434.82 147.39 433.87 157.86 432.45C169.74 430.837 181.53 428.663 193.23 425.93C203.06 423.64 212.33 422.59 222.23 420.61C234.81 418.08 248.55 414.84 256.29 404.34C258.925 400.458 260.948 396.195 262.29 391.7C265.87 381.15 268.01 368.84 262.29 359.31C258.58 353.09 251.98 349.1 245.09 347.31C238.2 345.52 230.97 345.72 223.88 346.31C195.718 348.651 168.347 356.798 143.49 370.24C129.14 378.01 115.27 387.93 106.82 402.15C105.4 404.65 106.21 405.09 107.89 407.46Z" fill="#E5B0A5"/>
<path id="thumb-metacarpal-r" d="M174.49 393.05C175.04 400.2 179.86 406.39 185.77 409.78C191.68 413.17 198.53 414.16 205.23 414.36C224.736 414.865 243.936 409.435 260.29 398.79C266.5 394.79 269.84 385.32 273.29 378.5C286.623 352.26 298.75 325.37 309.67 297.83C312.09 291.73 314.49 285.41 314.47 278.78C314.45 272.15 311.4 265.1 305.68 262.57C301.82 260.85 297.58 255.21 293.45 254.57C290.76 254.16 286.32 252.64 283.68 251.98C280.467 251.181 277.192 250.652 273.89 250.4C267.79 250.22 262.25 249.2 257 252.53C251.75 255.86 247.74 260.97 243.82 265.98L215.21 302.67C202.49 318.93 189.74 335.24 179.06 353.09C176.71 357.03 174.42 361.14 173.56 365.71C173.015 369.287 172.985 372.924 173.47 376.51C174.07 382.68 174.01 386.86 174.49 393.05Z" fill="#E5B0A5"/>
</g>
<g id="pinkie-r">
<path id="proximal-5-r" d="M87.1044 252.137C87.1909 246.042 86.8861 239.948 86.1919 233.891C86.0748 232.889 85.9393 231.815 85.793 230.782C84.8561 230.929 83.8969 230.757 83.0695 230.293C82.242 229.83 81.5943 229.102 81.2303 228.226C80.1285 225.708 79.3425 223.063 78.8899 220.351C78.8129 220.219 78.7459 220.087 78.6792 219.946C77.1016 216.329 75.6546 212.685 74.2079 209.031C73.5828 208.53 73.1009 207.874 72.8111 207.128C71.4826 203.987 69.7511 200.976 68.292 197.862C67.948 197.594 67.6041 197.326 67.2397 197.078C63.8825 194.73 59.807 193.177 55.7367 193.584C53.5012 193.904 51.3199 194.527 49.2526 195.436C45.6596 196.834 42.0951 198.3 38.5591 199.832C37.2813 200.273 36.1263 201.012 35.1889 201.986C34.4842 202.953 34.0196 204.073 33.8337 205.255C32.8013 210.153 31.9997 214.146 34.8158 218.281C40.9713 227.364 45.651 237.362 48.6812 247.906C50.2928 253.535 51.4692 259.383 54.3533 264.481C57.2373 269.578 62.2994 273.915 68.1392 273.989C70.5174 273.924 72.8678 273.461 75.0924 272.618C77.0532 272.052 78.9174 271.195 80.6221 270.073C86.0016 266.226 87.0122 258.787 87.1044 252.137Z" fill="#E0674E"/>
<path id="intermediate-5-r" d="M63.1972 189.713C62.1231 183.559 60.5008 177.514 58.3495 171.648C55.8688 168.188 53.6969 164.516 51.859 160.676C47.6385 158.029 44.9696 151.396 40.1099 151.765C38.3065 151.894 36.7097 153.047 35.1937 154.163L23.8068 162.635C21.426 164.391 18.8465 166.522 18.3556 169.612C18.2067 171.05 18.2985 172.501 18.6273 173.909L20.9132 186.785C22.198 194.016 23.9252 202.018 29.474 206.066C30.1216 206.569 30.8501 206.957 31.6283 207.215C33.6151 207.811 35.6304 207.167 37.5764 206.491C43.5093 204.405 49.3189 201.983 54.977 199.238C58.4666 197.547 62.1985 195.322 64.147 191.916C63.6492 191.274 63.3223 190.517 63.1972 189.713Z" fill="#E0674E"/>
<path id="distal-5-r" d="M41.8469 134.88C39.8422 126.883 36.4435 119.302 31.807 112.485C29.7646 109.507 27.3905 106.602 24.1655 105.038C18.3286 102.213 10.9389 104.735 6.69552 109.639C4.00309 112.935 2.22578 116.883 1.54218 121.084C2.14146 127.344 3.19608 133.553 4.69771 139.661C7.09855 148.388 12.3254 156.01 14.6745 164.816C17.514 167.308 21.0829 168.814 24.8488 169.11C28.6337 169.377 32.377 168.402 36.0503 167.426C37.6205 167.081 39.1416 166.541 40.5783 165.819C43.6885 164.1 46.5529 160.445 48.3443 157.345C44.4672 150.624 43.7631 142.496 41.8469 134.88Z" fill="#E0674E"/>
</g>
<g id="ring-r">
<path id="proximal-4-r" d="M131.998 226.526C131.882 220.732 129.912 214.986 126.166 209.517C125.673 208.72 124.96 207.964 124.048 207.271C123.753 207.236 123.468 207.182 123.2 207.109C122.592 206.925 122.141 206.631 121.935 206.286C121.179 206.084 120.334 205.986 119.482 206.002C116.466 206.027 113.801 206.952 111.387 207.874C109.492 208.594 107.557 209.383 106.626 210.49C105.316 212.058 106.314 213.851 107.328 215.474C109.085 218.289 112.318 220.771 113.043 223.751C113.138 224.129 113.238 224.516 113.349 224.906C113.974 227.047 115.072 229.284 118.306 230.772C121.539 232.261 126.936 232.506 129.79 230.895C131.814 229.751 132.026 228.074 131.998 226.526Z" fill="#E0674E"/>
<path id="intermediate-4-r" d="M136.5 214.5C133.937 209.442 134 197.012 128.356 194.452C127.399 194.471 126.446 194.565 125.504 194.735L111.346 197.012C106.274 197.818 100.664 198.952 97.7019 203.136C94.2266 208.037 95.9567 214.781 97.8442 220.504C100.442 228.427 103.041 236.345 105.641 244.258C106.131 245.962 106.808 247.606 107.66 249.16C108.07 249.828 108.549 250.45 109.091 251.015C109.484 251.288 109.836 251.615 110.136 251.987C118.124 258.678 136.617 258.817 141.046 249.272C145.601 239.461 138.325 225.488 136.5 214.5Z" fill="#E0674E"/>
<path id="distal-4-r" d="M142.812 253.849C143.636 259.359 147.321 266.305 149.464 271.447C150.21 273.11 150.823 274.83 151.299 276.591C151.617 278.042 151.84 279.513 151.967 280.994L153.395 293.978C153.973 299.236 154.607 304.107 150.465 307.386C149.122 308.35 147.646 309.113 146.083 309.651C143.218 310.945 140.189 311.838 137.081 312.305C134.021 312.571 130.946 312.013 128.175 310.689C125.403 309.366 123.036 307.324 121.32 304.778C116.13 296.857 114.035 287.32 113.141 277.895C112.953 275.818 112.871 273.727 112.482 271.682C112.071 269.456 111.442 266.054 110.652 263.018C110.865 262.301 110.901 261.543 110.757 260.809C111.122 259.803 111.142 258.704 110.814 257.685C111.173 257.018 111.387 256.282 111.44 255.525C111.423 255.501 111.408 255.475 111.396 255.447C113.323 253.464 115.648 251.912 118.219 250.893C120.79 249.873 123.547 249.411 126.31 249.535C128.475 249.664 130.681 250.149 132.77 249.597C134.86 249.045 136.778 247.521 138.865 247.959C141.374 248.411 142.44 251.347 142.812 253.849Z" fill="#E0674E"/>
</g>
<g id="middle-r">
<path id="proximal-3-r" d="M174.842 194.015C173.009 193.513 173.485 192.785 172.26 192.204C171.19 191.692 168.86 191.337 166.369 191.152C158.595 190.572 149.036 191.717 147.343 193.431C146.552 194.231 147.28 195.067 148.008 195.864L156.439 205.188C156.999 205.804 157.839 206.503 160.484 206.782C162.618 207.007 166.865 207.026 169.237 206.979C171.61 206.931 174.017 206.732 175.535 206.336C177.746 205.752 180.979 204.849 181 204.092C181 203.47 180.097 202.86 180.013 202.237C180.013 202.01 180.069 201.781 179.943 201.555C179.728 201.28 179.4 201.01 178.964 200.747C178.139 200.158 177.71 199.548 177.69 198.934C177.69 198.183 177.2 197.497 177.228 196.746C177.228 196.196 177.228 195.637 176.571 195.11C176.116 194.787 174.891 194.347 174.842 194.015Z" fill="#E0674E"/>
<path id="intermediate-3-r" d="M156.426 247.843C154.188 245.283 152.911 242.031 151.861 238.798C149.692 231.538 147.994 224.146 146.775 216.668L143.646 199.853C143.204 197.465 142.769 194.922 143.638 192.65C144.827 189.524 148.095 187.768 151.165 186.452C154.653 184.964 158.227 183.689 161.869 182.635C166.353 181.345 171.449 180.471 175.459 182.853C180.255 185.694 181.549 191.928 182.382 197.448C183.77 206.685 185.122 216.015 186.588 225.282C187.331 229.912 189.738 235.989 188.516 240.685C185.336 253.035 164.498 257.457 156.426 247.843Z" fill="#E0674E"/>
<path id="distal-3-r" d="M168.228 296.904C164.795 295.152 162.634 291.736 160.937 288.256C157.868 282.098 155.624 275.563 154.261 268.819C153.254 263.792 152.918 258.061 156.213 254.159C158.026 252.013 160.671 250.777 163.27 249.704C168.602 247.523 174.097 245.765 179.704 244.445C183.522 243.529 188.492 243.303 190.378 246.742C190.97 248.052 194.043 263.564 194 265V281C194.494 292.53 184.18 304.938 168.228 296.904Z" fill="#E0674E"/>
</g>
<g id="index-r">
<path id="proximal-2-r" d="M235.94 200.088L233.763 188.733C233.529 187.533 233.763 187.471 232.533 186.371C233.025 185.558 231.524 184.718 229.599 184.351C227.673 183.985 225.435 183.979 223.295 184.013C220.551 184.059 217.758 184.155 215.212 184.551C212.768 184.901 210.761 185.603 209.603 186.513C209.787 187.261 209.929 188.01 209.954 188.763C209.97 188.975 209.838 189.184 209.572 189.368C209.672 189.55 209.673 189.738 209.574 189.919C209.476 190.102 209.28 190.274 209 190.424C209.336 193.895 209.679 197.364 210.027 200.834C210.187 202.48 210.433 204.224 212.832 205.579C215.163 205.757 216.523 206.577 218.755 206.899C219.936 207.034 221.19 207.034 222.372 206.899C226.354 206.56 230.01 205.791 232.926 204.68C235.583 203.667 236.217 201.539 235.94 200.088Z" fill="#68B6CE"/>
<path id="intermediate-2-r" d="M241.87 203.5C240.41 216.6 238.963 212.186 237.51 225.286C236.95 230.286 236.14 235.796 232.3 239.056C228.21 242.536 222.21 242.176 216.89 241.506C211.57 240.836 205.24 239.386 202.97 234.436C201.57 231.376 202.15 227.816 202.55 224.436C203.423 217.05 203.238 209.579 202 202.246C202.34 194.396 203.65 186.606 204.25 178.756L204.35 178.686C205.658 178.116 207.081 175.85 208.5 176C217.798 176.229 225 174 236.28 180.476C238.57 180.826 241.28 181.616 241.87 183.876C241.994 184.573 241.987 202.801 241.87 203.5Z" fill="#68B6CE"/>
<path id="distal-2-r" d="M200.873 246.463C200.856 244.565 201.115 242.676 201.643 240.853C203.043 236.693 207.053 233.853 211.303 232.713C215.553 231.573 220.033 232.003 224.383 232.603C229.683 233.343 235.753 235.013 237.833 239.953C239.223 243.273 234.92 266.03 234 269.5L231 281C228.73 289.56 218.053 291.963 206.843 287.053C197.023 282.723 200.563 255.173 200.873 246.463Z" fill="#68B6CE"/>
</g>
<g id="thumb-r">
<path id="proximal-1-r" d="M319.909 200.058C315.37 196.771 309.393 194.064 303.929 195.857C297.153 198.066 294.957 205.583 292.615 211.803C287.959 224.172 279.269 234.923 273.534 246.903C267.8 258.884 265.422 273.596 273.308 284.465C272.956 286.324 276.566 287.699 278.395 288.642C283.453 291.379 288.865 293.867 294.659 294.968C300.453 296.069 306.777 295.718 311.89 292.913C313.132 292.275 314.25 291.419 315.189 290.384C316.398 288.78 317.271 286.949 317.759 285L320.061 277.841C324.891 262.739 327.644 248.779 335.933 235.015C338.215 231.217 340.705 227.336 341.046 223.018C341.579 216.355 336.935 210.4 332.525 205.099C329.839 201.883 326.797 198.446 322.469 197.615C318.452 196.847 314.147 198.527 310.232 197.406" fill="#68B6CE"/>
<path id="distal-1-r" d="M364.336 154.917C359.393 150.725 351.999 150.704 346.005 153.18C340.011 155.655 335.181 160.129 330.488 164.52L328.712 166.177C328.66 166.736 328.489 167.277 328.208 167.763C327.928 168.249 327.546 168.669 327.088 168.994C326.112 169.716 325.121 170.412 324.143 171.09C311.898 180.052 302.48 194.758 296.543 208.61C296.051 211.369 296.23 214.139 298.112 216.068C299.07 216.94 300.188 217.618 301.404 218.064C316.249 224.432 335.171 219.245 344.689 206.189C353.907 193.572 354.266 176.037 363.76 163.648C365.17 161.787 366.889 159.653 366.245 157.418C365.871 156.414 365.207 155.542 364.336 154.917Z" fill="#68B6CE"/>
</g>
</g>
</g>
</g>
</g>
<defs>
<clipPath id="clip0_0_1">
<rect width="382" height="434" fill="white"/>
</clipPath>
</defs>
</svg>
