<svg width="382" height="434" viewBox="0 0 382 434" fill="none" xmlns="http://www.w3.org/2000/svg">
<rect width="382" height="434" fill="white"/>
<g id="s 1">
<path id="Vector" d="M382 0H0V434H382V0Z" fill="white"/>
<g id="a 3">
<path id="Vector_2" d="M382 0H0V434H382V0Z" fill="#E5E5E5"/>
<g id="a 2">
<path id="Vector_2_2" d="M382 0H0V434H382V0Z" fill="white"/>
<g id="a 1">
<g id="hand-r">
<g id="palm-r">
<path id="metacarpal-lower-r" d="M74.94 300.71C71.41 297.04 64.75 300.48 63.39 305.46C62.03 310.44 64.12 315.63 66.17 320.35C77.13 345.59 88.0866 370.837 99.04 396.09C101.96 402.83 105.99 410.47 113.04 411.53C117.32 412.17 121.51 410.12 125.38 408.12C141.04 400.04 156.84 391.86 170.38 380.44C175.54 376.09 180.38 371.31 185.12 366.52C216.64 334.93 248.63 301.39 263.64 258.79C264.839 255.787 265.564 252.616 265.79 249.39C266.04 240.98 260.36 233.78 254.99 227.39C254.57 220.84 247.82 212.92 241.74 210.98C235.66 209.04 229.03 210.08 223.04 212.26C217.05 214.44 211.49 217.72 205.67 220.37C197.91 223.92 189.67 226.37 182.11 230.32C172.2 235.47 163.67 243.02 154.22 249.03C141.22 257.32 126.55 262.6 113.22 270.34C98.33 279.02 87.93 289.24 74.94 300.71Z" fill="#E5B0A5"/>
<path id="index-metacarpal-r" d="M191.06 250C202.42 249.1 217.83 248.2 227.14 240.51C235.7 233.45 241.7 231.39 245.4 219.98C248.88 209.23 250.58 196.63 243.4 187.11C237.61 179.47 227.86 176.54 218.66 176.02C208.663 175.48 198.676 177.246 189.47 181.18C186.07 182.63 182.68 184.45 180.35 187.45C178.706 189.78 177.481 192.379 176.73 195.13C172.6 208.179 171.636 222.025 173.92 235.52C174.74 240.39 176.29 245.64 180.24 248.26C183.36 250.37 187.35 250.29 191.06 250Z" fill="#E5B0A5"/>
<path id="metacarpal-upper-r" d="M169.97 180.55C166.601 180.987 163.307 181.882 160.18 183.21C152.01 187.13 145.01 192.09 136.56 195.72C127.157 199.751 118.088 204.523 109.44 209.99C103.07 214.013 96.9485 218.418 91.11 223.18C90.7718 224.112 90.1948 224.939 89.4366 225.577C88.6785 226.216 87.7658 226.645 86.79 226.82C79.0447 233.528 71.9069 240.906 65.46 248.87C62.3999 252.439 59.8243 256.397 57.8 260.64C52.08 273.64 56.26 288.47 61.14 301.81C61.75 303.47 62.48 305.27 64.14 306.18C65.62 307 67.49 306.88 69.22 306.68C84.58 304.81 98.42 297.55 111.81 290.43C141.72 274.54 177.88 261.52 196.41 233.43C208.44 215.14 199.03 175.39 169.97 180.55Z" fill="#E5B0A5"/>
<path id="carpal-r" d="M107.89 407.46C107.77 418.31 116.52 427.62 126.49 431.22C136.46 434.82 147.39 433.87 157.86 432.45C169.74 430.837 181.53 428.663 193.23 425.93C203.06 423.64 212.33 422.59 222.23 420.61C234.81 418.08 248.55 414.84 256.29 404.34C258.925 400.458 260.948 396.195 262.29 391.7C265.87 381.15 268.01 368.84 262.29 359.31C258.58 353.09 251.98 349.1 245.09 347.31C238.2 345.52 230.97 345.72 223.88 346.31C195.718 348.651 168.347 356.798 143.49 370.24C129.14 378.01 115.27 387.93 106.82 402.15C105.4 404.65 106.21 405.09 107.89 407.46Z" fill="#E5B0A5"/>
<path id="thumb-metacarpal-r" d="M189.994 407.12C192.143 413.961 198.235 418.904 204.758 420.873C211.28 422.842 218.177 422.261 224.749 420.945C243.866 417.036 261.346 407.414 274.877 393.354C280.024 388.056 281.141 378.076 282.964 370.654C290.033 342.082 295.78 313.15 300.205 283.856C301.187 277.367 302.099 270.669 300.584 264.214C299.068 257.76 294.506 251.58 288.363 250.405C284.214 249.6 278.811 245.063 274.643 245.371C271.93 245.578 267.262 245.099 264.541 245.052C261.23 244.998 257.921 245.222 254.647 245.721C248.664 246.922 243.036 247.179 238.673 251.607C234.31 256.036 231.556 261.919 228.867 267.684L209.273 309.883C200.549 328.593 191.808 347.36 185.431 367.159C184.03 371.527 182.726 376.048 182.92 380.694C183.196 384.302 183.987 387.852 185.269 391.236C187.245 397.112 188.13 401.197 189.994 407.12Z" fill="#E5B0A5"/>
</g>
<g id="pinkie-r">
<path id="proximal-5-r" d="M88.9986 261.388C88.9736 259.031 88.7641 256.679 88.3715 254.345C88.3055 253.958 88.23 253.545 88.1499 253.147C87.7098 253.212 87.2558 253.154 86.8607 252.982C86.4656 252.81 86.1524 252.535 85.9713 252.2C85.4247 251.236 85.0256 250.221 84.783 249.177C84.7453 249.127 84.7123 249.076 84.6793 249.022C83.8965 247.638 83.175 246.243 82.4535 244.844C82.1534 244.656 81.9191 244.407 81.7745 244.121C81.1143 242.919 80.2655 241.771 79.5441 240.58C79.379 240.48 79.214 240.379 79.0395 240.286C77.4315 239.409 75.4934 238.845 73.5789 239.038C72.5286 239.181 71.5069 239.442 70.5422 239.811C68.8634 240.383 67.1989 240.981 65.5484 241.605C64.9508 241.786 64.4143 242.082 63.9829 242.467C63.6611 242.846 63.4542 243.284 63.3793 243.742C62.9455 245.644 62.6107 247.194 63.9829 248.767C66.9828 252.222 69.2969 256.045 70.8392 260.093C71.6597 262.254 72.2775 264.503 73.6921 266.447C75.1068 268.392 77.54 270.023 80.2938 270C81.4143 269.954 82.5173 269.754 83.557 269.408C84.4752 269.173 85.3448 268.825 86.1363 268.376C88.6308 266.842 89.0269 263.958 88.9986 261.388Z" fill="#E0674E"/>
<path id="intermediate-5-r" d="M87.9982 228.08C90.8402 233.644 93.1789 239.45 94.9863 245.43C95.0842 249.687 96.3963 252 96.3963 258.1C96.3963 263.5 96.4707 269.657 92.3657 272.285C90.8472 273.266 88.8776 273.304 86.9955 273.324L72.8031 273.401C69.845 273.429 66.5022 273.277 64.2524 271.103C63.2691 270.044 62.4693 268.828 61.8858 267.506L55.9711 255.843C52.65 249.292 49.2194 241.86 51.2194 235.289C51.4346 234.498 51.783 233.749 52.2496 233.075C53.4791 231.405 55.4767 230.708 57.4379 230.077C63.433 228.177 69.5314 226.62 75.7033 225.412C79.5082 224.665 83.8281 224.199 87.4331 225.749C87.4212 226.561 87.6156 227.363 87.9982 228.08Z" fill="#E0674E"/>
<path id="distal-5-r" d="M100.711 270.074C103.918 277.67 105.76 285.771 106.154 294.006C106.312 297.614 106.162 301.362 104.525 304.551C101.559 310.318 94.1379 312.746 87.7986 311.378C83.6651 310.363 79.8717 308.277 76.7996 305.331C73.5142 299.968 70.624 294.373 68.1519 288.589C64.8232 280.172 64.4175 270.939 61 262.49C61.771 258.792 63.7173 255.443 66.5483 252.942C69.4123 250.453 72.9894 248.981 76.5116 247.553C77.9739 246.885 79.5139 246.402 81.0958 246.114C84.6147 245.618 89.1013 246.817 92.3965 248.217C93.339 255.918 97.6638 262.837 100.711 270.074Z" fill="#E0674E"/>
</g>
<g id="ring-r">
<path id="proximal-4-r" d="M131.998 226.526C131.882 220.732 129.912 214.986 126.166 209.517C125.673 208.72 124.96 207.964 124.048 207.271C123.753 207.236 123.468 207.182 123.2 207.109C122.592 206.925 122.141 206.631 121.935 206.286C121.179 206.084 120.334 205.986 119.482 206.002C116.466 206.027 113.801 206.952 111.387 207.874C109.492 208.594 107.557 209.383 106.626 210.49C105.316 212.058 106.314 213.851 107.328 215.474C109.085 218.289 112.318 220.771 113.043 223.751C113.138 224.129 113.238 224.516 113.349 224.906C113.974 227.047 115.072 229.284 118.306 230.772C121.539 232.261 126.936 232.506 129.79 230.895C131.814 229.751 132.026 228.074 131.998 226.526Z" fill="#E0674E"/>
<path id="intermediate-4-r" d="M136.5 214.5C133.937 209.442 134 197.012 128.356 194.452C127.399 194.471 126.446 194.565 125.504 194.735L111.346 197.012C106.274 197.818 100.664 198.952 97.7019 203.136C94.2266 208.037 95.9567 214.781 97.8442 220.504C100.442 228.427 103.041 236.345 105.641 244.258C106.131 245.962 106.808 247.606 107.66 249.16C108.07 249.828 108.549 250.45 109.091 251.015C109.484 251.288 109.836 251.615 110.136 251.987C118.124 258.678 136.617 258.817 141.046 249.272C145.601 239.461 138.325 225.488 136.5 214.5Z" fill="#E0674E"/>
<path id="distal-4-r" d="M138.16 232.968C138.984 238.478 142.669 245.424 144.812 250.566C145.558 252.229 146.171 253.949 146.647 255.71C146.965 257.161 147.188 258.632 147.315 260.113L148.743 273.097C149.321 278.355 149.955 283.226 145.813 286.505C144.47 287.469 142.994 288.232 141.431 288.77C138.566 290.064 135.537 290.957 132.429 291.424C129.369 291.69 126.294 291.132 123.523 289.808C120.751 288.485 118.384 286.443 116.668 283.897C111.478 275.976 109.383 266.439 108.489 257.014C108.301 254.937 108.219 252.846 107.83 250.801C107.419 248.575 106.79 245.173 106 242.137C106.213 241.42 106.249 240.662 106.105 239.928C106.47 238.922 106.49 237.823 106.162 236.804C106.521 236.137 106.735 235.401 106.788 234.644C106.771 234.62 106.756 234.594 106.744 234.566C108.671 232.583 110.996 231.031 113.567 230.012C116.138 228.992 118.895 228.53 121.658 228.654C123.823 228.783 126.029 229.268 128.118 228.716C130.208 228.164 132.126 226.64 134.213 227.078C136.722 227.53 137.788 230.466 138.16 232.968Z" fill="#E0674E"/>
</g>
<g id="middle-r">
<path id="proximal-3-r" d="M174.842 194.015C173.009 193.513 173.485 192.785 172.26 192.204C171.19 191.692 168.86 191.337 166.369 191.152C158.595 190.572 149.036 191.717 147.343 193.431C146.552 194.231 147.28 195.067 148.008 195.864L156.439 205.188C156.999 205.804 157.839 206.503 160.484 206.782C162.618 207.007 166.865 207.026 169.237 206.979C171.61 206.931 174.017 206.732 175.535 206.336C177.746 205.752 180.979 204.849 181 204.092C181 203.47 180.097 202.86 180.013 202.237C180.013 202.01 180.069 201.781 179.943 201.555C179.728 201.28 179.4 201.01 178.964 200.747C178.139 200.158 177.71 199.548 177.69 198.934C177.69 198.183 177.2 197.497 177.228 196.746C177.228 196.196 177.228 195.637 176.571 195.11C176.116 194.787 174.891 194.347 174.842 194.015Z" fill="#E0674E"/>
<path id="intermediate-3-r" d="M156.426 247.843C154.188 245.283 152.911 242.031 151.861 238.798C149.692 231.538 147.994 224.146 146.775 216.668L143.646 199.853C143.204 197.465 142.769 194.922 143.638 192.65C144.827 189.524 148.095 187.768 151.165 186.452C154.653 184.964 158.227 183.689 161.869 182.635C166.353 181.345 171.449 180.471 175.459 182.853C180.255 185.694 181.549 191.928 182.382 197.448C183.77 206.685 185.122 216.015 186.588 225.282C187.331 229.912 189.738 235.989 188.516 240.685C185.336 253.035 164.498 257.457 156.426 247.843Z" fill="#E0674E"/>
<path id="distal-3-r" d="M165.664 280.042C162.231 278.29 160.07 274.874 158.373 271.394C155.304 265.236 153.06 258.701 151.697 251.957C150.69 246.93 150.354 241.199 153.649 237.297C155.462 235.151 158.107 233.915 160.706 232.842C166.038 230.661 171.533 228.903 177.14 227.583C180.958 226.667 185.928 226.441 187.814 229.88C188.406 231.19 191.479 246.702 191.436 248.138V264.138C191.93 275.668 181.616 288.076 165.664 280.042Z" fill="#E0674E"/>
</g>
<g id="index-r">
<path id="proximal-2-r" d="M244.485 185.379L248.876 138.119C249.334 133.126 249.752 132.933 248.543 128.084C249.895 124.874 248.073 121.017 245.241 118.987C242.41 116.957 238.824 116.331 235.37 115.89C230.94 115.335 226.397 114.973 222.039 115.911C217.879 116.689 214.173 119.032 211.685 122.457C211.461 125.583 211.168 128.699 210.685 131.801C210.565 132.674 210.208 133.498 209.654 134.183C209.689 134.958 209.558 135.73 209.274 136.45C208.99 137.171 208.557 137.824 208.004 138.367C206.134 152.723 204.274 167.077 202.425 181.429C201.539 188.236 200.723 195.471 203.627 201.692C207.241 203.053 208.85 206.793 212.207 208.719C214.007 209.59 216.018 209.93 218.005 209.698C224.623 209.38 231.02 207.21 236.466 203.435C241.428 199.994 243.92 191.419 244.485 185.379Z" fill="#68B6CE"/>
<path id="intermediate-2-r" d="M249.712 124.702C250.454 111.541 251.199 98.3817 251.948 85.2225C252.228 80.1991 252.348 74.6311 249.104 70.7771C245.651 66.6647 239.674 66.0205 234.317 65.7951C228.96 65.5698 222.477 65.9454 219.414 70.4482C217.524 73.2323 217.503 76.8394 217.335 80.2386C216.966 87.6661 215.539 95.0028 213.096 102.027C212.125 109.824 212.119 117.724 211.403 125.564L211.491 125.649C212.686 126.428 214.061 126.885 215.485 126.973C224.692 128.296 233.972 129.041 243.273 129.202C245.589 129.238 248.393 128.91 249.351 126.78C249.589 126.112 249.711 125.41 249.712 124.702Z" fill="#68B6CE"/>
<path id="distal-2-r" d="M217 55.8015C216.666 57.6698 216.607 59.5764 216.824 61.4616C217.512 65.7967 220.994 69.2647 224.994 71.0966C228.995 72.9284 233.484 73.2505 237.873 73.3834C243.222 73.5362 249.486 72.9003 252.359 68.3759C254.283 65.3337 254.015 61.4549 253.686 57.8801L254.09 29.2927C253.277 20.4743 241.517 13.798 229.646 16.7726C219.242 19.4068 218.144 47.1617 217 55.8015Z" fill="#68B6CE"/>
</g>
<g id="thumb-r">
<path id="proximal-1-r" d="M216.128 223.95C211.593 227.242 207.162 232.081 207.167 237.832C207.16 244.959 213.621 249.383 218.805 253.544C229.114 261.814 236.631 273.416 246.235 282.591C255.839 291.765 269.083 298.599 281.865 294.484C283.522 295.396 285.951 292.392 287.416 290.947C291.59 286.991 295.638 282.62 298.485 277.456C301.333 272.291 302.965 266.172 301.889 260.439C301.668 259.061 301.203 257.732 300.511 256.518C299.362 254.871 297.893 253.471 296.193 252.402L290.105 247.988C277.252 238.703 264.84 231.745 254.335 219.589C251.435 216.238 248.519 212.666 244.522 210.998C238.355 208.42 231.251 210.982 224.842 213.526C220.95 215.08 216.738 216.902 214.602 220.757C212.624 224.336 212.881 228.951 210.6 232.323" fill="#68B6CE"/>
<path id="distal-1-r" d="M169.513 229.632C169.002 236.094 173.31 242.104 178.823 245.518C184.336 248.935 190.789 250.236 197.096 251.476L199.479 251.948C199.961 251.663 200.501 251.485 201.06 251.429C201.617 251.372 202.181 251.436 202.713 251.618C203.87 251.988 205.014 252.384 206.135 252.782C220.566 257.474 238.002 256.516 252.711 253.232C255.237 252.017 257.38 250.253 257.844 247.598C257.991 246.312 257.887 245.008 257.538 243.761C254.023 227.995 238.751 215.678 222.594 215.591C206.969 215.49 192.535 225.452 176.933 224.995C174.598 224.939 171.862 224.792 170.426 226.621C169.83 227.512 169.512 228.56 169.513 229.632Z" fill="#68B6CE"/>
</g>
<g id="movement">
<line id="Line 1" x1="233" y1="19" x2="36" y2="19" stroke="black" stroke-width="4" stroke-linecap="round" stroke-dasharray="10 10"/>
<line id="Line 2" x1="36.8055" y1="19.6408" x2="196.641" y2="143.194" stroke="black" stroke-width="4" stroke-linecap="round" stroke-dasharray="10 10"/>
<path id="Line 3" d="M195.025 146.012C196.129 146.005 197.019 145.105 197.012 144C197.005 142.895 196.105 142.005 195 142.012L195.025 146.012ZM34.5894 143.582C33.8131 144.368 33.8209 145.634 34.6067 146.411L47.4125 159.06C48.1983 159.836 49.4646 159.829 50.2409 159.043C51.0171 158.257 51.0093 156.991 50.2235 156.214L38.8406 144.97L50.0847 133.587C50.8609 132.802 50.8532 131.535 50.0674 130.759C49.2815 129.983 48.0152 129.991 47.239 130.776L34.5894 143.582ZM190.031 142.043C188.927 142.05 188.037 142.95 188.044 144.055C188.05 145.16 188.951 146.049 190.056 146.043L190.031 142.043ZM180.118 146.104C181.223 146.097 182.113 145.196 182.106 144.091C182.099 142.987 181.198 142.097 180.094 142.104L180.118 146.104ZM170.156 142.165C169.052 142.171 168.162 143.072 168.169 144.177C168.175 145.281 169.076 146.171 170.181 146.165L170.156 142.165ZM160.243 146.226C161.348 146.219 162.238 145.318 162.231 144.213C162.224 143.109 161.323 142.219 160.219 142.226L160.243 146.226ZM150.281 142.287C149.177 142.293 148.287 143.194 148.294 144.299C148.3 145.403 149.201 146.293 150.306 146.287L150.281 142.287ZM140.368 146.348C141.473 146.341 142.363 145.44 142.356 144.335C142.349 143.231 141.448 142.341 140.344 142.348L140.368 146.348ZM130.406 142.409C129.302 142.415 128.412 143.316 128.419 144.421C128.425 145.525 129.326 146.415 130.431 146.408L130.406 142.409ZM120.493 146.469C121.598 146.463 122.488 145.562 122.481 144.457C122.474 143.353 121.573 142.463 120.469 142.47L120.493 146.469ZM110.531 142.53C109.427 142.537 108.537 143.438 108.544 144.543C108.55 145.647 109.451 146.537 110.556 146.53L110.531 142.53ZM100.618 146.591C101.723 146.585 102.613 145.684 102.606 144.579C102.599 143.475 101.698 142.585 100.594 142.591L100.618 146.591ZM90.6563 142.652C89.5517 142.659 88.6618 143.56 88.6686 144.665C88.6753 145.769 89.5762 146.659 90.6808 146.652L90.6563 142.652ZM80.7433 146.713C81.8478 146.707 82.7378 145.806 82.731 144.701C82.7242 143.597 81.8233 142.707 80.7188 142.713L80.7433 146.713ZM70.7812 142.774C69.6767 142.781 68.7868 143.682 68.7936 144.787C68.8003 145.891 69.7012 146.781 70.8058 146.774L70.7812 142.774ZM60.8683 146.835C61.9728 146.828 62.8628 145.928 62.856 144.823C62.8492 143.718 61.9483 142.829 60.8437 142.835L60.8683 146.835ZM50.9062 142.896C49.8017 142.903 48.9118 143.804 48.9185 144.909C48.9253 146.013 49.8262 146.903 50.9308 146.896L50.9062 142.896ZM40.9933 146.957C42.0978 146.95 42.9877 146.049 42.981 144.945C42.9742 143.84 42.0733 142.95 40.9687 142.957L40.9933 146.957ZM195 142.012L190.031 142.043L190.056 146.043L195.025 146.012L195 142.012ZM180.094 142.104L170.156 142.165L170.181 146.165L180.118 146.104L180.094 142.104ZM160.219 142.226L150.281 142.287L150.306 146.287L160.243 146.226L160.219 142.226ZM140.344 142.348L130.406 142.409L130.431 146.408L140.368 146.348L140.344 142.348ZM120.469 142.47L110.531 142.53L110.556 146.53L120.493 146.469L120.469 142.47ZM100.594 142.591L90.6563 142.652L90.6808 146.652L100.618 146.591L100.594 142.591ZM80.7188 142.713L70.7812 142.774L70.8058 146.774L80.7433 146.713L80.7188 142.713ZM60.8437 142.835L50.9062 142.896L50.9308 146.896L60.8683 146.835L60.8437 142.835ZM40.9687 142.957L36 142.988L36.0245 146.988L40.9933 146.957L40.9687 142.957Z" fill="black"/>
</g>
</g>
</g>
</g>
</g>
</g>
</svg>
