<svg id="Layer_1" data-name="Layer 1" xmlns="http://www.w3.org/2000/svg" viewBox="0 0 381.78 433.72"><defs><style>.cls-1{fill:#e5b0a5;}.cls-2{fill:none;}</style></defs><path class="cls-1" d="M698,376.16c-2.45-6-9-9.43-15.46-10s-12.81,1.17-19,2.9l-2.34.65a3.89,3.89,0,0,1-2.74,1.75c-1.2.19-2.4.35-3.58.5-15,2.3-30.14,11-41.8,20.55-1.71,2.22-2.83,4.76-2.05,7.34a10,10,0,0,0,2,3.29c10.23,12.5,29.41,16.63,43.88,9.44,14-6.94,22.41-22.33,36.55-28.94,2.11-1,4.62-2.1,5.08-4.38A5.4,5.4,0,0,0,698,376.16Z" transform="translate(-316.79 -195.21)"/><path class="cls-1" d="M630.91,398.15c-4.47-3.38-10.39-6.21-15.89-4.53-6.82,2.07-9.17,9.54-11.64,15.71-4.91,12.27-13.82,22.84-19.8,34.7s-8.66,26.52-1,37.55c-.39,1.85,3.19,3.3,5,4.28,5,2.84,10.36,5.44,16.13,6.66s12.1,1,17.27-1.7a11.62,11.62,0,0,0,3.35-2.46,15,15,0,0,0,2.68-5.33l2.45-7.11c5.14-15,8.18-28.9,16.75-42.49,2.36-3.75,4.93-7.58,5.36-11.89.67-6.65-3.85-12.7-8.15-18.09-2.62-3.27-5.59-6.77-9.9-7.69-4-.85-8.34.74-12.23-.46" transform="translate(-316.79 -195.21)"/><path class="cls-1" d="M560.45,372.19l-3.54-47.33c-.38-5,0-5.26-2-9.84.8-3.39-1.64-6.89-4.77-8.42s-6.77-1.55-10.25-1.41c-4.46.19-9,.59-13.14,2.24a16.57,16.57,0,0,0-9.12,8.18c.3,3.12.53,6.24.57,9.38a4.83,4.83,0,0,1-.62,2.52,5.52,5.52,0,0,1-.93,4.4q.82,21.7,1.67,43.39c.26,6.86.66,14.13,4.56,19.78,3.79.74,6,4.16,9.63,5.5a10.5,10.5,0,0,0,5.88,0,35.38,35.38,0,0,0,17.16-9.25C559.87,387.11,560.9,378.24,560.45,372.19Z" transform="translate(-316.79 -195.21)"/><path class="cls-1" d="M511.77,249a19.54,19.54,0,0,0,.77,5.61c1.4,4.16,5.41,7,9.66,8.14s8.73.71,13.08.11c5.3-.74,11.37-2.41,13.45-7.35,1.39-3.32.48-7.1-.44-10.57L544.36,230c-2.27-8.56-15.41-26.5-26.62-21.59C507.92,212.74,511.46,240.29,511.77,249Z" transform="translate(-316.79 -195.21)"/><path class="cls-1" d="M438.36,250.27c-1,3.25-.84,6.74-.48,10.12a176.49,176.49,0,0,0,4.38,22.28l4,16.63c.57,2.36,1.21,4.86,2.93,6.58,2.36,2.37,6.06,2.64,9.4,2.59a93.48,93.48,0,0,0,11.33-.88c4.62-.65,9.63-1.93,12.32-5.74,3.22-4.55,1.86-10.77.37-16.15-2.5-9-5.07-18.07-7.51-27.13-1.21-4.53-1.49-11.06-4.52-14.85C462.64,233.74,441.81,238.2,438.36,250.27Z" transform="translate(-316.79 -195.21)"/><path class="cls-1" d="M429.13,200.66c-2.42,3-3,7-3.13,10.87A78.37,78.37,0,0,0,427.83,232c1.13,5,3.16,10.37,7.76,12.59,2.53,1.22,5.45,1.27,8.26,1.19A110,110,0,0,0,461,243.88c3.86-.72,8.49-2.54,8.81-6.45a9.46,9.46,0,0,0-.94-4.15L461,213.17C456.75,202.44,440.42,186.82,429.13,200.66Z" transform="translate(-316.79 -195.21)"/><path class="cls-1" d="M488.67,315.19c-2.62-3.38-1.94-8.27-3.69-12.18-1.53-3.44-4.86-5.83-8.42-7.07-11.11-3.9-24.77,3.8-27.19,15.32-1.13,5.38-.09,11,.95,16.36l12.05,62.69c.8,4.14,2,8.84,5.78,10.72,3.05,1.51,9.12,1.64,12.51,1.32s6.83-1.66,9-4.32c3.16-3.93,7.78-10,7.81-15.09,0-4.18-1.29-8.28-1.41-12.47,0-1.53.08-3.07-.1-4.59a32.33,32.33,0,0,0-1.4-5.43,43.78,43.78,0,0,1-1.82-12.19c0-5.05-.7-9.66-.66-14.71,0-3.7,0-7.46-.94-11C490.49,320.38,488.74,317.42,488.67,315.19Z" transform="translate(-316.79 -195.21)"/><path class="cls-1" d="M449.2,407.56a186.88,186.88,0,0,0-10.46-59.76,30.85,30.85,0,0,0-3.8-7.89,6.18,6.18,0,0,1-1.52-.57,5.08,5.08,0,0,1-2.27-2.89,8.83,8.83,0,0,0-4.4-1c-5.41.09-10.19,3.34-14.52,6.58-3.4,2.53-6.87,5.3-8.54,9.19-2.35,5.51-.56,11.81,1.26,17.51,3.15,9.89,8.95,18.61,10.25,29.08.17,1.33.35,2.69.55,4.06,1.12,7.52,3.09,15.38,8.89,20.61s15.48,6.09,20.6.43C448.87,418.89,449.25,413,449.2,407.56Z" transform="translate(-316.79 -195.21)"/><path class="cls-1" d="M431.12,336.35a4.9,4.9,0,0,1,.19-3.08l-.09.21a5.1,5.1,0,0,0,.2-.63c0-.28,0-.56,0-.84a4.9,4.9,0,0,1,.54-2.2,52.93,52.93,0,0,1-3.43-12.68c-3.83-10.46-3.3-26.18-12.1-32.47-8.56-6.12-24.58,3.12-28.23,12.88a5,5,0,0,1-.43,1.36,11,11,0,0,0-.33,2.32,24,24,0,0,0,.66,5.26q2.46,12.25,4.93,24.51c1.18,5.91,3,12.63,8.44,15.18,4.64,2.18,10.08.4,14.89-1.4l13.44-5a18,18,0,0,0,2.62-1.16A5.27,5.27,0,0,1,431.12,336.35Z" transform="translate(-316.79 -195.21)"/><path class="cls-1" d="M357.4,327.16A70.16,70.16,0,0,0,346.85,305c-2.11-2.93-4.55-5.78-7.81-7.27-5.9-2.69-13.23,0-17.36,5a24.25,24.25,0,0,0-4.89,11.56,129.48,129.48,0,0,0,3.58,18.5c2.6,8.67,8,16.17,10.55,24.92v0a17.51,17.51,0,0,0,10.27,4.06c3.79.18,7.51-.88,11.16-1.94a19.35,19.35,0,0,0,4.49-1.71c3.07-1.79,5.85-5.51,7.57-8.65C360.38,342.84,359.49,334.73,357.4,327.16Z" transform="translate(-316.79 -195.21)"/><path class="cls-2" d="M332,360a5.25,5.25,0,0,0-1.2,1.29c-1.23,2.08.7,4.85,3,5.46s4.78-.2,7.1-.85c4.1-1.14,8.34-1.81,12.27-3.44,5.29-2.18,15.87-14.8,4.54-14.71C349.36,347.84,337.93,354.9,332,360Z" transform="translate(-316.79 -195.21)"/><path class="cls-2" d="M380.07,381.9a5.16,5.16,0,0,0-1.08-.74c-3.08-1.58-6.92.63-9.95,1.62-8.23,2.68-16.48,5.93-22.29,12.64-1.18,1.36-2.28,3.14-1.75,4.85a5.85,5.85,0,0,0,1.89,2.45,10.78,10.78,0,0,0,2.72,2c2.5,1.11,5.38.19,7.95-.74l8.64-3.13a7,7,0,0,0,2.12-1.05,15.15,15.15,0,0,0,1.88-2.38c2.61-3.22,7.78-3.33,10.44-6.51a6.87,6.87,0,0,0,1-6.65A4.45,4.45,0,0,1,380.07,381.9Z" transform="translate(-316.79 -195.21)"/><path class="cls-1" d="M380,381.49a104.77,104.77,0,0,0-5.26-17.95A72.67,72.67,0,0,1,368,352.72c-4.28-2.55-7.1-9.12-11.95-8.64-1.8.17-3.37,1.36-4.86,2.51L340,355.32c-2.34,1.81-4.87,4-5.29,7.1a13,13,0,0,0,.37,4.29l2.58,12.82c1.45,7.2,3.36,15.16,9,19.08a7.22,7.22,0,0,0,2.18,1.1c2,.55,4-.14,5.93-.86A166,166,0,0,0,372,391.2c3.45-1.77,7.13-4.08,9-7.53A4.8,4.8,0,0,1,380,381.49Z" transform="translate(-316.79 -195.21)"/><path class="cls-1" d="M405.33,443.35A142.48,142.48,0,0,0,404,425.13c-.14-1-.3-2.07-.47-3.1a4.23,4.23,0,0,1-4.62-2.45,33.35,33.35,0,0,1-2.52-7.82c-.08-.13-.15-.26-.22-.4-1.66-3.58-3.19-7.19-4.72-10.81a4.54,4.54,0,0,1-1.44-1.87c-1.4-3.11-3.2-6.08-4.73-9.16-.35-.26-.7-.52-1.07-.76-3.41-2.27-7.52-3.73-11.58-3.23a24.88,24.88,0,0,0-6.44,2q-5.34,2.22-10.59,4.64a8.55,8.55,0,0,0-3.32,2.23A7.54,7.54,0,0,0,351,397.7c-.92,4.92-1.63,8.93,1.28,13A104,104,0,0,1,366.82,440c1.74,5.59,3.05,11.41,6.05,16.44s8.16,9.25,14,9.19a21.24,21.24,0,0,0,6.92-1.53,20.28,20.28,0,0,0,5.47-2.67C404.55,457.46,405.39,450,405.33,443.35Z" transform="translate(-316.79 -195.21)"/><path class="cls-1" d="M491.28,588.26c.55,7.15,5.37,13.34,11.28,16.73s12.76,4.38,19.46,4.58A96.36,96.36,0,0,0,577.08,594c6.21-4,9.55-13.47,13-20.29q20-39.36,36.38-80.67c2.42-6.1,4.82-12.42,4.8-19.05s-3.07-13.68-8.79-16.21c-3.86-1.72-8.1-7.36-12.23-8-2.69-.41-7.13-1.93-9.77-2.59a59.26,59.26,0,0,0-9.79-1.58c-6.1-.18-11.64-1.2-16.89,2.13s-9.26,8.44-13.18,13.45L532,497.88c-12.72,16.26-25.47,32.57-36.15,50.42-2.35,3.94-4.64,8.05-5.5,12.62a37.93,37.93,0,0,0-.09,10.8C490.86,577.89,490.8,582.07,491.28,588.26Z" transform="translate(-316.79 -195.21)"/><path class="cls-1" d="M486.76,375.76a37.32,37.32,0,0,0-9.79,2.66c-8.17,3.92-15.17,8.88-23.62,12.51a193.28,193.28,0,0,0-27.12,14.27,186.86,186.86,0,0,0-18.33,13.19,5.66,5.66,0,0,1-4.32,3.64,174,174,0,0,0-21.33,22.05,53.42,53.42,0,0,0-7.66,11.77c-5.72,13-1.54,27.83,3.34,41.17.61,1.66,1.34,3.46,3,4.37,1.48.82,3.35.7,5.08.5,15.36-1.87,29.2-9.13,42.59-16.25,29.91-15.89,66.07-28.91,84.6-57C525.23,410.35,515.82,370.6,486.76,375.76Z" transform="translate(-316.79 -195.21)"/><path class="cls-1" d="M507.85,445.21c11.36-.9,26.77-1.8,36.08-9.49,8.56-7.06,14.56-9.12,18.26-20.53,3.48-10.75,5.18-23.35-2-32.87-5.79-7.64-15.54-10.57-24.74-11.09a65.32,65.32,0,0,0-29.19,5.16c-3.4,1.45-6.79,3.27-9.12,6.27a24.55,24.55,0,0,0-3.62,7.68,86.19,86.19,0,0,0-2.81,40.39c.82,4.87,2.37,10.12,6.32,12.74C500.15,445.58,504.14,445.5,507.85,445.21Z" transform="translate(-316.79 -195.21)"/><path class="cls-2" d="M534.18,442.79A110.85,110.85,0,0,1,525.51,462" transform="translate(-316.79 -195.21)"/><path class="cls-2" d="M523.48,467.5A124.31,124.31,0,0,1,513.86,495" transform="translate(-316.79 -195.21)"/><path class="cls-2" d="M489.46,554.11c8.85-13.66,12.74-28,18.44-42.8l4.25-11.09c7.53-19.64,10.68-43.15,21.83-61" transform="translate(-316.79 -195.21)"/><path class="cls-1" d="M424.68,602.67c-.12,10.85,8.63,20.16,18.6,23.76s20.9,2.65,31.37,1.23q17.82-2.42,35.37-6.52c9.83-2.29,19.1-3.34,29-5.32,12.58-2.53,26.32-5.77,34.06-16.27a45.85,45.85,0,0,0,6-12.64c3.58-10.55,5.72-22.86,0-32.39-3.71-6.22-10.31-10.21-17.2-12s-14.12-1.59-21.21-1a204.64,204.64,0,0,0-80.39,23.93c-14.35,7.77-28.22,17.69-36.67,31.91C422.19,599.86,423,600.3,424.68,602.67Z" transform="translate(-316.79 -195.21)"/><path class="cls-1" d="M555.5,311.49q-2.19-19.65-4.37-39.3c-.56-5-1.37-10.51-5.21-13.77-4.09-3.48-10.09-3.12-15.41-2.45s-11.65,2.12-13.92,7.07c-1.4,3.06-.82,6.62-.42,10a78.2,78.2,0,0,1-.55,22.19c.34,7.85,1.65,15.64,2.25,23.49l.1.07a8.25,8.25,0,0,0,4.16.64A222.54,222.54,0,0,0,549.9,317c2.29-.35,5-1.14,5.59-3.4A6.19,6.19,0,0,0,555.5,311.49Z" transform="translate(-316.79 -195.21)"/><path class="cls-1" d="M415.71,280.33c-2-5.2-2.22-13.06-2.89-18.59a34.8,34.8,0,0,0-.94-5.38,34.27,34.27,0,0,0-1.59-4.16l-5.16-12c-2.09-4.86-3.94-9.41-9.16-10.22a17,17,0,0,0-4.93.19,34.19,34.19,0,0,0-9.14,2.13,17.21,17.21,0,0,0-10,14.32c-.61,9.45,2.27,18.78,6.14,27.42.86,1.9,1.82,3.76,2.49,5.73.74,2.14,1.87,5.41,2.68,8.44a4.62,4.62,0,0,1,1.18,1.87,4.82,4.82,0,0,1,1.59,2.69,5.36,5.36,0,0,1,1.61,1.57.41.41,0,0,0,0,.09,19.57,19.57,0,0,0,15.89-2.21c1.82-1.18,3.5-2.69,5.59-3.24s4.51-.17,6.11-1.58C417.14,285.77,416.62,282.69,415.71,280.33Z" transform="translate(-316.79 -195.21)"/><path class="cls-1" d="M391.73,495.92c-3.53-3.67-10.19-.23-11.55,4.75s.73,10.17,2.78,14.89q16.44,37.86,32.87,75.74c2.92,6.74,6.95,14.38,14,15.44,4.28.64,8.47-1.41,12.34-3.41,15.66-8.08,31.46-16.26,45-27.68,5.16-4.35,10-9.13,14.74-13.92,31.52-31.59,63.51-65.13,78.52-107.73a31.25,31.25,0,0,0,2.15-9.4c.25-8.41-5.43-15.61-10.8-22-.42-6.55-7.17-14.47-13.25-16.41s-12.71-.9-18.7,1.28-11.55,5.46-17.37,8.11c-7.76,3.55-16,6-23.56,9.95-9.91,5.15-18.44,12.7-27.89,18.71-13,8.29-27.67,13.57-41,21.31C415.12,474.23,404.72,484.45,391.73,495.92Z" transform="translate(-316.79 -195.21)"/></svg>