<svg width="382" height="434" viewBox="0 0 382 434" fill="none" xmlns="http://www.w3.org/2000/svg">
<g id="hand-r" clip-path="url(#clip0_2_2)">
<g id="pinkie-r">
<path id="proximal-5-r" d="M88.54 248.14C88.4869 242.044 88.0427 235.959 87.21 229.92C87.07 228.92 86.91 227.85 86.74 226.82C85.8068 226.989 84.8439 226.839 84.0061 226.394C83.1682 225.95 82.504 225.237 82.12 224.37C80.9609 221.877 80.1145 219.251 79.6 216.55C79.52 216.42 79.45 216.29 79.38 216.15C77.72 212.57 76.19 208.96 74.66 205.34C74.0236 204.854 73.5268 204.209 73.22 203.47C71.82 200.36 70.02 197.39 68.49 194.31C68.14 194.05 67.79 193.79 67.42 193.55C64.01 191.28 59.9 189.82 55.84 190.32C53.6125 190.691 51.446 191.364 49.4 192.32C45.84 193.8 42.31 195.347 38.81 196.96C37.5426 197.43 36.4048 198.195 35.49 199.19C34.8076 200.173 34.3688 201.304 34.21 202.49C33.29 207.41 32.58 211.42 35.49 215.49C41.8518 224.429 46.7592 234.318 50.03 244.79C51.77 250.38 53.08 256.2 56.08 261.23C59.08 266.26 64.24 270.48 70.08 270.42C72.4561 270.301 74.7953 269.784 77 268.89C78.9473 268.28 80.7914 267.38 82.47 266.22C87.76 262.25 88.6 254.79 88.54 248.14Z" fill="#E0674E"/>
<path id="intermediate-5-r" d="M63.21 186.28C61.9953 180.152 60.235 174.145 57.95 168.33C55.3907 164.928 53.1354 161.307 51.21 157.51C46.93 154.96 44.11 148.39 39.26 148.87C37.46 149.04 35.89 150.23 34.4 151.38L23.21 160.11C20.87 161.92 18.34 164.11 17.92 167.21C17.804 168.651 17.929 170.1 18.29 171.5L20.87 184.32C22.32 191.52 24.23 199.48 29.87 203.4C30.5289 203.888 31.2661 204.26 32.05 204.5C34.05 205.05 36.05 204.36 37.98 203.64C43.8636 201.418 49.6162 198.864 55.21 195.99C58.66 194.22 62.34 191.91 64.21 188.46C63.6976 187.83 63.3535 187.08 63.21 186.28V186.28Z" fill="#E0674E"/>
<path id="distal-5-r" d="M40.61 131.95C38.4227 124.001 34.8514 116.499 30.06 109.79C27.95 106.86 25.51 104.01 22.25 102.52C16.35 99.83 9.01998 102.52 4.88998 107.52C2.27371 110.877 0.587235 114.864 0 119.08C0.742437 125.325 1.93892 131.508 3.57999 137.58C6.17999 146.25 11.58 153.75 14.13 162.5C17.0258 164.926 20.6283 166.35 24.4 166.56C28.19 166.74 31.91 165.68 35.56 164.62C37.1219 164.239 38.6302 163.664 40.05 162.91C43.12 161.12 45.9 157.4 47.62 154.26C43.59 147.63 42.7 139.52 40.61 131.95Z" fill="#E0674E"/>
</g>
<g id="ring-r">
<path id="proximal-4-r" d="M132.41 212.35C132.202 191.993 128.668 171.807 121.95 152.59C121.065 149.793 119.785 147.136 118.15 144.7C117.62 144.578 117.109 144.386 116.63 144.13C115.539 143.484 114.729 142.453 114.36 141.24C113.005 140.531 111.489 140.187 109.96 140.24C104.55 140.33 99.77 143.58 95.44 146.82C92.04 149.35 88.57 152.12 86.9 156.01C84.55 161.52 86.34 167.82 88.16 173.52C91.31 183.41 97.11 192.13 98.41 202.6C98.58 203.93 98.76 205.29 98.96 206.66C100.08 214.18 102.05 222.04 107.85 227.27C113.65 232.5 123.33 233.36 128.45 227.7C132.08 223.68 132.46 217.79 132.41 212.35Z" fill="#E0674E"/>
<path id="intermediate-4-r" d="M114.33 141.14C114.06 140.12 114.127 139.039 114.52 138.06L114.43 138.27C114.51 138.065 114.577 137.854 114.63 137.64C114.63 137.36 114.63 137.08 114.63 136.8C114.636 136.035 114.821 135.281 115.17 134.6C113.505 130.532 112.352 126.273 111.74 121.92C107.91 111.46 108.44 95.74 99.64 89.45C91.08 83.33 75.06 92.57 71.41 102.33C71.3324 102.802 71.1876 103.26 70.98 103.69C70.7877 104.449 70.6771 105.227 70.65 106.01C70.6751 107.782 70.8964 109.546 71.31 111.27C72.95 119.437 74.5933 127.607 76.24 135.78C77.42 141.69 79.24 148.41 84.68 150.96C89.32 153.14 94.76 151.36 99.57 149.56L113.01 144.56C113.913 144.244 114.789 143.856 115.63 143.4C115.014 142.767 114.567 141.99 114.33 141.14V141.14Z" fill="#E0674E"/>
<path id="distal-4-r" d="M98.92 85.12C96.92 79.92 96.7 72.06 96.03 66.53C95.8581 64.7148 95.5438 62.9159 95.09 61.15C94.6507 59.7303 94.1196 58.3407 93.5 56.99L88.34 44.99C86.25 40.13 84.4 35.58 79.18 34.77C77.5362 34.5933 75.8753 34.6573 74.25 34.96C71.1199 35.2465 68.0443 35.9632 65.11 37.09C62.317 38.3675 59.9168 40.3691 58.1584 42.8871C56.4 45.4052 55.3474 48.3479 55.11 51.41C54.5 60.86 57.38 70.19 61.25 78.83C62.11 80.73 63.07 82.59 63.74 84.56C64.48 86.7 65.61 89.97 66.42 93C66.9589 93.5186 67.3638 94.1603 67.6 94.87C68.414 95.5652 68.9734 96.5116 69.19 97.56C69.8316 97.9636 70.3804 98.4987 70.8 99.13C70.7967 99.1599 70.7967 99.1901 70.8 99.22C73.4544 99.9952 76.2429 100.199 78.9819 99.8181C81.7208 99.4372 84.3479 98.4801 86.69 97.01C88.51 95.83 90.19 94.32 92.28 93.77C94.37 93.22 96.79 93.6 98.39 92.19C100.35 90.56 99.83 87.48 98.92 85.12Z" fill="#E0674E"/>
</g>
<g id="middle-r">
<path id="proximal-3-r" d="M171.88 119.98C169.26 116.6 169.94 111.71 168.19 107.8C166.66 104.36 163.33 101.97 159.77 100.73C148.66 96.83 135 104.53 132.58 116.05C131.45 121.43 132.49 127.05 133.53 132.41L145.58 195.1C146.38 199.24 147.58 203.94 151.36 205.82C154.41 207.33 160.48 207.46 163.87 207.14C167.26 206.82 170.7 205.48 172.87 202.82C176.03 198.89 180.65 192.82 180.68 187.73C180.68 183.55 179.39 179.45 179.27 175.26C179.27 173.73 179.35 172.19 179.17 170.67C178.861 168.823 178.393 167.006 177.77 165.24C176.592 161.283 175.979 157.179 175.95 153.05C175.95 148 175.25 143.39 175.29 138.34C175.29 134.64 175.29 130.88 174.35 127.34C173.7 125.17 171.95 122.21 171.88 119.98Z" fill="#E0674E"/>
<path id="intermediate-3-r" d="M121.57 55.06C120.57 58.31 120.73 61.8 121.09 65.18C122.07 72.693 123.533 80.1351 125.47 87.46L129.47 104.09C130.04 106.45 130.68 108.95 132.4 110.67C134.76 113.04 138.46 113.31 141.8 113.26C145.591 113.197 149.375 112.903 153.13 112.38C157.75 111.73 162.76 110.45 165.45 106.64C168.67 102.09 167.31 95.87 165.82 90.49C163.32 81.49 160.75 72.42 158.31 63.36C157.1 58.83 156.82 52.3 153.79 48.51C145.85 38.53 125.02 42.99 121.57 55.06Z" fill="#E0674E"/>
<path id="distal-3-r" d="M112.34 5.45001C109.92 8.45001 109.34 12.45 109.21 16.32C108.919 23.1941 109.534 30.0766 111.04 36.79C112.17 41.79 114.2 47.16 118.8 49.38C121.33 50.6 124.25 50.65 127.06 50.57C132.818 50.3867 138.552 49.7514 144.21 48.67C148.07 47.95 152.7 46.13 153.02 42.22C153.026 40.7832 152.704 39.364 152.08 38.07L144.21 17.96C139.96 7.23 123.63 -8.38999 112.34 5.45001Z" fill="#E0674E"/>
</g>
<g id="index-r">
<path id="proximal-2-r" d="M243.66 176.98L240.12 129.65C239.74 124.65 240.12 124.39 238.12 119.81C238.92 116.42 236.48 112.92 233.35 111.39C230.22 109.86 226.58 109.84 223.1 109.98C218.64 110.17 214.1 110.57 209.96 112.22C205.987 113.681 202.723 116.608 200.84 120.4C201.14 123.52 201.37 126.64 201.41 129.78C201.437 130.661 201.223 131.532 200.79 132.3C200.953 133.058 200.954 133.841 200.793 134.599C200.633 135.357 200.315 136.073 199.86 136.7C200.407 151.167 200.963 165.63 201.53 180.09C201.79 186.95 202.19 194.22 206.09 199.87C209.88 200.61 212.09 204.03 215.72 205.37C217.64 205.93 219.68 205.93 221.6 205.37C228.073 203.954 234.019 200.749 238.76 196.12C243.08 191.9 244.11 183.03 243.66 176.98Z" fill="#68B6CE"/>
<path id="intermediate-2-r" d="M238.71 116.28C237.25 103.18 235.793 90.08 234.34 76.98C233.78 71.98 232.97 66.47 229.13 63.21C225.04 59.73 219.04 60.09 213.72 60.76C208.4 61.43 202.07 62.88 199.8 67.83C198.4 70.89 198.98 74.45 199.38 77.83C200.253 85.2152 200.068 92.6871 198.83 100.02C199.17 107.87 200.48 115.66 201.08 123.51L201.18 123.58C202.488 124.149 203.921 124.37 205.34 124.22C214.638 123.991 223.913 123.18 233.11 121.79C235.4 121.44 238.11 120.65 238.7 118.39C238.824 117.692 238.827 116.979 238.71 116.28V116.28Z" fill="#68B6CE"/>
<path id="distal-2-r" d="M194.98 53.79C194.963 55.6875 195.222 57.5773 195.75 59.4C197.15 63.56 201.16 66.4 205.41 67.54C209.66 68.68 214.14 68.25 218.49 67.65C223.79 66.91 229.86 65.24 231.94 60.3C233.33 56.98 232.42 53.2 231.5 49.73L227.57 34.79C225.3 26.23 212.16 8.28999 200.95 13.2C191.13 17.53 194.67 45.08 194.98 53.79Z" fill="#68B6CE"/>
</g>
<g id="palm-r">
<path id="metacarpal-lower-r" d="M74.94 300.71C71.41 297.04 64.75 300.48 63.39 305.46C62.03 310.44 64.12 315.63 66.17 320.35C77.13 345.59 88.0866 370.837 99.04 396.09C101.96 402.83 105.99 410.47 113.04 411.53C117.32 412.17 121.51 410.12 125.38 408.12C141.04 400.04 156.84 391.86 170.38 380.44C175.54 376.09 180.38 371.31 185.12 366.52C216.64 334.93 248.63 301.39 263.64 258.79C264.839 255.787 265.564 252.616 265.79 249.39C266.04 240.98 260.36 233.78 254.99 227.39C254.57 220.84 247.82 212.92 241.74 210.98C235.66 209.04 229.03 210.08 223.04 212.26C217.05 214.44 211.49 217.72 205.67 220.37C197.91 223.92 189.67 226.37 182.11 230.32C172.2 235.47 163.67 243.02 154.22 249.03C141.22 257.32 126.55 262.6 113.22 270.34C98.33 279.02 87.93 289.24 74.94 300.71Z" fill="#E5B0A5"/>
<path id="index-metacarpal-r" d="M191.06 250C202.42 249.1 217.83 248.2 227.14 240.51C235.7 233.45 241.7 231.39 245.4 219.98C248.88 209.23 250.58 196.63 243.4 187.11C237.61 179.47 227.86 176.54 218.66 176.02C208.663 175.48 198.676 177.246 189.47 181.18C186.07 182.63 182.68 184.45 180.35 187.45C178.706 189.78 177.481 192.379 176.73 195.13C172.6 208.179 171.636 222.025 173.92 235.52C174.74 240.39 176.29 245.64 180.24 248.26C183.36 250.37 187.35 250.29 191.06 250Z" fill="#E5B0A5"/>
<path id="metacarpal-upper-r" d="M169.97 180.55C166.601 180.987 163.307 181.882 160.18 183.21C152.01 187.13 145.01 192.09 136.56 195.72C127.157 199.751 118.088 204.523 109.44 209.99C103.07 214.013 96.9485 218.418 91.11 223.18C90.7718 224.112 90.1948 224.939 89.4366 225.577C88.6785 226.216 87.7658 226.645 86.79 226.82C79.0447 233.528 71.9069 240.906 65.46 248.87C62.3999 252.439 59.8243 256.397 57.8 260.64C52.08 273.64 56.26 288.47 61.14 301.81C61.75 303.47 62.48 305.27 64.14 306.18C65.62 307 67.49 306.88 69.22 306.68C84.58 304.81 98.42 297.55 111.81 290.43C141.72 274.54 177.88 261.52 196.41 233.43C208.44 215.14 199.03 175.39 169.97 180.55Z" fill="#E5B0A5"/>
<path id="carpal-r" d="M107.89 407.46C107.77 418.31 116.52 427.62 126.49 431.22C136.46 434.82 147.39 433.87 157.86 432.45C169.74 430.837 181.53 428.663 193.23 425.93C203.06 423.64 212.33 422.59 222.23 420.61C234.81 418.08 248.55 414.84 256.29 404.34C258.925 400.458 260.948 396.195 262.29 391.7C265.87 381.15 268.01 368.84 262.29 359.31C258.58 353.09 251.98 349.1 245.09 347.31C238.2 345.52 230.97 345.72 223.88 346.31C195.718 348.651 168.347 356.798 143.49 370.24C129.14 378.01 115.27 387.93 106.82 402.15C105.4 404.65 106.21 405.09 107.89 407.46Z" fill="#E5B0A5"/>
<path id="thumb-metacarpal-r" d="M174.49 393.05C175.04 400.2 179.86 406.39 185.77 409.78C191.68 413.17 198.53 414.16 205.23 414.36C224.736 414.865 243.936 409.435 260.29 398.79C266.5 394.79 269.84 385.32 273.29 378.5C286.623 352.26 298.75 325.37 309.67 297.83C312.09 291.73 314.49 285.41 314.47 278.78C314.45 272.15 311.4 265.1 305.68 262.57C301.82 260.85 297.58 255.21 293.45 254.57C290.76 254.16 286.32 252.64 283.68 251.98C280.467 251.181 277.192 250.652 273.89 250.4C267.79 250.22 262.25 249.2 257 252.53C251.75 255.86 247.74 260.97 243.82 265.98L215.21 302.67C202.49 318.93 189.74 335.24 179.06 353.09C176.71 357.03 174.42 361.14 173.56 365.71C173.015 369.287 172.985 372.924 173.47 376.51C174.07 382.68 174.01 386.86 174.49 393.05Z" fill="#E5B0A5"/>
</g>
<g id="thumb-r">
<path id="proximal-1-r" d="M319.036 200.1C314.566 196.72 308.646 193.89 303.146 195.57C296.326 197.64 293.976 205.11 291.506 211.28C286.596 223.55 277.686 234.12 271.706 245.98C265.726 257.84 263.046 272.5 270.706 283.53C270.316 285.38 273.896 286.83 275.706 287.81C280.706 290.65 286.066 293.25 291.836 294.47C297.606 295.69 303.936 295.47 309.106 292.77C310.361 292.158 311.496 291.325 312.456 290.31C313.697 288.731 314.609 286.919 315.136 284.98L317.586 277.87C322.726 262.87 325.766 248.97 334.336 235.38C336.696 231.63 339.266 227.8 339.696 223.49C340.366 216.84 335.846 210.79 331.546 205.4C328.926 202.13 325.956 198.63 321.646 197.71C317.646 196.86 313.306 198.45 309.416 197.25" fill="#68B6CE"/>
<path id="distal-1-r" d="M373.391 171.005C369.73 165.658 362.603 163.688 356.168 164.495C349.734 165.301 343.894 168.343 338.209 171.341L336.059 172.47C335.862 172.996 335.554 173.473 335.155 173.868C334.757 174.263 334.277 174.567 333.75 174.759C332.617 175.198 331.478 175.608 330.357 176.004C316.18 181.419 303.219 193.12 293.838 204.916C292.635 207.447 292.077 210.167 293.384 212.524C294.078 213.618 294.978 214.567 296.033 215.317C308.672 225.376 328.291 225.363 340.917 215.28C353.136 205.54 358.107 188.721 370.533 179.275C372.384 177.852 374.605 176.247 374.574 173.921C374.478 172.853 374.066 171.838 373.391 171.005V171.005Z" fill="#68B6CE"/>
</g>
</g>
<defs>
<clipPath id="clip0_2_2">
<rect width="381.78" height="433.72" fill="white"/>
</clipPath>
</defs>
</svg>
